<svg width="23" height="21" viewBox="0 0 23 21" fill="none" xmlns="http://www.w3.org/2000/svg">
<path d="M5.29783 17.8883L18.2258 1.69625C18.8445 1.07759 19.4312 0.650923 19.9858 0.416256C20.5405 0.181589 21.0312 0.0642548 21.4578 0.0642548C22.0765 0.0642548 22.3538 0.330921 22.2898 0.864256C22.2045 1.41892 21.8312 2.06959 21.1698 2.81626L9.36183 18.6563C8.82849 19.2536 8.35916 19.7123 7.95383 20.0323C7.54849 20.3736 7.17516 20.5976 6.83383 20.7043C6.47116 20.8109 6.09783 20.8643 5.71383 20.8643C5.13783 20.8643 4.67916 20.7256 4.33783 20.4483C3.97516 20.1709 3.65516 19.5736 3.37783 18.6563L0.145828 2.68826C-0.0675049 1.94159 -0.0461712 1.30159 0.209827 0.768255C0.465828 0.256256 0.903162 0.000255585 1.52183 0.000255585C1.92716 0.000255585 2.28983 0.117588 2.60983 0.352255C2.90849 0.608255 3.19649 1.03492 3.47383 1.63226L7.60183 17.8883H5.29783Z" fill="#032412"/>
</svg>
