<svg width="41" height="41" viewBox="0 0 41 41" fill="none" xmlns="http://www.w3.org/2000/svg">
<rect x="0.5" y="0.5" width="40" height="40" stroke="#032412"/>
<path d="M15.2978 28.888L28.2258 12.696C28.8445 12.0773 29.4312 11.6507 29.9858 11.416C30.5405 11.1813 31.0312 11.064 31.4578 11.064C32.0765 11.064 32.3538 11.3307 32.2898 11.864C32.2045 12.4187 31.8312 13.0693 31.1698 13.816L19.3618 29.656C18.8285 30.2533 18.3592 30.712 17.9538 31.032C17.5485 31.3733 17.1752 31.5973 16.8338 31.704C16.4712 31.8107 16.0978 31.864 15.7138 31.864C15.1378 31.864 14.6792 31.7253 14.3378 31.448C13.9752 31.1707 13.6552 30.5733 13.3778 29.656L10.1458 13.688C9.9325 12.9413 9.95383 12.3013 10.2098 11.768C10.4658 11.256 10.9032 11 11.5218 11C11.9272 11 12.2898 11.1173 12.6098 11.352C12.9085 11.608 13.1965 12.0347 13.4738 12.632L17.6018 28.888H15.2978Z" fill="#032412"/>
</svg>
