<svg width="102" height="102" viewBox="0 0 102 102" fill="none" xmlns="http://www.w3.org/2000/svg">
<path d="M66.5656 2.96434L66.3664 2.73392L66.0703 2.80524L53.1015 5.92868L40.5006 1.55113L40.2129 1.45118L39.9921 1.661L30.3225 10.8504L17.2211 13.3598L16.9219 13.4171L16.8356 13.7092L13.0562 26.5022L2.96468 35.2261L2.73425 35.4253L2.80557 35.7214L5.92901 48.6902L1.55147 61.2911L1.45151 61.5788L1.66134 61.7996L10.8507 71.4692L13.3601 84.5707L13.4174 84.8698L13.7095 84.9561L26.5025 88.7355L35.2264 98.827L35.4256 99.0575L35.7218 98.9862L48.6906 95.8627L61.2914 100.24L61.5792 100.34L61.8 100.13L71.4695 90.941L84.571 88.4316L84.8702 88.3743L84.9565 88.0822L88.7359 75.2892L98.8274 66.5653L99.0578 66.3661L98.9865 66.07L95.8631 53.1012L100.241 40.5003L100.341 40.2126L100.131 39.9918L90.9413 30.3222L88.432 17.2207L88.3747 16.9216L88.0826 16.8353L75.2895 13.0559L66.5656 2.96434Z" fill="#032412" stroke="#FFF5D8"/>
<path d="M71.5135 4.87539L71.3396 4.62531L71.0377 4.66513L57.8125 6.40909L45.7412 0.732196L45.4655 0.602571L45.2239 0.788047L34.6426 8.91092L21.35 10.0303L21.0465 10.0558L20.93 10.3373L15.8278 22.6625L4.87573 30.2782L4.62565 30.4521L4.66547 30.7541L6.40943 43.9792L0.732535 56.0506L0.602909 56.3262L0.788386 56.5678L8.91127 67.1492L10.0306 80.4417L10.0562 80.7452L10.3376 80.8617L22.6629 85.964L30.2786 96.916L30.4524 97.1661L30.7544 97.1263L43.9796 95.3823L56.0509 101.059L56.3266 101.189L56.5682 101.003L67.1495 92.8805L80.4421 91.7611L80.7456 91.7356L80.8621 91.4541L85.9643 79.1289L96.9164 71.5132L97.1664 71.3393L97.1266 71.0373L95.3827 57.8122L101.06 45.7408L101.189 45.4652L101.004 45.2236L92.8808 34.6423L91.7615 21.3497L91.7359 21.0462L91.4545 20.9297L79.1292 15.8274L71.5135 4.87539Z" fill="#032412" stroke="#FFF5D8"/>
<path d="M62.6739 1.86289L62.4569 1.64916L62.1674 1.74398L49.4906 5.8966L36.5795 2.54287L36.2847 2.46629L36.0814 2.69314L27.1793 12.6278L14.3211 16.179L14.0274 16.2601L13.9648 16.5581L11.2227 29.6129L1.86272 39.1174L1.64899 39.3344L1.74381 39.6239L5.89643 52.3007L2.5427 65.2118L2.46612 65.5066L2.69297 65.7099L12.6276 74.612L16.1788 87.4703L16.2599 87.7639L16.558 87.8265L29.6127 90.5686L39.1172 99.9286L39.3343 100.142L39.6237 100.048L52.3005 95.8949L65.2117 99.2486L65.5065 99.3252L65.7097 99.0984L74.6119 89.1637L87.4701 85.6125L87.7637 85.5314L87.8263 85.2334L90.5685 72.1786L99.9284 62.6741L100.142 62.4571L100.047 62.1676L95.8947 49.4908L99.2485 36.5797L99.325 36.2849L99.0982 36.0816L89.1635 27.1795L85.6124 14.3212L85.5313 14.0276L85.2332 13.965L72.1784 11.2229L62.6739 1.86289Z" fill="#032412" stroke="#FFF5D8"/>
<path d="M59.6554 9.51539L55.4378 4.62842C53.0445 1.85527 48.7465 1.85527 46.3532 4.62842L42.1356 9.51539C41.0635 10.7577 39.3413 11.2192 37.7916 10.6794L31.6956 8.55592C28.2364 7.35095 24.5142 9.49995 23.8281 13.0982L22.619 19.4393C22.3117 21.0512 21.051 22.3119 19.439 22.6193L13.098 23.8283C9.4997 24.5144 7.3507 28.2366 8.55567 31.6958L10.6791 37.7919C11.2189 39.3415 10.7575 41.0637 9.51515 42.1359L4.62818 46.3534C1.85502 48.7467 1.85502 53.0448 4.62818 55.4381L9.51515 59.6556C10.7575 60.7278 11.2189 62.45 10.6791 63.9996L8.55567 70.0957C7.3507 73.5549 9.4997 77.2771 13.098 77.9632L19.439 79.1722C21.051 79.4796 22.3117 80.7403 22.619 82.3522L23.8281 88.6933C24.5142 92.2916 28.2364 94.4406 31.6956 93.2356L37.7916 91.1121C39.3413 90.5723 41.0635 91.0338 42.1356 92.2761L46.3532 97.1631C48.7465 99.9362 53.0445 99.9362 55.4378 97.1631L59.6554 92.2761C60.7276 91.0338 62.4497 90.5723 63.9994 91.1121L70.0954 93.2356C73.5547 94.4406 77.2768 92.2916 77.9629 88.6933L79.172 82.3522C79.4793 80.7403 80.74 79.4796 82.352 79.1722L88.693 77.9632C92.2913 77.2771 94.4403 73.5549 93.2353 70.0957L91.1119 63.9996C90.5721 62.45 91.0335 60.7278 92.2759 59.6556L97.1628 55.4381C99.936 53.0448 99.936 48.7467 97.1628 46.3534L92.2759 42.1359C91.0335 41.0637 90.5721 39.3415 91.1119 37.7919L93.2353 31.6958C94.4403 28.2366 92.2913 24.5144 88.693 23.8283L82.352 22.6193C80.74 22.3119 79.4793 21.0512 79.172 19.4393L77.9629 13.0982C77.2768 9.49995 73.5547 7.35095 70.0954 8.55592L63.9994 10.6794C62.4497 11.2192 60.7276 10.7577 59.6554 9.51539Z" fill="#FFF5D8" stroke="#032412" stroke-width="2"/>
<path d="M17.1791 44.5772L18.927 52.9468L18.3253 53.7235C18.1309 53.8526 17.9896 53.9397 17.9016 53.9846C17.8144 54.0338 17.7284 54.0673 17.6436 54.085C17.5417 54.1063 17.4554 54.0955 17.3844 54.0528C17.3135 54.01 17.2661 53.9314 17.2422 53.8168L15.6152 46.0264C15.5922 45.9161 15.5588 45.8411 15.5151 45.8015C15.4714 45.7619 15.4122 45.7433 15.3374 45.7457L14.9947 45.7906C14.9148 45.7896 14.8539 45.7736 14.812 45.7425C14.7701 45.7114 14.7429 45.6661 14.7305 45.6067C14.7154 45.5346 14.7247 45.4729 14.7582 45.4216C14.7918 45.3703 14.8593 45.3119 14.9608 45.2464L16.0542 44.5664C16.2107 44.4673 16.335 44.3948 16.4273 44.349C16.5196 44.3032 16.6018 44.2727 16.6739 44.2576C16.8139 44.2284 16.9259 44.2449 17.0097 44.3071C17.0969 44.3641 17.1534 44.4542 17.1791 44.5772ZM17.8424 49.5666L17.4789 49.2572C17.7094 48.6644 18.0125 48.176 18.3884 47.792C18.7635 47.4037 19.2183 47.1537 19.7529 47.042C20.2536 46.9375 20.7283 46.9734 21.177 47.1498C21.6247 47.322 22.0085 47.6116 22.3282 48.0187C22.6512 48.4206 22.8744 48.9164 22.9975 49.5062C23.1384 50.1809 23.1254 50.7969 22.9584 51.3543C22.7947 51.9066 22.5105 52.369 22.1056 52.7413C21.6998 53.1095 21.2105 53.3534 20.6377 53.473C20.1327 53.5785 19.6581 53.5536 19.2139 53.3984C18.7739 53.2423 18.3792 52.9638 18.0298 52.563L18.3932 52.1085C18.6771 52.4079 18.9667 52.6175 19.2618 52.7374C19.5604 52.8522 19.8603 52.8781 20.1615 52.8152C20.4501 52.755 20.6912 52.6161 20.8848 52.3985C21.0776 52.1767 21.2026 51.8738 21.2597 51.4899C21.3168 51.106 21.2878 50.6383 21.1726 50.0866C21.0644 49.569 20.9092 49.1542 20.7067 48.8422C20.5086 48.5293 20.2819 48.3132 20.0267 48.1938C19.7706 48.0701 19.4983 48.0384 19.2097 48.0987C18.9042 48.1625 18.6352 48.3161 18.4026 48.5595C18.1743 48.802 17.9876 49.1377 17.8424 49.5666ZM30.4256 47.3306C30.4735 47.5597 30.4445 47.7495 30.3386 47.9001C30.2362 48.0454 30.0619 48.1438 29.8158 48.1952L25.8442 49.0247L25.7432 48.541L28.3527 47.996C28.5691 47.9508 28.6565 47.8285 28.6148 47.629C28.4987 47.0732 28.3066 46.6727 28.0384 46.4276C27.7736 46.1774 27.4715 46.0877 27.132 46.1586C26.8647 46.2144 26.6461 46.3442 26.4761 46.548C26.3103 46.7509 26.1995 47.0153 26.1436 47.3414C26.0911 47.6624 26.1091 48.035 26.1977 48.4593C26.3687 49.2782 26.6903 49.8532 27.1624 50.1841C27.6345 50.5151 28.1887 50.6141 28.8252 50.4812C29.1986 50.4032 29.5119 50.2602 29.7652 50.0524C30.0185 49.8445 30.1948 49.5862 30.2942 49.2776C30.3529 49.1768 30.4003 49.1071 30.4365 49.0686C30.477 49.0291 30.5206 49.0045 30.5673 48.9948C30.6352 48.9806 30.6906 49.0022 30.7336 49.0597C30.7757 49.1129 30.8056 49.1819 30.8233 49.2668C30.8817 49.631 30.8235 49.9885 30.6488 50.3394C30.4741 50.6903 30.2043 50.9991 29.8393 51.2657C29.4743 51.5324 29.0287 51.7206 28.5026 51.8305C27.8915 51.9581 27.3223 51.9464 26.7948 51.7953C26.2664 51.6399 25.819 51.3636 25.4526 50.9663C25.0896 50.5639 24.8443 50.0571 24.7167 49.4461C24.582 48.8012 24.5905 48.206 24.7423 47.6606C24.8975 47.1101 25.1855 46.6448 25.6065 46.2646C26.0266 45.8802 26.5698 45.6184 27.2359 45.4793C27.8003 45.3614 28.3036 45.3648 28.7459 45.4894C29.1915 45.6089 29.5585 45.829 29.8469 46.1496C30.1343 46.4659 30.3273 46.8596 30.4256 47.3306ZM36.8401 49.3121C37.4943 49.2641 38.0236 49.2753 38.4281 49.3458C38.8316 49.4121 39.1391 49.5383 39.3507 49.7244C39.5631 49.9147 39.703 50.1711 39.7704 50.4936C39.8918 51.0749 39.677 51.6157 39.1261 52.116C38.5804 52.6197 37.7156 52.9951 36.5318 53.2423C35.7637 53.4027 35.1399 53.4688 34.6602 53.4406C34.1847 53.4115 33.8246 53.3095 33.58 53.1348C33.3405 52.9634 33.1924 52.7419 33.1357 52.4703C33.0657 52.1351 33.1666 51.8019 33.4384 51.4706C33.7111 51.1435 34.2615 50.8426 35.0898 50.5677L35.2315 50.7374C34.9196 50.8557 34.6952 51.011 34.5583 51.2035C34.4265 51.3993 34.3814 51.5969 34.4231 51.7963C34.4993 52.1612 34.711 52.4225 35.0584 52.5803C35.41 52.7371 35.9592 52.7376 36.7059 52.5816C37.1303 52.493 37.4643 52.3856 37.7081 52.2594C37.957 52.1366 38.1271 51.997 38.2184 51.8406C38.3098 51.6843 38.3359 51.5127 38.2969 51.326C38.2659 51.1775 38.1816 51.0601 38.044 50.9737C37.9064 50.8873 37.684 50.8297 37.3769 50.8008C37.0706 50.7762 36.6486 50.7802 36.1107 50.8128C35.4548 50.8524 34.9493 50.8495 34.5944 50.804C34.2404 50.7628 33.9864 50.6808 33.8323 50.558C33.6834 50.4386 33.5881 50.2791 33.5464 50.0797C33.5092 49.9015 33.523 49.7237 33.5878 49.5463C33.6569 49.368 33.7982 49.1968 34.0119 49.0326C34.2299 48.8675 34.5449 48.722 34.957 48.5961L35.1183 48.6687C34.9983 48.7514 34.9169 48.8281 34.8741 48.8991C34.8314 48.97 34.8171 49.0394 34.8312 49.1073C34.8437 49.1667 34.8904 49.2211 34.9716 49.2706C35.0519 49.3158 35.2307 49.3449 35.508 49.3579C35.7886 49.3657 36.2326 49.3504 36.8401 49.3121ZM35.9628 44.3476L36.0874 43.8632C36.1956 43.3845 36.3718 43.009 36.616 42.7365C36.8645 42.4632 37.1521 42.2925 37.4788 42.2242C37.7461 42.1684 37.9802 42.197 38.1809 42.3101C38.3816 42.4232 38.5099 42.6134 38.5657 42.8807C38.6145 43.114 38.5966 43.3148 38.5122 43.483C38.4269 43.647 38.2866 43.7493 38.0914 43.7901C37.9557 43.8184 37.8434 43.8109 37.7546 43.7674C37.6649 43.7197 37.5841 43.6613 37.5121 43.5922C37.4392 43.5189 37.3605 43.4601 37.276 43.4157C37.1957 43.3705 37.094 43.3607 36.9709 43.3864C36.8352 43.4148 36.7274 43.4926 36.6477 43.62C36.5672 43.7431 36.4812 43.978 36.3898 44.3248L35.9628 44.3476ZM38.196 45.5949C38.2988 46.0871 38.2598 46.5469 38.0789 46.9744C37.9014 47.3967 37.6031 47.7601 37.1841 48.0646C36.765 48.3691 36.2436 48.5865 35.6198 48.7168C35.0215 48.8417 34.4831 48.8501 34.0044 48.7419C33.5257 48.6338 33.1316 48.4327 32.8222 48.1386C32.512 47.8403 32.3121 47.4769 32.2226 47.0483C32.1198 46.5561 32.1571 46.0988 32.3346 45.6765C32.5155 45.2491 32.8176 44.8826 33.2409 44.5772C33.6642 44.2719 34.1856 44.0545 34.8051 43.9251C35.4076 43.7993 35.9461 43.7909 36.4206 43.8999C36.8993 44.0081 37.2912 44.2096 37.5963 44.5046C37.9057 44.7986 38.1056 45.1621 38.196 45.5949ZM34.5999 44.5326C34.37 44.5983 34.1959 44.7188 34.0776 44.894C33.9592 45.0693 33.9008 45.2985 33.9023 45.5816C33.903 45.8604 33.9653 46.1906 34.0892 46.5721C34.2183 46.957 34.3711 47.2749 34.5475 47.5259C34.7272 47.7718 34.9247 47.9431 35.1397 48.0399C35.3539 48.1324 35.578 48.1454 35.8121 48.0788C36.1598 47.984 36.3773 47.7637 36.4645 47.4178C36.5559 47.071 36.5091 46.6136 36.324 46.0456C36.1321 45.4657 35.8845 45.0436 35.5813 44.7793C35.2824 44.514 34.9552 44.4318 34.5999 44.5326ZM42.3338 42.7846L43.3187 47.5008C43.3462 47.6323 43.3857 47.7259 43.4371 47.7816C43.4877 47.833 43.5539 47.8635 43.6356 47.873L43.8844 47.8875C43.9754 47.8995 44.0449 47.9248 44.0929 47.9635C44.1399 47.998 44.1701 48.047 44.1834 48.1107C44.2011 48.1955 44.1851 48.2675 44.1355 48.3266C44.0901 48.3848 44.0058 48.4267 43.8828 48.4524L41.3814 48.9748C41.2584 49.0005 41.1644 48.9958 41.0995 48.9606C41.0346 48.9255 40.9933 48.8655 40.9756 48.7806C40.9623 48.7169 40.9703 48.6599 40.9996 48.6095C41.028 48.5549 41.0799 48.5064 41.1552 48.4641L41.3888 48.3422C41.4599 48.3008 41.5083 48.2464 41.5341 48.1791C41.5599 48.1117 41.5586 48.0101 41.5302 47.8743L40.7699 44.2337C40.7469 44.1234 40.7135 44.0484 40.6698 44.0088C40.6261 43.9693 40.5669 43.9506 40.4921 43.953L40.1494 43.998C40.0695 43.9969 40.0086 43.9809 39.9667 43.9498C39.9248 43.9187 39.8976 43.8734 39.8852 43.814C39.8701 43.7419 39.8794 43.6802 39.9129 43.6289C39.9465 43.5776 40.014 43.5192 40.1155 43.4537L41.2089 42.7737C41.3611 42.6755 41.4834 42.6035 41.5756 42.5576C41.6722 42.5109 41.7565 42.48 41.8286 42.4649C41.9686 42.4357 42.0806 42.4522 42.1644 42.5144C42.2516 42.5714 42.3081 42.6615 42.3338 42.7846ZM41.0079 41.6201C40.6684 41.691 40.3766 41.6611 40.1323 41.5306C39.8923 41.3992 39.7422 41.1892 39.6819 40.9006C39.6226 40.6163 39.677 40.3681 39.8452 40.1558C40.0168 39.9384 40.2723 39.7943 40.6118 39.7234C40.9555 39.6516 41.2473 39.6814 41.4873 39.8129C41.7316 39.9434 41.8829 40.1487 41.9414 40.4288C42.0017 40.7173 41.946 40.9703 41.7744 41.1876C41.6071 41.4042 41.3516 41.5483 41.0079 41.6201ZM47.1376 41.7813L48.1226 46.4976C48.15 46.6291 48.1895 46.7227 48.241 46.7784C48.2916 46.8298 48.3577 46.8603 48.4394 46.8698L48.6832 46.8919C48.8305 46.9187 48.9161 46.9894 48.94 47.104C48.979 47.2907 48.8797 47.4089 48.6421 47.4585L46.1853 47.9716C46.0623 47.9973 45.9683 47.9925 45.9034 47.9574C45.8385 47.9222 45.7971 47.8622 45.7794 47.7773C45.7661 47.7137 45.7741 47.6567 45.8035 47.6063C45.8319 47.5516 45.8838 47.5031 45.9591 47.4608L46.1927 47.339C46.2637 47.2976 46.3122 47.2432 46.338 47.1758C46.3637 47.1084 46.3624 47.0068 46.3341 46.8711L45.5738 43.2305C45.5507 43.1201 45.5174 43.0452 45.4737 43.0056C45.43 42.966 45.3707 42.9474 45.296 42.9497L44.9533 42.9947C44.8734 42.9937 44.8125 42.9776 44.7705 42.9465C44.7286 42.9154 44.7015 42.8702 44.6891 42.8108C44.674 42.7386 44.6832 42.6769 44.7168 42.6256C44.7504 42.5743 44.8179 42.516 44.9194 42.4505L46.0128 41.7704C46.1616 41.6774 46.2822 41.6079 46.3745 41.5621C46.4701 41.5111 46.5604 41.4768 46.6452 41.459C46.781 41.4307 46.8908 41.4476 46.9746 41.5098C47.0576 41.5678 47.1119 41.6583 47.1376 41.7813ZM47.2367 43.2418L46.8815 43.0038L47.0896 42.7279C47.5214 42.1241 47.9159 41.6808 48.2731 41.398C48.6346 41.1144 48.9935 40.9354 49.3499 40.861C49.8973 40.7467 50.3732 40.831 50.7778 41.1141C51.1856 41.392 51.4507 41.8238 51.573 42.4093L52.2443 45.6235C52.2726 45.7593 52.3125 45.855 52.364 45.9107C52.4197 45.9655 52.491 45.9993 52.5778 46.0122L52.8139 46.0293C52.9041 46.037 52.971 46.0607 53.0147 46.1003C53.0617 46.1347 53.0919 46.1838 53.1052 46.2474C53.1229 46.3323 53.1091 46.4038 53.0637 46.462C53.0183 46.5202 52.9361 46.5617 52.8173 46.5865L50.3542 47.1009C50.1166 47.1505 49.9783 47.082 49.9393 46.8953C49.9154 46.7807 49.9634 46.6821 50.0834 46.5995L50.3107 46.479C50.386 46.4367 50.4339 46.3802 50.4546 46.3094C50.4795 46.2378 50.4778 46.1341 50.4494 45.9983L49.8326 43.0451C49.7547 42.6717 49.6054 42.4128 49.3848 42.2685C49.1676 42.119 48.9063 42.0762 48.6008 42.14C48.4098 42.1798 48.2155 42.2669 48.0177 42.4012C47.8241 42.5346 47.6353 42.7224 47.4512 42.9646L47.2367 43.2418ZM56.081 39.9136L57.066 44.6298C57.0935 44.7613 57.1329 44.8549 57.1844 44.9106C57.235 44.962 57.3012 44.9925 57.3829 45.002L57.6266 45.0242C57.7739 45.051 57.8595 45.1217 57.8834 45.2362C57.9224 45.4229 57.8231 45.5411 57.5855 45.5907L55.1287 46.1038C55.0057 46.1295 54.9117 46.1248 54.8468 46.0896C54.7819 46.0545 54.7406 45.9945 54.7228 45.9096C54.7095 45.8459 54.7176 45.7889 54.7469 45.7385C54.7753 45.6839 54.8272 45.6354 54.9025 45.5931L55.1361 45.4712C55.2072 45.4298 55.2556 45.3754 55.2814 45.3081C55.3072 45.2407 55.3059 45.1391 55.2775 45.0033L54.5172 41.3627C54.4942 41.2524 54.4608 41.1774 54.4171 41.1378C54.3734 41.0983 54.3142 41.0796 54.2394 41.082L53.8967 41.127C53.8168 41.1259 53.7559 41.1099 53.714 41.0788C53.672 41.0477 53.6449 41.0024 53.6325 40.943C53.6174 40.8709 53.6267 40.8092 53.6602 40.7579C53.6938 40.7066 53.7613 40.6482 53.8628 40.5827L54.9562 39.9027C55.1051 39.8096 55.2256 39.7402 55.3179 39.6943C55.4135 39.6433 55.5038 39.609 55.5886 39.5913C55.7244 39.5629 55.8342 39.5798 55.9181 39.642C56.001 39.7 56.0553 39.7905 56.081 39.9136ZM56.1802 41.3741L55.8249 41.1361L56.033 40.8602C56.4648 40.2563 56.8593 39.813 57.2165 39.5303C57.578 39.2467 57.9369 39.0676 58.2934 38.9932C58.8407 38.8789 59.3167 38.9633 59.7212 39.2463C60.1291 39.5243 60.3941 39.956 60.5164 40.5416L61.1877 43.7557C61.216 43.8915 61.2559 43.9873 61.3074 44.0429C61.3632 44.0977 61.4344 44.1315 61.5212 44.1444L61.7573 44.1615C61.8475 44.1693 61.9144 44.1929 61.9581 44.2325C62.0052 44.267 62.0353 44.316 62.0486 44.3797C62.0663 44.4645 62.0525 44.5361 62.0071 44.5942C61.9617 44.6524 61.8796 44.6939 61.7608 44.7188L59.2976 45.2332C59.06 45.2828 58.9217 45.2142 58.8827 45.0276C58.8588 44.913 58.9068 44.8144 59.0268 44.7318L59.2541 44.6112C59.3294 44.5689 59.3774 44.5124 59.398 44.4417C59.4229 44.3701 59.4212 44.2664 59.3928 44.1306L58.7761 41.1774C58.6981 40.804 58.5488 40.5451 58.3283 40.4007C58.1111 40.2513 57.8497 40.2084 57.5442 40.2722C57.3533 40.3121 57.1589 40.3992 56.9611 40.5335C56.7675 40.6669 56.5787 40.8547 56.3946 41.0968L56.1802 41.3741ZM68.778 39.321C68.8258 39.5501 68.7969 39.74 68.691 39.8905C68.5885 40.0359 68.4142 40.1343 68.1681 40.1857L64.1966 41.0151L64.0955 40.5314L66.7051 39.9864C66.9215 39.9412 67.0088 39.8189 66.9672 39.6195C66.8511 39.0636 66.659 38.6631 66.3908 38.418C66.126 38.1678 65.8239 38.0781 65.4844 38.149C65.2171 38.2048 64.9984 38.3346 64.8284 38.5384C64.6627 38.7413 64.5519 39.0058 64.496 39.3319C64.4434 39.6528 64.4615 40.0254 64.5501 40.4497C64.7211 41.2687 65.0427 41.8436 65.5147 42.1746C65.9868 42.5055 66.5411 42.6045 67.1776 42.4716C67.551 42.3936 67.8643 42.2507 68.1176 42.0428C68.3709 41.8349 68.5472 41.5767 68.6466 41.2681C68.7053 41.1673 68.7527 41.0976 68.7889 41.059C68.8294 41.0196 68.873 40.995 68.9196 40.9852C68.9875 40.971 69.043 40.9927 69.086 41.0501C69.1281 41.1033 69.158 41.1724 69.1757 41.2572C69.2341 41.6214 69.1759 41.979 69.0012 42.3299C68.8265 42.6808 68.5566 42.9895 68.1916 43.2562C67.8267 43.5228 67.3811 43.7111 66.8549 43.8209C66.2439 43.9485 65.6747 43.9368 65.1471 43.7857C64.6187 43.6304 64.1713 43.354 63.805 42.9567C63.4419 42.5543 63.1966 42.0476 63.069 41.4366C62.9343 40.7916 62.9429 40.1964 63.0947 39.6511C63.2498 39.1006 63.5379 38.6352 63.9589 38.255C64.379 37.8706 64.9221 37.6088 65.5883 37.4697C66.1527 37.3519 66.656 37.3552 67.0982 37.4799C67.5439 37.5993 67.9109 37.8194 68.1992 38.14C68.4867 38.4564 68.6796 38.85 68.778 39.321ZM72.8409 38.8843C72.7124 38.2691 72.6918 37.7354 72.7789 37.2832C72.8694 36.8259 73.0351 36.4636 73.2759 36.1963C73.5159 35.9248 73.7971 35.7554 74.1196 35.688C74.527 35.603 74.8653 35.6541 75.1347 35.8414C75.4032 36.0244 75.5822 36.3302 75.6717 36.7588C75.7514 37.1407 75.7323 37.4413 75.6143 37.6608C75.4963 37.8803 75.3121 38.0162 75.0618 38.0685C74.8072 38.1217 74.5978 38.0945 74.4337 37.9871C74.2738 37.8788 74.1686 37.7037 74.1181 37.4618L74.0689 37.2264C74.0414 37.0948 73.9914 37.0034 73.9187 36.9522C73.8451 36.8967 73.7404 36.8831 73.6046 36.9115C73.4561 36.9425 73.3247 37.0342 73.2104 37.1865C73.1003 37.3379 73.0268 37.548 72.99 37.817C72.9574 38.0851 72.9819 38.4143 73.0634 38.8047L72.8409 38.8843ZM72.4751 36.4964L72.8773 37.9136L73.5605 41.1851C73.5854 41.3039 73.6273 41.3881 73.6864 41.4378C73.7446 41.4832 73.8417 41.5028 73.9776 41.4965L74.5372 41.4726C74.6426 41.4683 74.7235 41.4846 74.7799 41.5216C74.8397 41.5534 74.8785 41.6117 74.8962 41.6966C74.9139 41.7814 74.8958 41.8538 74.8419 41.9138C74.7923 41.9729 74.7102 42.0144 74.5956 42.0383L71.6233 42.6591C71.5002 42.6848 71.4062 42.68 71.3413 42.6449C71.2764 42.6097 71.2351 42.5497 71.2174 42.4648C71.2041 42.4012 71.2121 42.3442 71.2414 42.2938C71.2699 42.2391 71.3213 42.1885 71.3957 42.142L71.6307 42.0265C71.7017 41.9851 71.7501 41.9307 71.7759 41.8633C71.8017 41.7959 71.8009 41.6965 71.7734 41.5649L71.0144 37.9307C70.9923 37.8246 70.9593 37.7518 70.9156 37.7122C70.8711 37.6684 70.8114 37.6476 70.7366 37.6499L70.3939 37.6949C70.314 37.6939 70.2531 37.6779 70.2112 37.6468C70.1693 37.6157 70.1421 37.5704 70.1297 37.511C70.1146 37.4389 70.1239 37.3772 70.1574 37.3259C70.1901 37.2703 70.2576 37.2119 70.36 37.1507L71.4306 36.4887C71.6217 36.3647 71.7634 36.2797 71.8557 36.2339C71.9479 36.1881 72.0217 36.1594 72.0768 36.1479C72.1702 36.1284 72.2468 36.1456 72.3068 36.1995C72.371 36.2525 72.4271 36.3515 72.4751 36.4964ZM79.4535 35.1786C79.1565 35.2406 78.9407 35.3631 78.8062 35.5462C78.6751 35.7241 78.6331 35.9256 78.68 36.1504C78.7093 36.2905 78.7677 36.4111 78.8553 36.5124C78.9419 36.6094 79.082 36.6864 79.2755 36.7435C79.4689 36.8005 79.7417 36.8343 80.0937 36.8449C80.7747 36.84 81.315 36.9043 81.7149 37.0377C82.1138 37.167 82.4112 37.3506 82.6071 37.5887C82.8021 37.8225 82.9337 38.1028 83.0019 38.4295C83.1251 39.0193 83.0155 39.5337 82.6732 39.9728C82.3301 40.4075 81.7618 40.7078 80.9683 40.8735C80.684 40.9329 80.4474 40.9557 80.2586 40.942C80.0706 40.9325 79.9145 40.9164 79.7902 40.8937C79.665 40.8667 79.5578 40.8625 79.4687 40.8811C79.3796 40.8997 79.3128 40.9402 79.2683 41.0027C79.2229 41.0609 79.1774 41.1191 79.132 41.1773C79.0917 41.2388 79.0292 41.2785 78.9443 41.2962C78.8722 41.3112 78.8121 41.2994 78.7642 41.2607C78.7172 41.2263 78.663 41.1579 78.6018 41.0555L77.9159 39.8703C77.8373 39.7273 77.7967 39.6074 77.7942 39.5105C77.7959 39.4127 77.8416 39.3345 77.9312 39.2759C78.0175 39.2225 78.1007 39.2073 78.1808 39.2305C78.2643 39.2485 78.3459 39.3 78.4257 39.3852C78.69 39.6754 78.949 39.8981 79.2028 40.0532C79.46 40.2032 79.7167 40.2979 79.9729 40.3374C80.2334 40.376 80.4909 40.3687 80.7455 40.3156C81.1062 40.2402 81.3622 40.1093 81.5137 39.9227C81.6651 39.736 81.7147 39.5176 81.6624 39.2672C81.6323 39.123 81.5666 38.9994 81.4654 38.8965C81.3633 38.7894 81.1982 38.7088 80.9699 38.6546C80.7407 38.5962 80.4174 38.5641 79.9999 38.5583C79.4268 38.5496 78.9574 38.486 78.5917 38.3675C78.2303 38.2481 77.9516 38.0694 77.7557 37.8313C77.5599 37.5933 77.4248 37.296 77.3503 36.9396C77.2741 36.5747 77.3006 36.2348 77.4297 35.92C77.5621 35.6001 77.7821 35.3283 78.0897 35.1047C78.3963 34.8768 78.7724 34.7163 79.218 34.6233C79.5065 34.563 79.7431 34.5402 79.9277 34.5548C80.1165 34.5685 80.2718 34.5914 80.3937 34.6235C80.5189 34.6505 80.6282 34.6543 80.7215 34.6348C80.8233 34.6135 80.8986 34.5712 80.9474 34.5079C80.9962 34.4445 81.0428 34.3817 81.0874 34.3192C81.131 34.2525 81.1931 34.2108 81.2738 34.194C81.3374 34.1807 81.3953 34.1929 81.4475 34.2307C81.5039 34.2677 81.5543 34.3391 81.5985 34.445L82.1579 35.5968C82.2237 35.7425 82.2579 35.8638 82.2605 35.9607C82.2621 36.0533 82.2202 36.1285 82.1348 36.1862C82.0486 36.2396 81.965 36.2526 81.884 36.2253C81.8021 36.1937 81.7105 36.1264 81.6094 36.0236C81.2515 35.6245 80.8875 35.3662 80.5176 35.2486C80.1476 35.131 79.7929 35.1077 79.4535 35.1786Z" fill="#032412"/>
<path d="M25.4038 68.9705L24.7801 69.1007C24.6485 69.1282 24.5273 69.1203 24.4165 69.077C24.3098 69.0329 24.213 68.9402 24.1259 68.799L21.5249 64.4866C21.4412 64.3403 21.3685 64.247 21.307 64.2067C21.2497 64.1655 21.1853 64.1435 21.1139 64.1407L20.8982 64.126C20.8123 64.1174 20.7479 64.0954 20.7051 64.06C20.6623 64.0247 20.6338 63.9731 20.6196 63.9052C20.6019 63.8203 20.6179 63.7483 20.6675 63.6893C20.7214 63.6293 20.8014 63.5882 20.9075 63.5661L23.6252 62.9985C23.7313 62.9764 23.8189 62.9824 23.8881 63.0167C23.9572 63.0509 24.0002 63.1084 24.0171 63.189C24.0313 63.2569 24.0241 63.3182 23.9957 63.3728C23.9664 63.4232 23.9051 63.4692 23.812 63.5108L23.5858 63.6046C23.4477 63.6644 23.3752 63.7415 23.3684 63.8359C23.3615 63.9304 23.4306 64.1019 23.5755 64.3506L25.6319 67.8999L25.2847 68.3046L25.9125 63.5504L26.5537 63.8217L25.8855 68.478C25.8605 68.6338 25.8028 68.7499 25.7125 68.8263C25.6213 68.8985 25.5184 68.9465 25.4038 68.9705ZM29.4645 68.1224L28.8599 68.2487C28.7368 68.2744 28.6177 68.2661 28.5026 68.2237C28.3908 68.1762 28.2944 68.0856 28.2134 67.952L25.6362 63.5948C25.5552 63.4612 25.4864 63.3759 25.43 63.339C25.3778 63.3012 25.316 63.2809 25.2446 63.2781L25.0226 63.2646C24.9366 63.256 24.8723 63.234 24.8295 63.1987C24.7867 63.1634 24.7577 63.1096 24.7427 63.0375C24.7063 62.8635 24.8027 62.7526 25.0319 62.7048L27.6477 62.1584C27.8726 62.1115 28.0037 62.1771 28.0409 62.3553C28.0551 62.4232 28.048 62.4845 28.0195 62.5391C27.9902 62.5895 27.9344 62.63 27.8522 62.6604L27.5687 62.7661C27.462 62.8061 27.4086 62.8793 27.4087 62.9855C27.4121 63.0867 27.4768 63.2481 27.6028 63.4697L29.6558 67.0662L29.3366 67.4783L29.7846 63.1668C29.8211 62.8537 29.815 62.6446 29.7665 62.5396C29.7214 62.4295 29.6151 62.3764 29.4477 62.3804L29.2029 62.385C29.1051 62.3833 29.0305 62.3656 28.9793 62.332C28.9322 62.2976 28.9011 62.2443 28.8861 62.1722C28.8692 62.0915 28.8857 62.0217 28.9353 61.9626C28.9892 61.9026 29.0671 61.862 29.1689 61.8408L30.7856 61.5031C30.8916 61.481 30.9792 61.487 31.0484 61.5213C31.1218 61.5547 31.1674 61.6138 31.1851 61.6987C31.1975 61.7581 31.1916 61.8147 31.1674 61.8684C31.1423 61.918 31.0836 61.9656 30.9913 62.0115L30.8033 62.0972C30.7314 62.1344 30.6742 62.2105 30.6319 62.3257C30.5895 62.4408 30.5516 62.6303 30.5181 62.8941L29.9385 67.6249C29.9186 67.7841 29.8635 67.9018 29.7732 67.9783C29.682 68.0505 29.5791 68.0985 29.4645 68.1224ZM38.6172 62.2256C38.6651 62.4547 38.6361 62.6445 38.5302 62.7951C38.4278 62.9405 38.2535 63.0388 38.0074 63.0902L34.0358 63.9197L33.9348 63.436L36.5443 62.891C36.7607 62.8458 36.8481 62.7235 36.8064 62.524C36.6903 61.9682 36.4982 61.5677 36.23 61.3226C35.9652 61.0724 35.6631 60.9827 35.3236 61.0536C35.0563 61.1094 34.8377 61.2392 34.6677 61.443C34.5019 61.6459 34.3911 61.9103 34.3352 62.2364C34.2827 62.5574 34.3007 62.93 34.3893 63.3543C34.5603 64.1732 34.8819 64.7482 35.354 65.0791C35.8261 65.4101 36.3803 65.5091 37.0168 65.3762C37.3902 65.2982 37.7035 65.1552 37.9568 64.9474C38.2101 64.7395 38.3864 64.4812 38.4858 64.1727C38.5445 64.0718 38.5919 64.0022 38.6281 63.9636C38.6686 63.9241 38.7122 63.8995 38.7589 63.8898C38.8268 63.8756 38.8822 63.8972 38.9252 63.9547C38.9673 64.0079 38.9972 64.0769 39.0149 64.1618C39.0733 64.526 39.0151 64.8836 38.8404 65.2344C38.6657 65.5853 38.3959 65.8941 38.0309 66.1607C37.6659 66.4274 37.2203 66.6156 36.6942 66.7255C36.0831 66.8531 35.5139 66.8414 34.9864 66.6903C34.458 66.5349 34.0106 66.2586 33.6442 65.8613C33.2812 65.4589 33.0359 64.9521 32.9083 64.3411C32.7736 63.6962 32.7821 63.101 32.9339 62.5556C33.0891 62.0051 33.3771 61.5398 33.7981 61.1596C34.2182 60.7752 34.7614 60.5134 35.4275 60.3743C35.9919 60.2564 36.4952 60.2598 36.9375 60.3844C37.3831 60.5039 37.7501 60.724 38.0385 61.0446C38.3259 61.3609 38.5189 61.7546 38.6172 62.2256ZM41.7223 56.0574L43.3998 64.0896C43.4272 64.2212 43.4667 64.3148 43.5182 64.3704C43.5688 64.4219 43.6349 64.4523 43.7166 64.4618L43.9654 64.4763C44.0565 64.4883 44.126 64.5136 44.1739 64.5523C44.221 64.5868 44.2511 64.6358 44.2644 64.6995C44.2822 64.7843 44.2662 64.8563 44.2165 64.9154C44.1711 64.9736 44.089 65.0151 43.9702 65.0399L41.4625 65.5636C41.3437 65.5884 41.2497 65.5837 41.1806 65.5494C41.1157 65.5143 41.0743 65.4543 41.0566 65.3694C41.0433 65.3058 41.0513 65.2487 41.0807 65.1983C41.1091 65.1437 41.1605 65.0931 41.235 65.0465L41.4699 64.9311C41.541 64.8897 41.5894 64.8353 41.6152 64.7679C41.6409 64.7005 41.6396 64.5989 41.6113 64.4631L40.1585 57.5065C40.1354 57.3962 40.1021 57.3212 40.0584 57.2816C40.0147 57.2421 39.9554 57.2234 39.8806 57.2258L39.538 57.2708C39.4581 57.2697 39.3971 57.2537 39.3552 57.2226C39.3133 57.1915 39.2861 57.1462 39.2737 57.0868C39.2587 57.0147 39.2679 56.953 39.3015 56.9017C39.3351 56.8504 39.4026 56.792 39.504 56.7265L40.5975 56.0465C40.7539 55.9474 40.8783 55.8749 40.9706 55.8291C41.0628 55.7833 41.145 55.7528 41.2172 55.7377C41.3572 55.7085 41.4691 55.725 41.553 55.7872C41.6402 55.8442 41.6966 55.9343 41.7223 56.0574ZM50.752 59.0072C50.8025 59.249 50.7602 59.4704 50.625 59.6714C50.4898 59.8723 50.2822 60.002 50.0022 60.0605C49.7306 60.1172 49.5068 60.0842 49.3306 59.9616C49.1544 59.839 49.0411 59.6568 48.9906 59.4149L48.9494 59.2176C48.8882 58.9248 48.7504 58.7101 48.5358 58.5733C48.3246 58.4314 48.0663 58.3924 47.7608 58.4562C47.4935 58.512 47.2706 58.6427 47.0921 58.8482C46.9136 59.0538 46.7943 59.32 46.7342 59.647C46.6731 59.9697 46.6865 60.3411 46.7742 60.7612C46.8859 61.2958 47.0715 61.7287 47.331 62.0597C47.5897 62.3865 47.8955 62.6105 48.2485 62.7316C48.6057 62.8519 48.988 62.8694 49.3953 62.7844C49.756 62.709 50.0571 62.5709 50.2985 62.3699C50.539 62.1647 50.7078 61.9125 50.8047 61.6132C50.8634 61.5124 50.9108 61.4427 50.947 61.4042C50.9875 61.3647 51.0332 61.3397 51.0841 61.3291C51.152 61.3149 51.2074 61.3365 51.2504 61.394C51.2925 61.4472 51.3199 61.5145 51.3325 61.596C51.3908 61.9602 51.3348 62.3173 51.1643 62.6673C50.9939 63.0173 50.7304 63.3248 50.3739 63.5896C50.0207 63.8494 49.5874 64.0329 49.074 64.1401C48.463 64.2677 47.8937 64.2559 47.3662 64.1048C46.8421 63.9486 46.3968 63.6718 46.0304 63.2745C45.6674 62.8721 45.4221 62.3654 45.2945 61.7544C45.1642 61.1306 45.1809 60.5426 45.3446 59.9904C45.5082 59.4381 45.8039 58.9667 46.2316 58.5763C46.6626 58.1807 47.207 57.9142 47.8647 57.7769C48.3866 57.6679 48.8511 57.655 49.2582 57.7383C49.6695 57.8207 50.0049 57.9742 50.2644 58.199C50.523 58.4196 50.6855 58.689 50.752 59.0072ZM55.4135 56.207C56.0669 56.0706 56.6698 56.0842 57.2221 56.2478C57.7743 56.4114 58.2384 56.7042 58.6144 57.1261C58.9937 57.5428 59.2489 58.0652 59.38 58.6932C59.505 59.2915 59.4754 59.86 59.2912 60.3989C59.1062 60.9335 58.79 61.3914 58.3427 61.7727C57.8953 62.1539 57.3386 62.4141 56.6724 62.5532C56.019 62.6897 55.4157 62.674 54.8625 62.5061C54.3093 62.3382 53.8431 62.0459 53.4638 61.6292C53.0836 61.2082 52.8284 60.6858 52.6981 60.0621C52.5714 59.4553 52.6006 58.8846 52.7856 58.35C52.9749 57.8145 53.2937 57.3583 53.7419 56.9812C54.1901 56.6042 54.7473 56.3462 55.4135 56.207ZM57.0484 61.7773C57.3272 61.6703 57.5305 61.4884 57.6584 61.2314C57.7905 60.9735 57.8392 60.6446 57.8043 60.2444C57.7695 59.8443 57.644 59.3812 57.4278 58.8551C57.2159 58.3281 56.9798 57.908 56.7196 57.5949C56.4584 57.2774 56.1842 57.0668 55.8968 56.963C55.6094 56.8591 55.3226 56.8637 55.0362 56.9766C54.7574 57.0836 54.5524 57.2681 54.4211 57.5302C54.2932 57.7872 54.2467 58.1157 54.2816 58.5158C54.3155 58.9117 54.4389 59.3753 54.6517 59.9065C54.8618 60.425 55.0975 60.8429 55.3586 61.1604C55.624 61.4769 55.8982 61.6876 56.1814 61.7923C56.4679 61.8919 56.7569 61.8869 57.0484 61.7773ZM63.0295 55.0682L64.0145 59.7844C64.042 59.916 64.0814 60.0096 64.1329 60.0652C64.1835 60.1167 64.2497 60.1471 64.3314 60.1566L64.5751 60.1788C64.7224 60.2056 64.808 60.2763 64.8319 60.3909C64.8709 60.5776 64.7716 60.6957 64.534 60.7453L62.0772 61.2584C61.9542 61.2841 61.8602 61.2794 61.7953 61.2442C61.7304 61.2091 61.6891 61.1491 61.6713 61.0642C61.658 61.0006 61.6661 60.9435 61.6954 60.8931C61.7238 60.8385 61.7757 60.79 61.851 60.7477L62.0846 60.6259C62.1557 60.5844 62.2041 60.5301 62.2299 60.4627C62.2557 60.3953 62.2544 60.2937 62.226 60.1579L61.4657 56.5173C61.4427 56.407 61.4093 56.332 61.3656 56.2925C61.3219 56.2529 61.2627 56.2342 61.1879 56.2366L60.8452 56.2816C60.7653 56.2805 60.7044 56.2645 60.6625 56.2334C60.6205 56.2023 60.5934 56.157 60.581 56.0976C60.5659 56.0255 60.5752 55.9638 60.6087 55.9125C60.6423 55.8612 60.7098 55.8028 60.8113 55.7373L61.9047 55.0573C62.0536 54.9642 62.1741 54.8948 62.2664 54.8489C62.362 54.798 62.4523 54.7636 62.5371 54.7459C62.6729 54.7175 62.7827 54.7345 62.8666 54.7967C62.9495 54.8546 63.0038 54.9451 63.0295 55.0682ZM63.1287 56.5287L62.7734 56.2907L62.9751 56.0161C63.4112 55.4114 63.8057 54.9681 64.1587 54.6862C64.5116 54.4044 64.8663 54.2263 65.2228 54.1518C65.7701 54.0375 66.2439 54.1223 66.6442 54.4063C67.0436 54.686 67.3044 55.1186 67.4267 55.7042L68.098 58.9183C68.1263 59.0541 68.1663 59.1498 68.2177 59.2055C68.2735 59.2603 68.3447 59.2941 68.4316 59.307L68.6612 59.3254C68.8043 59.3531 68.8878 59.4243 68.9117 59.5388C68.9507 59.7255 68.8535 59.8432 68.6202 59.892L66.2079 60.3958C65.9703 60.4454 65.832 60.3768 65.793 60.1901C65.7691 60.0756 65.8171 59.977 65.9372 59.8944L66.1644 59.7738C66.2397 59.7315 66.2898 59.6746 66.3147 59.603C66.3396 59.5313 66.3379 59.4276 66.3095 59.2918L65.6927 56.3386C65.6148 55.9652 65.4676 55.7059 65.2513 55.5607C65.0383 55.4103 64.7791 55.367 64.4736 55.4308C64.2827 55.4707 64.0925 55.5569 63.9032 55.6894C63.7139 55.822 63.5251 56.0097 63.3367 56.2528L63.1287 56.5287ZM67.2148 55.6754L66.8596 55.4374L67.0613 55.1627C67.4973 54.558 67.8919 54.1147 68.2448 53.8329C68.5978 53.551 68.9504 53.3733 69.3025 53.2998C69.8499 53.1855 70.3237 53.2703 70.724 53.5542C71.1276 53.8331 71.3906 54.2652 71.5129 54.8508L72.1841 58.065C72.2125 58.2008 72.2524 58.2965 72.3039 58.3522C72.3596 58.4069 72.4309 58.4408 72.5177 58.4536L72.7538 58.4708C72.8397 58.4794 72.9066 58.503 72.9546 58.5417C73.0016 58.5762 73.0318 58.6253 73.0451 58.6889C73.0628 58.7738 73.049 58.8453 73.0035 58.9035C72.9581 58.9617 72.876 59.0032 72.7572 59.028L70.2941 59.5424C70.0565 59.592 69.9182 59.5235 69.8792 59.3368C69.8552 59.2222 69.9033 59.1236 70.0233 59.041L70.2505 58.9205C70.3258 58.8782 70.3738 58.8217 70.3945 58.7509C70.4194 58.6793 70.4176 58.5756 70.3893 58.4398L69.7725 55.4866C69.6945 55.1132 69.5495 54.8534 69.3374 54.7073C69.1245 54.5569 68.8653 54.5137 68.5597 54.5775C68.3688 54.6173 68.1787 54.7035 67.9894 54.8361C67.8001 54.9686 67.6112 55.1564 67.4229 55.3994L67.2148 55.6754ZM79.779 53.6293C79.8269 53.8584 79.7979 54.0483 79.692 54.1988C79.5896 54.3442 79.4153 54.4426 79.1692 54.494L75.1976 55.3234L75.0966 54.8397L77.7061 54.2947C77.9225 54.2495 78.0099 54.1272 77.9682 53.9278C77.8521 53.3719 77.66 52.9714 77.3918 52.7263C77.127 52.4761 76.8249 52.3864 76.4854 52.4573C76.2181 52.5131 75.9995 52.6429 75.8295 52.8467C75.6637 53.0496 75.5529 53.3141 75.497 53.6401C75.4445 53.9611 75.4625 54.3337 75.5511 54.758C75.7221 55.577 76.0437 56.1519 76.5158 56.4828C76.9879 56.8138 77.5421 56.9128 78.1786 56.7799C78.552 56.7019 78.8653 56.559 79.1186 56.3511C79.3719 56.1432 79.5482 55.885 79.6476 55.5764C79.7063 55.4756 79.7537 55.4059 79.79 55.3673C79.8304 55.3279 79.874 55.3033 79.9207 55.2935C79.9886 55.2793 80.044 55.301 80.087 55.3584C80.1291 55.4116 80.159 55.4806 80.1767 55.5655C80.2351 55.9297 80.1769 56.2873 80.0022 56.6382C79.8275 56.989 79.5577 57.2978 79.1927 57.5644C78.8277 57.8311 78.3821 58.0193 77.856 58.1292C77.2449 58.2568 76.6757 58.2451 76.1482 58.094C75.6198 57.9386 75.1724 57.6623 74.806 57.265C74.443 56.8626 74.1977 56.3559 74.0701 55.7449C73.9354 55.0999 73.9439 54.5047 74.0957 53.9594C74.2509 53.4089 74.5389 52.9435 74.9599 52.5633C75.38 52.1789 75.9232 51.9171 76.5893 51.778C77.1537 51.6601 77.657 51.6635 78.0993 51.7881C78.5449 51.9076 78.9119 52.1277 79.2003 52.4483C79.4877 52.7646 79.6807 53.1583 79.779 53.6293ZM81.838 47.2544C82.2199 47.1747 82.519 47.2074 82.7353 47.3527C82.9516 47.4979 83.0908 47.719 83.1528 48.0161C83.1741 48.1179 83.1882 48.2279 83.1951 48.346C83.2063 48.4632 83.2108 48.5907 83.2086 48.7284L83.4829 53.2543C83.4808 53.4142 83.4577 53.5364 83.4133 53.6209C83.3732 53.7045 83.3023 53.757 83.2004 53.7783C83.0943 53.8004 83.0041 53.7816 82.9296 53.7219C82.8594 53.6613 82.7913 53.5582 82.7255 53.4125L81.1642 49.1487C81.1079 49.0276 81.0593 48.9116 81.0184 48.8006C80.9817 48.6887 80.9528 48.5818 80.9315 48.48C80.8695 48.1829 80.9085 47.9246 81.0486 47.7049C81.193 47.4844 81.4561 47.3342 81.838 47.2544ZM83.8374 56.8601C83.6295 56.9035 83.4296 56.8899 83.2377 56.8193C83.0458 56.7487 82.8808 56.637 82.7426 56.4843C82.6036 56.3274 82.5123 56.1449 82.4689 55.937C82.4246 55.7249 82.4357 55.5233 82.502 55.3323C82.5675 55.1371 82.6745 54.9708 82.823 54.8335C82.9706 54.692 83.1483 54.5995 83.3562 54.5561C83.5726 54.5109 83.7768 54.5236 83.9686 54.5943C84.1596 54.6606 84.3221 54.7706 84.456 54.9242C84.5933 55.0727 84.6841 55.253 84.7284 55.4651C84.7718 55.6731 84.7612 55.8768 84.6966 56.0762C84.6353 56.2706 84.5309 56.4385 84.3834 56.5801C84.2358 56.7216 84.0538 56.8149 83.8374 56.8601Z" fill="#032412"/>
</svg>
