<svg width="1336" height="95" viewBox="0 0 1336 95" fill="none" xmlns="http://www.w3.org/2000/svg">
<path fill-rule="evenodd" clip-rule="evenodd" d="M8.90778 9.18495V13.3599H10.855C12.712 13.3599 12.8022 13.4535 12.8022 15.3072C12.8022 17.2043 12.8623 17.2577 14.9966 17.2577C17.181 17.2577 17.1943 17.2677 17.3647 19.6224C17.5283 21.9204 17.5951 21.9938 19.6225 22.1608C21.5964 22.3245 21.71 22.4381 21.71 24.2483C21.71 26.102 21.7801 26.1622 23.871 26.1622C26.1422 26.1622 26.6933 26.8936 26.7133 29.9197C26.72 31.1087 26.9371 31.1722 30.895 31.1722C34.6391 31.1722 35.07 31.2824 35.07 32.241C35.07 34.7794 35.5576 35.0699 39.8262 35.0699H43.9076L44.0813 36.8802L44.255 38.6872L50.4874 38.8441L56.7165 39.0011L56.8869 41.3491L57.0572 43.6972L63.7372 43.9777L70.4172 44.2549L70.5942 46.0652L70.7679 47.8722H215.433C313.573 47.8722 360.212 47.6885 360.449 47.3044C360.643 46.9904 360.64 45.9884 360.439 45.0766L360.075 43.4199H228.466H96.86V41.7499V40.0799H231.018H365.172V37.5749V35.0699H241.906H118.64L118.466 33.2597L118.293 31.4527L111.786 31.2957L105.277 31.1388L105.106 29.3452C104.936 27.5883 104.876 27.5516 101.87 27.4113C96.7598 27.1708 96.3022 26.9571 96.3022 24.7961C96.3022 22.9958 96.1887 22.8823 94.2147 22.7186C92.1907 22.5516 92.1239 22.4748 91.9569 20.1802C91.7865 17.8255 91.7765 17.8122 89.5922 17.8122C87.4612 17.8122 87.3978 17.7554 87.3978 15.9017C87.3978 14.1515 87.2441 13.9712 85.5908 13.8142C84.2882 13.6873 83.7405 13.3299 83.6236 12.5249C83.1293 9.21501 82.9355 8.90773 81.329 8.90773C79.7525 8.90773 79.7291 8.95449 79.3484 13.0092L78.9643 17.1108L76.0819 17.4581C74.4987 17.6485 71.7933 17.8055 70.0699 17.8088C66.623 17.8122 65.8848 18.3198 65.5976 20.8749C65.4239 22.408 65.2135 22.5583 63.0425 22.7153C60.8348 22.8756 60.6778 22.9958 60.6778 24.5256V26.1622H56.78H52.8822V24.4922V22.8222H43.9778H35.07V20.9417C35.07 18.2697 34.1148 17.732 29.6926 17.9257L25.885 18.0927L25.6078 20.0399C25.1736 23.0727 21.71 23.3532 21.71 20.3539C21.71 18.4568 21.7968 18.3699 23.6572 18.3699C25.561 18.3699 25.6078 18.3165 25.6078 16.1422V13.9177H23.38C21.2758 13.9177 21.1522 14.0079 21.1522 15.5877C21.1522 17.0707 20.9685 17.2577 19.4822 17.2577C17.9993 17.2577 17.8122 17.0707 17.8122 15.5877C17.8122 14.6692 17.5784 13.9177 17.2878 13.9177C17.0006 13.9177 16.6866 12.8523 16.5931 11.5497C16.4295 9.31187 16.3159 9.16825 14.4722 8.90773C12.7521 8.66057 12.505 8.41675 12.3513 6.82023C12.1977 5.22705 11.9772 5.00995 10.541 5.00995H8.90778V9.18495ZM665.218 6.92377C665.218 8.73405 665.104 8.84761 663.13 9.01127C661.15 9.17493 661.026 9.29851 660.762 11.4127C660.498 13.5236 660.378 13.6472 658.398 13.8108C656.43 13.9745 656.31 14.0914 656.31 15.875V17.7654L651.995 17.9291L647.683 18.0927L647.402 20.3172L647.125 22.5449L643.12 22.7086L639.119 22.8723L638.945 24.933L638.775 26.9972L634.46 27.1608L630.148 27.3245V29.2483V31.1722H634.563H638.982L639.156 32.9824L639.333 34.7927L643.367 34.9564L647.402 35.12V37.0439V38.9677L651.16 38.9744C655.675 38.9844 656.166 39.2449 656.404 41.7533C656.574 43.5602 656.737 43.7105 658.675 43.8708C660.632 44.0345 660.762 44.1581 660.762 45.8882C660.762 47.6083 660.913 47.7553 662.99 48.0859C665.094 48.4233 665.218 48.5502 665.218 50.3838C665.218 52.2342 665.311 52.3277 667.165 52.3277C668.929 52.3277 669.112 52.1774 669.112 50.7679C669.112 48.7907 670.031 47.8722 672.008 47.8722C673.414 47.8722 673.568 47.6851 673.568 45.9583C673.568 44.1481 673.681 44.0345 675.655 43.8708C677.512 43.7172 677.763 43.5168 677.93 42.0272C678.227 39.4086 678.932 38.9677 682.82 38.9677H686.37V37.0172V35.0699H690.822H695.278V33.1227V31.1722H699.73H704.182V29.2249V27.2777L700.983 27.2677C696.049 27.2577 695.278 26.9137 695.278 24.7293V22.8689L690.963 22.7086L686.647 22.5449L686.477 20.2036L686.31 17.8623L682.302 17.6986L678.297 17.5349L678.127 15.7581C677.97 14.1482 677.759 13.9645 675.899 13.8075C673.912 13.6438 673.838 13.5603 673.675 11.2724C673.504 8.91775 673.491 8.90773 671.307 8.90773C669.172 8.90773 669.112 8.85429 669.112 6.95717C669.112 5.10347 669.022 5.00995 667.165 5.00995C665.315 5.00995 665.218 5.10681 665.218 6.92377ZM1321.53 6.95717C1321.53 8.85095 1321.46 8.90773 1319.36 8.90773C1317.28 8.90773 1317.18 8.99457 1316.88 10.9952C1315.92 17.3212 1315.95 17.2577 1314.23 17.2577C1312.81 17.2577 1312.62 17.0573 1312.62 15.5877C1312.62 14.048 1312.47 13.9177 1310.67 13.9177C1308.82 13.9177 1308.72 14.0112 1308.72 15.8416V17.7654L1304.41 17.9291L1300.1 18.0927L1299.82 20.3172L1299.54 22.5449L1290.22 22.6986L1280.89 22.8489V24.5055V26.1622H1276.99H1273.1V24.4922C1273.1 23.0192 1272.91 22.8222 1271.47 22.8222C1269.39 22.8222 1268.09 21.5229 1268.09 19.4421V17.8122H1264.55C1257.71 17.8122 1255.84 17.3245 1255.84 15.5443C1255.84 14.6859 1255.59 13.8275 1255.28 13.6372C1254.98 13.4501 1254.73 12.2911 1254.73 11.0654C1254.73 7.63853 1251.26 7.94581 1250.83 11.4127C1250.57 13.5236 1250.45 13.6472 1248.47 13.8108C1246.5 13.9745 1246.38 14.0914 1246.38 15.8649C1246.38 17.6385 1246.25 17.7554 1244.29 17.919C1242.31 18.0827 1242.19 18.2063 1241.92 20.3172C1241.66 22.4314 1241.54 22.555 1239.56 22.7186C1237.53 22.8856 1237.47 22.9558 1237.47 25.06V27.2276L1233.44 27.3913L1229.4 27.5549L1229.22 29.3652L1229.05 31.1722H1222.4H1215.76V33.1194V35.0666L1092.6 35.2069C955.748 35.3639 968.46 34.9998 969.395 38.7339L969.736 40.0799H1103.33H1236.91V41.7499V43.4166L1105.4 43.5569L973.887 43.6972L973.717 45.7847L973.543 47.8722H1118.87H1264.19V45.9249V43.9777H1269.71C1276.67 43.9777 1276.99 43.8508 1276.99 41.1521V39.0011L1283.54 38.8441L1290.08 38.6872L1290.25 36.8802L1290.42 35.0699H1294.5C1298.77 35.0699 1299.26 34.776 1299.26 32.2643C1299.26 31.3458 1299.78 31.1989 1303.58 31.0586L1307.89 30.8949L1308.06 28.5302C1308.22 26.2356 1308.29 26.1622 1310.15 26.1622C1311.96 26.1622 1312.06 26.0586 1312.06 24.2483C1312.06 22.4381 1312.18 22.3245 1314.15 22.1608C1316.18 21.9938 1316.24 21.9204 1316.41 19.6224C1316.58 17.2744 1316.6 17.2577 1318.74 17.2577C1320.77 17.2577 1320.91 17.1475 1321.07 15.4474C1321.23 13.8476 1321.47 13.6071 1323.2 13.3599L1325.15 13.0827L1325.31 9.04467L1325.47 5.00995H1323.5C1321.61 5.00995 1321.53 5.09679 1321.53 6.95717ZM395.79 15.5209C395.79 17.1074 395.747 17.1275 391.475 17.6084L387.163 18.0927L386.989 20.1802C386.829 22.1174 386.689 22.2677 385.042 22.2744C380.155 22.2911 379.09 22.7988 379.09 25.1234C379.09 27.251 379.067 27.2777 376.942 27.2777H374.791L374.441 30.2002C374.247 31.8068 374.087 35.424 374.083 38.2363L374.08 43.3498L372.27 43.5235L370.463 43.6972L370.299 47.979L370.139 52.2576L372.25 52.4313C374.3 52.6016 374.364 52.6684 374.531 54.9697C374.701 57.3244 374.711 57.3377 376.896 57.3377C379.033 57.3377 379.09 57.3878 379.09 59.2849C379.09 60.9483 379.277 61.2322 380.369 61.2322C382.149 61.2322 382.988 62.2509 382.988 64.4052V66.2422H387.44H391.892V68.1927V70.1399H395.7C397.794 70.1399 403.682 70.3036 408.783 70.5073L418.058 70.8714V72.4713V74.0711L424.875 73.9141L431.695 73.7572L431.872 72.2274L432.046 70.6977L438.552 70.6242C442.129 70.5842 450.816 70.3971 457.857 70.2067L470.663 69.8627L470.836 68.0524L471.01 66.2422H482.076H493.144L493.315 63.8774L493.485 61.5127L499.747 61.3558L506.01 61.1954V59.2683V57.3377H539.55C557.997 57.3411 575.906 57.5047 579.35 57.7018L585.612 58.0625V59.649C585.612 61.1219 585.766 61.2322 587.807 61.2322C589.991 61.2322 590.004 61.2455 590.175 63.6002L590.345 65.9649L598.418 66.4359C607.87 66.9903 606.791 66.4693 607.172 70.651C607.456 73.7805 607.579 74.0377 608.829 74.0377C611.22 74.0377 612.332 75.0163 612.332 77.1172V79.0477H616.788H621.24V81.2722C621.24 84.876 625.271 84.3817 625.779 80.7177C625.959 79.4084 626.197 79.3149 629.73 79.1613L633.488 78.9943V80.671C633.488 82.9822 634.747 83.4999 640.362 83.4999C646.33 83.4999 646.848 83.2995 646.848 80.9582V79.0945L651.16 78.9308L655.475 78.7672L655.662 77.0972C655.919 74.846 656.694 74.0377 658.605 74.0377C660.064 74.0377 660.208 73.864 660.208 72.0872V70.1399H667.165H674.122V72.0872C674.122 73.8407 674.276 74.0377 675.655 74.0444C677.846 74.0578 678.461 74.6222 678.671 76.8233L678.855 78.7672L682.89 78.9308L686.928 79.0945V80.9582C686.928 83.3129 687.425 83.4999 693.688 83.4999C699.563 83.4999 700.842 82.9989 700.842 80.6977V79.0477H704.74H708.638V80.6042C708.638 82.4612 709.536 83.4999 711.143 83.4999C712.739 83.4999 713.648 82.4612 713.648 80.6309C713.648 79.1112 713.688 79.0945 717.683 78.9308L721.717 78.7672L721.998 76.5427C722.248 74.522 722.439 74.2982 724.028 74.1446C725.511 74.001 725.825 73.7037 726.089 72.1974C726.26 71.2188 726.557 69.6389 726.754 68.6904L727.108 66.9603L732.485 66.6062C735.441 66.4092 739.302 66.2488 741.063 66.2455L744.262 66.2422V63.7372V61.2322H746.767C749.152 61.2322 749.272 61.1553 749.272 59.6457V58.0625L754.7 57.7018C757.686 57.5047 775.348 57.3411 793.945 57.3411L827.762 57.3377V59.2849V61.2322L833.748 61.2422C840.608 61.2522 840.969 61.3858 841.216 64.0211L841.403 65.9649L852.535 66.2422L863.667 66.5227L863.844 68.3297L864.018 70.1399H870.802C874.532 70.1433 883.019 70.3069 889.662 70.5073L901.743 70.8714L901.91 72.3143L902.077 73.7572L909.175 73.9141L916.272 74.0711V72.4412V70.8146L929.078 70.4071L941.88 69.9997V68.1192V66.2422H946.332H950.788V64.6189C950.788 61.9235 951.302 61.2322 953.316 61.2322C955 61.2322 955.187 61.0685 955.344 59.4252C955.504 57.7719 955.701 57.5982 957.605 57.4413C959.626 57.2743 959.692 57.2008 959.692 55.1367C959.692 52.8755 960.303 52.3277 962.825 52.3277C964.175 52.3277 964.191 52.2676 964.031 48.0124L963.867 43.6972L962.06 43.5235L960.25 43.3498L960.247 38.2363C960.237 29.8161 959.779 27.2777 958.269 27.2777C955.952 27.2777 955.24 26.6865 955.24 24.7694V22.9357L951.342 22.5449C947.548 22.1642 947.448 22.1141 947.448 20.6077C947.448 18.4835 946.646 18.0092 942.298 17.5583C938.607 17.1742 938.54 17.1408 938.54 15.541V13.9177H925.18H911.82V15.5877V17.2577H925.18H938.54V19.7627V22.2677H942.715H946.89V24.2149C946.89 26.0486 947 26.1622 948.727 26.1622C949.739 26.1622 950.801 26.396 951.092 26.6765C951.382 26.9604 952.371 27.2744 953.286 27.3746C955.407 27.605 955.721 29.1481 955.764 39.6157C955.801 48.4901 955.925 48.9877 958.082 48.9877C959.489 48.9877 959.692 49.1915 959.692 50.6043C959.692 52.1975 959.632 52.2275 955.658 52.6918L951.623 53.1627L951.342 55.3872C951.078 57.5014 950.958 57.625 948.978 57.7886C947.017 57.9489 946.89 58.0725 946.89 59.816C946.89 62.0404 946.282 62.3477 941.867 62.3477H938.607L938.433 64.4352L938.263 66.5227L927.024 66.673L915.788 66.8233L915.614 68.343L915.437 69.8627H909.315H903.193L903.016 68.3297L902.839 66.7999L892.438 66.7899C881.082 66.7832 880.835 66.7298 880.558 64.2916L880.367 62.6249L867.842 62.3477C854.292 62.0471 853.928 61.9703 853.928 59.5288V57.8922H845.688C836.633 57.8922 836.112 57.7218 836.112 54.7192V52.8822H790.515H744.914L744.526 57.0171L744.139 61.152L739.887 61.4626C737.549 61.6363 733.694 61.9235 731.32 62.1039L727.008 62.4346V64.2783C727.008 66.5094 726.403 66.7999 721.787 66.7999H718.33L717.659 69.3116C717.288 70.6944 716.988 72.3243 716.988 72.9322C716.988 73.9175 716.607 74.0377 713.481 74.0377C711.55 74.0377 709.733 74.2749 709.443 74.5688C709.149 74.8594 706.908 75.1733 704.459 75.2635C700.064 75.4272 700.007 75.4472 699.834 76.9602L699.657 78.4899H693.337H687.021L686.634 74.3383L686.243 70.1867L682.272 70.023C678.417 69.8661 678.294 69.816 678.127 68.3631C677.977 67.0738 677.663 66.84 675.899 66.6931C673.862 66.5227 673.845 66.5027 673.845 64.0177V61.5127L682.613 61.3591L691.38 61.2054V59.305C691.38 57.5114 691.497 57.3945 693.464 57.2308C695.274 57.0805 695.588 56.8467 695.832 55.4506C696.176 53.4767 699.533 52.3912 705.401 52.3511L709.125 52.3277L709.299 50.2402L709.473 48.1527L830.13 48.0124L950.788 47.8722V44.0078V40.1467L948.7 39.9731C946.72 39.8094 946.596 39.6892 946.332 37.5749L946.055 35.3472H833.888H721.717L721.547 37.1007C721.353 39.098 720.488 39.3886 713.23 39.8896L709.192 40.1668V42.0739C709.192 43.804 709.049 43.9777 707.569 43.9777C705.001 43.9777 704.182 44.5155 704.182 46.2022C704.182 47.9924 703.103 48.3231 695.695 48.7973L691.38 49.0712V50.945C691.38 52.7519 691.297 52.8254 689.015 52.989C686.814 53.1494 686.637 53.283 686.48 54.9029C686.24 57.3477 684.623 57.5648 666.607 57.5615C650.208 57.5615 647.793 57.2475 647.486 55.0899C647.245 53.3898 646.517 52.9022 644.203 52.8922C642.516 52.8855 642.392 52.7552 642.392 50.9784V49.0746L638.357 48.7973C631.1 48.2963 630.231 48.0024 630.038 46.0084C629.881 44.3785 629.704 44.2416 627.536 44.0846C625.362 43.9276 625.191 43.794 625.031 42.1374L624.857 40.3572L620.682 39.9764C612.997 39.275 612.332 39.0579 612.332 37.2476C612.332 34.913 618.919 35.0299 498.772 35.1969L387.717 35.3472L387.44 37.5749C387.176 39.6892 387.056 39.8094 385.075 39.9731L382.988 40.1467V44.0111V47.8722H503.672C596.795 47.8722 624.51 48.0258 625.024 48.5402C625.392 48.9076 625.692 49.8828 625.692 50.7078C625.692 52.1808 625.772 52.2142 630.007 52.5214C637.716 53.0826 638.411 53.3097 638.605 55.307C638.755 56.8401 639.015 57.0939 640.722 57.3377C642.446 57.5815 642.693 57.8254 642.846 59.4252L643.02 61.2322H651.013C660.612 61.2322 660.762 61.2756 660.762 64.0177C660.762 66.2455 660.144 66.7999 657.656 66.7999C656.537 66.7999 656.31 67.0772 656.31 68.4466V70.0932L651.995 70.2568L647.683 70.4172L647.506 72.6449C647.409 73.8707 647.095 75.1099 646.811 75.4004C646.524 75.691 646.29 76.506 646.29 77.2107C646.29 78.4632 646.173 78.4899 640.445 78.4899H634.6V76.86V75.2301L630.007 74.9228C627.482 74.7491 623.491 74.4619 621.14 74.2815L616.865 73.9509L616.487 70.3971L616.106 66.8434L611.855 66.683L607.603 66.5227L607.322 64.5722L607.045 62.6249L602.87 62.1908C600.575 61.9503 596.878 61.6163 594.66 61.4493C590.659 61.1487 590.622 61.132 590.622 59.5521C590.622 58.6771 590.372 57.8053 590.068 57.6149C589.761 57.4246 589.51 56.2823 589.51 55.0732V52.8755L543.725 53.0191L497.937 53.1627L497.764 54.8327C497.476 57.5949 496.538 57.8922 488.091 57.8922H480.402V59.4954C480.402 62.1874 479.811 62.3143 466.444 62.4746L453.963 62.6249L453.682 64.5722L453.405 66.5227L442.169 66.673L430.93 66.8233L430.756 68.343L430.583 69.8627L425.376 70.023C419.918 70.19 418.612 69.7692 418.612 67.8454C418.612 66.8601 418.014 66.7999 408.081 66.7999C395.894 66.7999 395.79 66.7799 395.79 64.2348V62.3477H392.216C387.457 62.3477 386.882 62.0705 386.882 59.7826C386.882 58.156 386.695 57.8922 385.536 57.8922C383.295 57.8922 382.43 57.2976 382.42 55.7479C382.407 53.4533 381.846 53.0458 378.115 52.6183C373.913 52.134 372.624 49.2516 376.445 48.8842L378.255 48.7072L378.602 38.6872C378.796 33.1762 378.983 28.3833 379.02 28.0359C379.09 27.4147 380.656 26.9571 384.795 26.3525C386.732 26.0686 386.882 25.9117 386.882 24.1815V22.3145L391.198 22.1508L395.513 21.9872L395.79 19.7627L396.067 17.5349L409.01 17.3846L421.952 17.2377V15.5777V13.9177H408.873H395.79V15.5209ZM669.112 15.5877C669.112 17.1241 668.959 17.2577 667.165 17.2577C665.371 17.2577 665.218 17.1241 665.218 15.5877C665.218 14.048 665.371 13.9177 667.165 13.9177C668.959 13.9177 669.112 14.048 669.112 15.5877ZM427.062 18.5269C426.668 19.0012 426.598 21.2089 426.855 25.07L427.243 30.8949H429.467C431.565 30.8949 431.705 30.7914 431.865 29.1181C432.009 27.6585 432.303 27.3145 433.535 27.1708C435.733 26.917 436.171 22.8222 434 22.8222C431.461 22.8222 430.86 22.2811 430.86 19.9798C430.86 17.6685 428.519 16.7734 427.062 18.5269ZM903.283 18.1829C903.079 18.39 902.912 19.215 902.912 20.0199C902.912 21.8369 901.98 22.8222 900.264 22.8222C898.377 22.8222 898.61 26.9003 900.514 27.1708C901.433 27.3011 901.777 27.7854 901.907 29.1214C902.067 30.768 902.244 30.9083 904.362 31.0619L906.646 31.2289L906.954 25.257C907.121 21.9738 907.131 18.9544 906.974 18.5503C906.683 17.7921 903.948 17.5216 903.283 18.1829ZM82.9422 20.3172C82.9422 22.1107 82.812 22.2677 81.2722 22.2677C79.7358 22.2677 79.6022 22.1107 79.6022 20.3172C79.6022 18.5236 79.7358 18.3699 81.2722 18.3699C82.812 18.3699 82.9422 18.5236 82.9422 20.3172ZM664.66 22.2677V26.1622H656.033H647.402V24.4922V22.8222H653.785C660.642 22.8222 661.32 22.5282 661.32 19.5189C661.32 18.6138 661.674 18.3699 662.99 18.3699H664.66V22.2677ZM673.671 20.4574L673.845 22.5449L680.108 22.7019L686.37 22.8589V24.5122V26.1622H678.297H670.228V22.2677V18.3699H671.864C673.351 18.3699 673.514 18.557 673.671 20.4574ZM1254.62 20.1802C1254.42 22.3045 1251.31 22.9791 1250.93 20.9818C1250.59 19.215 1251.28 18.3699 1253.07 18.3699C1254.68 18.3699 1254.78 18.4902 1254.62 20.1802ZM1311.96 20.4574C1312.12 22.1441 1312.02 22.2677 1310.43 22.2677C1308.85 22.2677 1308.72 22.1241 1308.72 20.2804C1308.72 17.418 1311.68 17.5784 1311.96 20.4574ZM34.5122 24.4922V26.1622H30.6178H26.72V24.4922V22.8222H30.6178H34.5122V24.4922ZM86.84 24.4922C86.84 25.905 86.6229 26.1622 85.4472 26.1622C84.2715 26.1622 84.0578 25.905 84.0578 24.4922C84.0578 23.0827 84.2715 22.8222 85.4472 22.8222C86.6229 22.8222 86.84 23.0827 86.84 24.4922ZM1250.27 24.4922C1250.27 25.9785 1250.09 26.1622 1248.6 26.1622C1247.12 26.1622 1246.93 25.9785 1246.93 24.4922C1246.93 23.0092 1247.12 22.8222 1248.6 22.8222C1250.09 22.8222 1250.27 23.0092 1250.27 24.4922ZM1308.17 24.4922V26.1622H1303.99H1299.82V24.4922V22.8222H1303.99H1308.17V24.4922ZM43.42 29.2249V31.1722H39.5222H35.6278V29.2249V27.2777H39.5222H43.42V29.2249ZM69.4787 29.0847L69.305 30.8949H65.6878H62.0672L61.8935 29.0847L61.7199 27.2777H65.6878H69.6524L69.4787 29.0847ZM95.7478 29.2517V31.2256L91.9936 31.0586C88.8941 30.925 88.2094 30.7213 88.0524 29.8896C87.6383 27.7219 88.3296 27.2777 92.1105 27.2777H95.7478V29.2517ZM646.29 29.2249V31.1722H642.673H639.052V29.2249V27.2777H642.673H646.29V29.2249ZM695.278 29.2483V31.2223L691.24 31.0586L687.205 30.8949L687.031 29.0847L686.858 27.2777H691.066H695.278V29.2483ZM1245.72 29.0847L1245.54 30.8949H1241.65H1237.75L1237.57 29.0847L1237.4 27.2777H1241.65H1245.89L1245.72 29.0847ZM1271.98 29.2249V31.1722H1268.37H1264.75V29.2249V27.2777H1268.37H1271.98V29.2249ZM1298.7 29.2517V31.2256L1294.94 31.0586L1291.19 30.8949L1291.01 29.0847L1290.84 27.2777H1294.77H1298.7V29.2517ZM56.6798 32.9824C56.5095 34.1815 56.2456 34.2416 50.5175 34.3919L44.5322 34.5522V33.1394V31.7299H50.6945C56.7666 31.7299 56.8535 31.7466 56.6798 32.9824ZM86.84 33.1227V34.5122H78.7672H70.6978V33.1227V31.7299H78.7672H86.84V33.1227ZM104.652 33.1227C104.652 34.4721 104.542 34.5122 100.758 34.5122C96.9702 34.5122 96.86 34.4721 96.86 33.1227C96.86 31.77 96.9702 31.7299 100.758 31.7299C104.542 31.7299 104.652 31.77 104.652 33.1227ZM664.66 35.3472V38.9677H662.99C661.53 38.9677 661.32 38.7673 661.32 37.4079C661.32 34.8128 660.525 34.5122 653.695 34.5122H647.402V33.1227V31.7299H656.033H664.66V35.3472ZM686.37 33.1027C686.37 34.4721 686.353 34.4788 680.108 34.6357L673.845 34.7927L673.671 36.8802C673.514 38.7773 673.351 38.9677 671.864 38.9677H670.228V35.3472V31.7299H678.297H686.37V33.1027ZM1236.91 33.1227C1236.91 34.4621 1236.78 34.5122 1233.3 34.5122C1229.81 34.5122 1229.68 34.4621 1229.68 33.1227C1229.68 31.78 1229.81 31.7299 1233.3 31.7299C1236.78 31.7299 1236.91 31.78 1236.91 33.1227ZM1263.63 33.1227V34.5122H1255.28H1246.93V33.1227V31.7299H1255.28H1263.63V33.1227ZM1289.8 33.1227V34.5122H1283.67H1277.55V33.1227V31.7299H1283.67H1289.8V33.1227ZM69.5822 37.2977V38.9677H63.46H57.3378V37.2977V35.6277H63.46H69.5822V37.2977ZM95.7478 37.3211V39.0178L91.9903 38.8542C88.3497 38.6938 88.2261 38.6404 88.0558 37.1574L87.8787 35.6277H91.8133H95.7478V37.3211ZM1245.82 37.3211V39.0145L1241.79 38.8508C1237.84 38.6905 1237.74 38.6538 1237.57 37.1574L1237.4 35.6277H1241.61H1245.82V37.3211ZM1276.44 37.2977V38.9677H1270.59H1264.75V37.2977V35.6277H1270.59H1276.44V37.2977ZM611.22 41.7499V43.4199H499.33H387.44V41.7499V40.0799H499.33H611.22V41.7499ZM669.112 41.7499C669.112 43.2863 668.959 43.4199 667.165 43.4199C665.371 43.4199 665.218 43.2863 665.218 41.7499C665.218 40.2135 665.371 40.0799 667.165 40.0799C668.959 40.0799 669.112 40.2135 669.112 41.7499ZM946.332 41.7499V43.4199H834.165H721.998V42.1207C721.998 41.4059 722.165 40.6544 722.369 40.4507C722.572 40.2469 773.046 40.0799 834.536 40.0799H946.332V41.7499ZM668.835 64.2949C668.835 65.7712 668.625 65.985 667.025 66.1386C665.285 66.3056 665.218 66.2388 665.218 64.2949C665.218 62.3511 665.285 62.2843 667.025 62.4513C668.625 62.6049 668.835 62.8187 668.835 64.2949Z" fill="#F7F0DD"/>
<path fill-rule="evenodd" clip-rule="evenodd" d="M8.58381 4.64588C7.61187 7.18094 8.63725 13.6372 10.02 13.6906C11.2324 13.7374 11.2491 13.7173 10.1603 13.5169C8.98461 13.2998 8.90779 13.0126 8.90779 8.80752V4.33192L10.855 4.55904C11.9271 4.68262 12.8022 4.58576 12.8022 4.34194C12.8022 3.5704 8.89109 3.85096 8.58381 4.64588ZM665.024 4.31522C664.88 4.54234 665.806 4.73272 667.078 4.73272C669.299 4.73272 669.403 4.80954 669.67 6.67994C669.924 8.4635 670.111 8.63384 671.898 8.70064L673.845 8.77412L672.035 8.52696C670.495 8.31654 670.228 8.05268 670.228 6.75676C670.228 4.4054 666.153 2.49492 665.024 4.31522ZM1321.33 4.31522C1321.19 4.54234 1322.16 4.73272 1323.47 4.73272C1324.79 4.73272 1325.76 4.54234 1325.62 4.31522C1325.47 4.08476 1324.51 3.89772 1323.47 3.89772C1322.44 3.89772 1321.48 4.08476 1321.33 4.31522ZM12.8022 8.57038C12.8022 8.69062 13.7842 8.88434 14.9832 8.9979C16.1823 9.11146 17.044 9.0146 16.8971 8.77746C16.6332 8.34994 12.8022 8.15622 12.8022 8.57038ZM80.3003 8.73404C80.8347 8.87432 81.7131 8.87432 82.2475 8.73404C82.7819 8.59376 82.3444 8.4802 81.2722 8.4802C80.2001 8.4802 79.7625 8.59376 80.3003 8.73404ZM661.744 8.74406C662.436 8.87766 663.438 8.87098 663.972 8.73404C664.503 8.59376 663.935 8.48354 662.713 8.49022C661.487 8.4969 661.053 8.61046 661.744 8.74406ZM1251.81 8.74406C1252.5 8.87766 1253.51 8.87098 1254.04 8.73404C1254.57 8.59376 1254 8.48354 1252.78 8.49022C1251.55 8.4969 1251.12 8.61046 1251.81 8.74406ZM1318.05 8.74406C1318.75 8.87766 1319.75 8.87098 1320.28 8.73404C1320.81 8.59376 1320.25 8.48354 1319.02 8.49022C1317.8 8.4969 1317.36 8.61046 1318.05 8.74406ZM83.5 10.8215C83.5 11.877 83.6937 12.8556 83.9275 13.0026C84.1647 13.1462 84.2615 12.2845 84.148 11.0854C83.8908 8.39336 83.5 8.23638 83.5 10.8215ZM1255.51 11.2691C1255.56 13.5136 1255.66 13.6472 1257.34 13.8108C1258.89 13.9611 1259.14 14.2116 1259.29 15.7581L1259.46 17.5349L1263.91 17.5683L1268.36 17.6017L1264.05 17.408L1259.74 17.211V15.2871C1259.74 13.4635 1259.63 13.3599 1257.82 13.3599C1255.99 13.3599 1255.89 13.2564 1255.68 11.1288L1255.45 8.8977L1255.51 11.2691ZM1250.4 11.1322C1250.4 12.2043 1250.52 12.6418 1250.66 12.1074C1250.8 11.573 1250.8 10.6946 1250.66 10.1602C1250.52 9.62248 1250.4 10.06 1250.4 11.1322ZM1316.04 11.2357C1315.97 13.1128 1315.81 13.3098 1314.15 13.5136L1312.34 13.7374L1314.17 13.8275C1316.21 13.9277 1316.73 13.203 1316.36 10.7614C1316.16 9.41206 1316.11 9.4822 1316.04 11.2357ZM17.3947 12.8022C17.535 13.3165 18.3533 13.6672 19.5256 13.7173C21.2725 13.7875 21.2925 13.7741 19.7628 13.5269C18.8476 13.38 17.889 12.9692 17.6352 12.6151C17.3212 12.1776 17.2444 12.241 17.3947 12.8022ZM76.6797 13.2096C74.6657 13.4201 74.5956 13.4969 74.6824 15.4808L74.7726 17.5349L74.9964 15.7247C75.1901 14.1549 75.4339 13.9177 76.8233 13.9177C77.7051 13.9177 78.5802 13.6672 78.7672 13.3599C78.9576 13.0527 79.0344 12.8456 78.9409 12.8957C78.8474 12.9491 77.8287 13.0894 76.6797 13.2096ZM1323.47 13.3599L1321.25 13.7574L1323.3 13.8376C1324.43 13.881 1325.51 13.6672 1325.7 13.3599C1325.89 13.0527 1325.97 12.8389 1325.87 12.8823C1325.78 12.9257 1324.7 13.1395 1323.47 13.3599ZM26.1221 15.4708L26.4561 17.5349L30.7313 17.6986L35.0099 17.8589L35.227 19.923L35.4441 21.9872L35.3973 19.7627L35.3472 17.5349L31.0353 17.3713L26.72 17.211V15.5944C26.72 14.7093 26.5096 13.8543 26.2557 13.6939C25.9986 13.537 25.9384 14.3352 26.1221 15.4708ZM87.5381 15.3072C87.5447 16.5329 87.6583 16.9671 87.7919 16.2758C87.9222 15.5844 87.9188 14.5824 87.7785 14.048C87.6383 13.5169 87.5314 14.0847 87.5381 15.3072ZM391.555 14.1549C391.385 14.5924 391.361 15.5309 391.495 16.2424C391.685 17.2444 391.759 17.1375 391.819 15.7581C391.886 14.1348 392.069 13.9645 393.98 13.7641L396.067 13.547L393.963 13.4535C392.587 13.3933 391.752 13.6338 391.555 14.1549ZM678.538 15.4708L678.868 17.5349L682.846 17.8122C685.034 17.9658 686.707 17.9023 686.564 17.6752C686.42 17.4448 684.69 17.2577 682.719 17.2577H679.132V15.6211C679.132 14.7193 678.925 13.8543 678.668 13.6939C678.411 13.537 678.354 14.3352 678.538 15.4708ZM911.008 13.8776C910.537 14.6392 910.912 22.2043 911.402 21.9003C911.633 21.76 911.82 20.9117 911.82 20.0166V18.39L925.04 18.2297L938.263 18.0693L924.702 17.9424L911.145 17.8122L911.359 15.5877C911.583 13.2531 911.536 13.0259 911.008 13.8776ZM940.177 13.6706C941.529 13.9277 941.843 14.2885 941.987 15.7581C942.151 17.4581 942.264 17.5383 944.662 17.5817L947.167 17.6251L944.836 17.4114C942.672 17.2143 942.491 17.0707 942.331 15.4174C942.177 13.8509 941.943 13.6205 940.35 13.5002C938.627 13.3666 938.617 13.3733 940.177 13.6706ZM12.3881 15.8649C12.3947 17.0907 12.5083 17.5249 12.6419 16.8335C12.7722 16.1388 12.7688 15.1368 12.6285 14.6058C12.4883 14.0747 12.3814 14.6392 12.3881 15.8649ZM67.7886 17.6652C69.0979 17.7821 71.1019 17.7821 72.2409 17.6619C73.3831 17.5416 72.311 17.4448 69.8628 17.4481C67.4112 17.4481 66.4794 17.5483 67.7886 17.6652ZM90.1499 17.5683C91.4893 17.8222 91.8266 18.2029 92.007 19.6558C92.2207 21.3626 92.2274 21.3559 92.1773 19.4822C92.1339 17.6953 91.9769 17.5249 90.3203 17.3947C88.5935 17.2644 88.5868 17.2711 90.1499 17.5683ZM387.3 17.6485C387.991 17.7821 389.117 17.7821 389.805 17.6485C390.496 17.5182 389.932 17.408 388.552 17.408C387.176 17.408 386.612 17.5182 387.3 17.6485ZM409.29 17.6752C402.169 17.7621 396.348 18.0159 396.348 18.2397C396.344 18.4635 402.106 18.577 409.15 18.4902L421.952 18.3299V20.3906C421.952 21.5262 422.046 22.3479 422.156 22.221C422.543 21.7734 422.958 17.2577 422.597 17.3846C422.396 17.4548 416.408 17.585 409.29 17.6752ZM427.109 17.6552C427.958 17.7854 429.21 17.7821 429.895 17.6485C430.579 17.5149 429.885 17.4114 428.355 17.4147C426.825 17.4214 426.264 17.5283 427.109 17.6552ZM647.212 17.6752C647.068 17.9023 648.244 18.0192 649.82 17.9324C654.941 17.6485 655.562 17.4247 651.474 17.3412C649.269 17.2945 647.352 17.4448 647.212 17.6752ZM903.887 17.6485C904.576 17.7821 905.704 17.7821 906.392 17.6485C907.081 17.5182 906.516 17.408 905.14 17.408C903.761 17.408 903.199 17.5182 903.887 17.6485ZM1242.9 17.6518C1243.6 17.7821 1244.6 17.7788 1245.13 17.6385C1245.66 17.4982 1245.1 17.3913 1243.87 17.398C1242.65 17.4047 1242.21 17.5182 1242.9 17.6518ZM1299.37 17.9257C1299 18.2931 1298.74 19.4822 1298.78 20.5677L1298.86 22.5449L1299.2 20.3172L1299.54 18.0927L1303.71 17.7754L1307.89 17.4581L1303.96 17.3579C1301.53 17.2945 1299.79 17.5082 1299.37 17.9257ZM13.36 18.0293C13.36 18.1462 14.1115 18.3532 15.03 18.4902C15.9485 18.6238 16.7 18.5269 16.7 18.2731C16.7 18.0192 15.9485 17.8122 15.03 17.8122C14.1115 17.8122 13.36 17.909 13.36 18.0293ZM382.737 18.5102C382.223 20.1669 382.063 22.2677 382.45 22.2677C382.68 22.2677 382.964 21.2657 383.081 20.0399C383.292 17.8255 383.148 17.1809 382.737 18.5102ZM431.568 20.0399C431.568 21.416 431.678 21.9805 431.809 21.2924C431.942 20.6044 431.942 19.4755 431.809 18.7874C431.678 18.0994 431.568 18.6605 431.568 20.0399ZM950.928 19.7627C950.935 20.9852 951.048 21.4227 951.182 20.728C951.312 20.0366 951.309 19.0346 951.169 18.5035C951.028 17.9691 950.921 18.5369 950.928 19.7627ZM1316.89 18.1829C1316.68 18.39 1316.52 19.3753 1316.52 20.3773C1316.52 22.0439 1316.35 22.2176 1314.56 22.4314L1312.61 22.6618L1314.7 22.6017C1316.7 22.5483 1316.8 22.4514 1316.97 20.4908C1317.11 18.744 1317.36 18.4033 1318.64 18.2096L1320.13 17.9792L1318.7 17.8957C1317.91 17.8522 1317.09 17.9792 1316.89 18.1829ZM901.94 20.3172C901.947 21.5429 902.061 21.9771 902.194 21.2858C902.328 20.5944 902.321 19.5924 902.184 19.058C902.044 18.5269 901.934 19.0947 901.94 20.3172ZM1241.26 20.3172C1241.14 21.3893 1241.23 22.2677 1241.48 22.2677C1241.72 22.2677 1241.92 21.3893 1241.92 20.3172C1241.92 19.2484 1241.83 18.3699 1241.71 18.3699C1241.58 18.3699 1241.38 19.2484 1241.26 20.3172ZM65.2603 20.5977C65.2603 21.6665 65.3738 22.1074 65.5141 21.5697C65.6544 21.0353 65.6544 20.1568 65.5141 19.6224C65.3738 19.088 65.2603 19.5256 65.2603 20.5977ZM646.42 20.5977C646.42 21.6665 646.534 22.1074 646.674 21.5697C646.814 21.0353 646.814 20.1568 646.674 19.6224C646.534 19.088 646.42 19.5256 646.42 20.5977ZM1268.64 20.5977C1268.64 21.5162 1268.85 22.2677 1269.1 22.2677C1269.36 22.2677 1269.45 21.5162 1269.32 20.5977C1269.18 19.6792 1268.98 18.9277 1268.86 18.9277C1268.74 18.9277 1268.64 19.6792 1268.64 20.5977ZM938.126 21.7099C938.296 22.3445 939.278 22.555 942.204 22.5917L946.055 22.6385L942.451 22.4214C940.47 22.3045 938.634 21.907 938.373 21.5396C938.039 21.072 937.966 21.1221 938.126 21.7099ZM391.615 22.231L387.163 22.5449L386.992 24.6024C386.829 26.5296 386.695 26.6665 384.771 26.8268C382.861 26.9871 380.69 31.1722 382.517 31.1722C382.774 31.1722 382.988 30.3104 382.988 29.2583C382.988 27.4481 383.101 27.3345 385.075 27.1708C387.049 27.0072 387.169 26.8836 387.333 24.9097L387.507 22.8222H391.615C393.876 22.8222 395.88 22.5717 396.067 22.2677C396.258 21.9604 396.334 21.7567 396.241 21.8135C396.147 21.8669 394.063 22.0573 391.615 22.231ZM19.0347 22.6485C20.9518 22.8723 21.1021 23.0259 21.2624 24.9431C21.4228 26.8736 21.5564 27.0072 23.4869 27.1675C25.3372 27.3245 25.5644 27.5182 25.7648 29.1181C25.9752 30.8281 25.9819 30.8215 25.9351 28.9477C25.8883 27.1141 25.7648 26.9871 23.8276 26.8268C21.897 26.6665 21.7634 26.5329 21.6031 24.6024C21.4361 22.6151 21.356 22.5416 19.205 22.4781L16.9772 22.4113L19.0347 22.6485ZM54.6925 22.6719C55.8415 22.7921 57.7185 22.7921 58.8675 22.6719C60.0165 22.5516 59.0779 22.4548 56.78 22.4548C54.4854 22.4548 53.5435 22.5516 54.6925 22.6719ZM426.401 26.8836L426.675 31.4527L426.845 27.3312C426.939 25.0633 426.815 23.0092 426.571 22.762C426.328 22.5182 426.251 24.3719 426.401 26.8836ZM898.119 23.0626C897.952 23.4968 897.909 24.4387 898.022 25.1501C898.176 26.0987 898.303 25.8883 898.51 24.3552C898.804 22.1942 898.65 21.6832 898.119 23.0626ZM955.758 24.3686C956.058 26.2256 956.292 26.4594 958.146 26.76C959.278 26.9437 960.073 26.8836 959.916 26.6298C959.756 26.3726 958.891 26.1622 957.989 26.1622C956.549 26.1622 956.352 25.9651 956.352 24.5256C956.352 23.6271 956.145 22.7587 955.888 22.6017C955.631 22.4447 955.574 23.2397 955.758 24.3686ZM1274.9 22.6719C1276.05 22.7921 1277.93 22.7921 1279.08 22.6719C1280.23 22.5516 1279.29 22.4548 1276.99 22.4548C1274.7 22.4548 1273.76 22.5516 1274.9 22.6719ZM906.92 26.8268L906.81 31.1054L904.722 31.3258L902.635 31.5429L904.739 31.6364C907.304 31.75 907.481 31.3826 907.224 26.3859L907.027 22.5449L906.92 26.8268ZM98.53 26.5062C101.853 26.9237 105.641 26.9638 105.404 26.5797C105.26 26.3525 103.343 26.2022 101.142 26.2457C98.9408 26.2924 97.7651 26.4093 98.53 26.5062ZM375.062 26.5563C375.753 26.6899 376.755 26.6865 377.286 26.5463C377.821 26.406 377.253 26.2991 376.027 26.3024C374.805 26.3091 374.367 26.4227 375.062 26.5563ZM629.954 26.5797C629.81 26.8101 631.11 26.927 632.843 26.8402C638.281 26.5696 638.935 26.3325 634.493 26.2457C632.138 26.2022 630.094 26.3525 629.954 26.5797ZM700.288 26.6799L704.463 26.9972L704.807 28.9477C705.147 30.8816 705.151 30.8816 705.224 29.1982C705.335 26.6431 704.459 26.1521 700.037 26.2624L696.113 26.3626L700.288 26.6799ZM946.676 26.8268C946.83 27.074 947.802 27.2777 948.837 27.2777C950.46 27.2777 950.748 27.4848 950.941 28.8074C951.155 30.2503 951.165 30.2436 951.118 28.6672C951.068 27.1374 950.868 26.9704 948.73 26.6865C947.448 26.5162 946.523 26.5797 946.676 26.8268ZM1228.87 26.8602C1228.36 28.4534 1228.23 31.1722 1228.66 31.1722C1228.91 31.1722 1229.12 30.1835 1229.12 28.9711V26.77L1233.15 26.5763L1237.19 26.3859L1233.14 26.2724C1230.3 26.1956 1229.02 26.3726 1228.87 26.8602ZM1310.39 26.7199L1308.44 27.1308L1310.22 27.2042C1311.2 27.2443 1312.15 27.0272 1312.34 26.7199C1312.53 26.4127 1312.61 26.1956 1312.51 26.2356C1312.42 26.2757 1311.46 26.4928 1310.39 26.7199ZM898.46 28.9477C898.46 30.1702 898.654 31.1722 898.891 31.1722C899.131 31.1722 899.228 30.1702 899.111 28.9477C898.994 27.7219 898.801 26.7199 898.68 26.7199C898.56 26.7199 898.46 27.7219 898.46 28.9477ZM435.442 29.5022C435.442 30.5743 435.556 31.0118 435.696 30.4774C435.837 29.943 435.837 29.0646 435.696 28.5302C435.556 27.9925 435.442 28.43 435.442 29.5022ZM30.4408 31.573C33.8776 31.75 34.4788 31.9337 34.6926 32.8756C34.8896 33.7473 34.923 33.7139 34.8663 32.7119C34.7961 31.5262 34.549 31.4494 30.6178 31.4093L26.4428 31.3659L30.4408 31.573ZM369.868 31.9036C369.715 32.3078 369.661 35.3772 369.748 38.7239L369.912 44.8127L370.186 37.9924C370.459 31.2557 370.416 30.4741 369.868 31.9036ZM428.215 31.5563C428.752 31.6965 429.628 31.6965 430.165 31.5563C430.7 31.416 430.262 31.3024 429.19 31.3024C428.118 31.3024 427.68 31.416 428.215 31.5563ZM632.249 31.583C633.558 31.6999 635.562 31.6965 636.701 31.5763C637.843 31.4594 636.771 31.3625 634.323 31.3625C631.871 31.3659 630.939 31.4627 632.249 31.583ZM697.936 31.583C699.246 31.6999 701.25 31.6965 702.389 31.5763C703.528 31.4594 702.459 31.3625 700.007 31.3625C697.559 31.3659 696.627 31.4627 697.936 31.583ZM955.123 41.7399L955.287 52.2576L953.219 52.4313C951.963 52.5381 951.062 52.9323 950.928 53.4399C950.774 54.0111 950.851 54.0679 951.165 53.6236C951.422 53.2663 952.505 52.8922 953.573 52.7886L955.517 52.6049L955.671 42.3478C955.754 36.7065 955.627 31.8969 955.394 31.6598C955.156 31.4193 955.036 35.9584 955.123 41.7399ZM964.021 35.4874C964.285 43.1127 964.515 43.8642 964.609 37.4347C964.662 33.9911 964.515 31.1722 964.285 31.1722C964.058 31.1722 963.937 33.1127 964.021 35.4874ZM1301.62 31.5796C1302.77 31.6999 1304.65 31.6999 1305.8 31.5796C1306.95 31.4594 1306.01 31.3592 1303.71 31.3592C1301.42 31.3592 1300.48 31.4594 1301.62 31.5796ZM119.128 34.6524C119.128 34.8829 174.505 35.0699 242.193 35.0699H365.259L365.075 39.4988C364.975 41.9336 365.095 43.7239 365.339 43.4801C365.583 43.2329 365.707 41.1788 365.616 38.9143L365.453 34.7927L242.29 34.5122C174.548 34.3585 119.128 34.422 119.128 34.6524ZM443.569 34.9297C474.594 35.0098 525.195 35.0098 556.016 34.9297C586.838 34.8528 561.454 34.786 499.607 34.786C437.764 34.786 412.543 34.8528 443.569 34.9297ZM777.802 34.9297C808.647 35.0098 859.125 35.0098 889.97 34.9297C920.818 34.8528 895.578 34.786 833.888 34.786C772.195 34.786 746.958 34.8528 777.802 34.9297ZM1031.13 34.9297C1065.06 35.0098 1120.42 35.0098 1154.15 34.9297C1187.88 34.8528 1160.12 34.786 1092.46 34.786C1024.8 34.786 997.197 34.8528 1031.13 34.9297ZM37.7286 35.4774C39.0379 35.5943 41.0419 35.5943 42.1809 35.4741C43.3231 35.3538 42.251 35.2603 39.8028 35.2603C37.3512 35.2637 36.4194 35.3605 37.7286 35.4774ZM643.054 35.4808C646.006 35.6678 646.237 35.7814 646.45 37.1842C646.657 38.5502 646.687 38.5235 646.764 36.8802L646.848 35.0699L643.367 35.1768L639.887 35.2804L643.054 35.4808ZM688.735 35.4741C689.884 35.5943 691.764 35.5943 692.91 35.4741C694.059 35.3538 693.12 35.257 690.822 35.257C688.528 35.257 687.589 35.3538 688.735 35.4741ZM717.405 35.3872C717.175 35.621 716.988 36.5095 716.988 37.3645C716.988 38.9043 716.951 38.921 712.95 39.1113L708.915 39.3017L712.883 39.4119C717.302 39.5355 718.307 38.951 718 36.4427C717.903 35.6277 717.632 35.1534 717.405 35.3872ZM946.85 37.1741C947.151 39.0278 947.384 39.2616 949.241 39.5622C950.37 39.7459 951.165 39.6892 951.008 39.432C950.851 39.1748 949.983 38.9677 949.084 38.9677C947.645 38.9677 947.448 38.7707 947.448 37.3311C947.448 36.4293 947.237 35.5643 946.98 35.4039C946.726 35.247 946.666 36.0419 946.85 37.1741ZM1290.72 35.4407C1290.52 35.6444 1290.35 36.6397 1290.35 37.6484V39.4888L1283.81 39.6457L1277.27 39.8027L1277.21 41.8936L1277.16 43.9877L1277.39 42.0505L1277.62 40.1133L1284.12 39.9597L1290.63 39.8027L1290.8 37.7386L1290.97 35.6745L1294.7 35.4808L1298.42 35.287L1294.76 35.1802C1292.74 35.12 1290.93 35.2369 1290.72 35.4407ZM616.594 39.1047C616.734 39.3351 618.702 39.5222 620.959 39.5222H625.071L625.241 41.6097C625.405 43.5803 625.525 43.7005 627.362 43.7473C629.236 43.7974 629.243 43.7907 627.533 43.5769C625.936 43.3799 625.739 43.1494 625.585 41.3024L625.415 39.2449L620.873 38.9677C618.378 38.8141 616.45 38.8775 616.594 39.1047ZM968.817 40.8715C968.861 42.7987 969.124 43.6771 969.712 43.8374C970.29 43.9911 970.347 43.9176 969.889 43.5936C969.528 43.3331 969.128 42.0004 968.997 40.6277L968.757 38.1327L968.817 40.8715ZM382.54 39.6357C382.136 40.0399 381.912 41.7299 381.972 43.9477L382.069 47.5949L382.39 43.6972L382.707 39.8027L384.658 39.4587C386.592 39.1147 386.592 39.1113 384.908 39.0412C383.973 39.0011 382.908 39.2683 382.54 39.6357ZM647.289 39.619C647.506 39.8261 649.486 40.0766 651.691 40.1768C653.899 40.277 655.525 40.1902 655.311 39.9831C655.094 39.7793 653.114 39.5288 650.909 39.4286C648.701 39.3284 647.075 39.4119 647.289 39.619ZM682.753 39.4821L678.855 39.8027L678.782 41.7499L678.708 43.6972L678.955 41.8902L679.202 40.0799H682.753C684.707 40.0799 686.46 39.8294 686.647 39.5222C686.838 39.2182 686.914 39.0111 686.821 39.0646C686.727 39.118 684.894 39.3084 682.753 39.4821ZM45.6478 39.8829C50.2136 40.2937 56.6564 40.3271 56.4159 39.9397C56.2757 39.7125 53.3532 39.5656 49.9263 39.6157C46.5028 39.6691 44.5756 39.7894 45.6478 39.8829ZM708.711 41.5763C708.644 43.2028 708.461 43.3698 706.55 43.5702L704.463 43.7907L706.567 43.8842C708.852 43.9844 709.456 43.2997 709.035 41.0953C708.845 40.09 708.771 40.2002 708.711 41.5763ZM63.5669 44.3852L69.5154 44.5689L69.7626 46.3591C70.0031 48.1193 70.0064 48.116 69.9329 46.2022L69.8628 44.2549L63.7372 44.2282L57.615 44.2015L63.5669 44.3852ZM360.72 46.2022V48.4266L215.43 48.5702L70.14 48.7105H215.57L360.997 48.7072L361.315 46.3424C361.488 45.0398 361.425 43.9777 361.174 43.9777C360.924 43.9777 360.72 44.9797 360.72 46.2022ZM633.788 45.4607C633.979 46.3291 634.233 47.3511 634.35 47.7352C634.496 48.2028 635.826 48.4299 638.444 48.4299H642.325L642.499 50.5174C642.666 52.5448 642.736 52.6049 644.897 52.6517L647.125 52.7018L645.071 52.4814C643.147 52.281 643.003 52.1307 642.843 50.2102L642.673 48.1527L638.635 47.9891L634.6 47.8254V46.2122C634.6 45.3237 634.339 44.4386 634.022 44.2416C633.645 44.0078 633.565 44.4353 633.788 45.4607ZM657.562 44.3618C658.097 44.4988 658.975 44.4988 659.51 44.3618C660.047 44.2215 659.607 44.1046 658.538 44.1046C657.466 44.1046 657.028 44.2215 657.562 44.3618ZM674.82 44.3618C675.355 44.4988 676.233 44.4988 676.767 44.3618C677.302 44.2215 676.864 44.1046 675.792 44.1046C674.72 44.1046 674.283 44.2215 674.82 44.3618ZM973.182 45.6477C973.182 46.7165 973.296 47.1574 973.436 46.6197C973.577 46.0853 973.577 45.2068 973.436 44.6724C973.296 44.138 973.182 44.5756 973.182 45.6477ZM1267.69 44.3885C1269.46 44.4988 1272.22 44.4988 1273.81 44.3852C1275.41 44.275 1273.96 44.1848 1270.59 44.1848C1267.22 44.1848 1265.92 44.2783 1267.69 44.3885ZM1264.27 46.6197L1264.19 48.4266L1118.76 48.5702L973.333 48.7105L1118.78 48.8474C1244.35 48.9677 1264.27 48.8775 1264.53 48.1928C1264.7 47.7553 1264.72 46.8167 1264.59 46.1053C1264.4 45.12 1264.32 45.2436 1264.27 46.6197ZM695.555 47.8722L691.103 48.2262L695.381 48.3264C697.753 48.3832 699.817 48.1828 700.007 47.8722C700.198 47.5682 700.274 47.3611 700.181 47.4179C700.087 47.4747 698.003 47.6784 695.555 47.8722ZM382.794 48.5702C382.938 48.7973 437.38 48.9877 503.782 48.9877H624.51L624.737 50.5174C624.951 51.9603 624.961 51.9536 624.911 50.3772L624.857 48.7072L503.699 48.4299C437.059 48.2763 382.654 48.3398 382.794 48.5702ZM660.695 48.5869C660.966 48.8541 661.905 48.9844 662.783 48.8742C664.256 48.6905 664.216 48.6504 662.295 48.3865C661.1 48.2195 660.415 48.3064 660.695 48.5869ZM671.904 48.3631C670.184 48.6704 669.927 48.941 669.63 50.7713C669.446 51.9069 669.506 52.7051 669.76 52.5482C670.017 52.3912 670.228 51.5228 670.228 50.6243C670.228 49.1848 670.425 48.9877 671.864 48.9877C672.763 48.9877 673.655 48.7372 673.845 48.4299C674.035 48.1227 674.112 47.9056 674.019 47.9456C673.922 47.9857 672.973 48.1761 671.904 48.3631ZM830.267 48.4299L709.473 48.7105L830.097 48.8508C910.06 48.941 950.838 48.7973 951.065 48.4299C951.255 48.1227 951.332 47.9356 951.239 48.0091C951.142 48.0859 896.706 48.2763 830.267 48.4299ZM378.672 50.788C378.796 52.4045 379.027 52.6283 380.877 52.9256C382.009 53.1059 382.811 53.0492 382.65 52.792C382.493 52.5348 381.645 52.3277 380.763 52.3277C379.424 52.3277 379.11 52.0538 378.846 50.6577C378.536 49.0011 378.536 49.0044 378.672 50.788ZM690.899 50.484C690.829 52.1574 690.682 52.2743 688.457 52.4747L686.093 52.6884L688.474 52.7853C691.053 52.8922 691.657 52.2776 691.223 49.9997C691.029 48.9977 690.959 49.108 690.899 50.484ZM497.216 52.9957C496.848 53.3631 496.548 54.3584 496.548 55.2068V56.7499L488.335 56.9269L480.125 57.1073L488.475 57.0805L496.825 57.0572L497.102 55.1099L497.383 53.1627L543.585 52.8788L589.787 52.5949L543.835 52.4613C508.685 52.3578 497.727 52.4847 497.216 52.9957ZM665.151 53.0391C665.418 53.3063 666.357 53.4366 667.235 53.3264C668.708 53.1427 668.668 53.1059 666.747 52.8387C665.552 52.6751 664.87 52.7586 665.151 53.0391ZM767.505 52.7452C780.134 52.8287 800.798 52.8287 813.43 52.7452C826.059 52.6617 815.725 52.5916 790.468 52.5916C765.207 52.5916 754.873 52.6617 767.505 52.7452ZM371.435 53.2663C371.972 53.4065 372.848 53.4065 373.385 53.2663C373.92 53.126 373.482 53.0124 372.41 53.0124C371.338 53.0124 370.9 53.126 371.435 53.2663ZM590.218 55.1099C590.218 56.486 590.328 57.0505 590.459 56.3624C590.592 55.6744 590.592 54.5455 590.459 53.8574C590.328 53.1694 590.218 53.7305 590.218 55.1099ZM629.59 53.3865L633.765 53.7172L633.939 55.5274C634.036 56.5228 634.309 57.3377 634.547 57.3377C634.787 57.3377 634.83 56.3958 634.643 55.2502L634.306 53.1627L629.861 53.1093L625.415 53.0592L629.59 53.3865ZM682.289 53.2529C682.085 53.46 681.918 54.3417 681.918 55.2202V56.8133L666.607 56.6564C658.187 56.5729 651.3 56.6931 651.3 56.9269C651.3 57.164 658.24 57.2876 666.724 57.2075L682.148 57.0572L682.546 55.1133C682.963 53.0725 682.903 52.6383 682.289 53.2529ZM700.288 53.2997C700.288 53.5301 701.6 53.647 703.21 53.5602C708.471 53.2729 708.992 53.0525 704.6 52.9657C702.228 52.9222 700.288 53.0725 700.288 53.2997ZM960.25 53.3431C960.25 53.5969 961.001 53.6938 961.92 53.5602C962.838 53.4232 963.59 53.2162 963.59 53.0993C963.59 52.979 962.838 52.8822 961.92 52.8822C961.001 52.8822 960.25 53.0892 960.25 53.3431ZM383.682 57.164C384.217 57.3043 385.095 57.3043 385.63 57.164C386.167 57.0238 385.727 56.9102 384.658 56.9102C383.586 56.9102 383.148 57.0238 383.682 57.164ZM845.297 57.3143L854.205 57.6149L854.482 59.5622L854.763 61.5127L867.705 61.5261L880.648 61.5428L867.842 61.3791L855.04 61.2121V59.6657C855.04 56.9436 854.419 56.7699 845.047 56.8968L836.393 57.0137L845.297 57.3143ZM948.142 57.164C948.677 57.3043 949.555 57.3043 950.09 57.164C950.627 57.0238 950.187 56.9102 949.118 56.9102C948.046 56.9102 947.608 57.0238 948.142 57.164ZM958.022 57.2709C956.309 57.5749 956.042 57.8487 955.798 59.5622C955.541 61.3457 955.327 61.5394 953.293 61.8501L951.065 62.1874L953.042 62.2676C955.404 62.3611 956.352 61.5561 956.352 59.4519C956.352 58.0992 956.569 57.8922 957.989 57.8922C958.891 57.8922 959.782 57.6417 959.973 57.3377C960.16 57.0304 960.237 56.8133 960.143 56.8534C960.05 56.8935 959.094 57.0805 958.022 57.2709ZM375.332 57.7218C375.867 57.8588 376.745 57.8588 377.28 57.7218C377.817 57.5815 377.377 57.4646 376.308 57.4646C375.236 57.4646 374.798 57.5815 375.332 57.7218ZM387.022 59.2849C387.029 60.5107 387.143 60.9449 387.276 60.2535C387.41 59.5588 387.407 58.5568 387.266 58.0258C387.126 57.4947 387.019 58.0592 387.022 59.2849ZM524.003 57.7552C533.745 57.8387 549.527 57.8387 559.073 57.7552C568.618 57.6684 560.646 57.5982 541.357 57.5982C522.069 57.5982 514.26 57.6684 524.003 57.7552ZM594.904 57.7352L598.905 57.9423L599.079 59.7258L599.253 61.5127L603.428 61.5528L607.603 61.5962L603.598 61.3925L599.597 61.1854L599.423 59.4018L599.253 57.6149L595.078 57.5715L590.903 57.5314L594.904 57.7352ZM639.476 57.7318C640.171 57.8621 641.173 57.8588 641.704 57.7185C642.235 57.5782 641.671 57.4713 640.445 57.478C639.219 57.4847 638.785 57.5982 639.476 57.7318ZM691.597 58.1326C691.43 58.5668 691.403 59.5087 691.537 60.2201C691.731 61.2221 691.801 61.1119 691.861 59.7358C691.931 58.0625 692.078 57.9456 694.302 57.7452L696.667 57.5314L694.286 57.4346C692.663 57.3678 691.804 57.5916 691.597 58.1326ZM735.445 59.4252C735.531 61.4459 735.541 61.4559 735.759 59.7258L735.979 57.9423L739.984 57.7485L743.985 57.5582L739.67 57.4479L735.358 57.3377L735.445 59.4252ZM792.382 57.7519L827.141 57.9022L827.311 59.9863L827.485 62.0672L833.888 62.3477L840.287 62.6249L840.631 64.5722C840.975 66.506 840.979 66.5094 841.049 64.8227C841.166 62.1139 840.394 61.7899 833.808 61.7899H827.829L827.659 59.7024L827.485 57.6149L792.555 57.6083L757.622 57.6016L792.382 57.7519ZM576.795 59.7024L576.708 61.7899H579.687C581.327 61.7899 584.27 61.9035 586.227 62.0404C589.66 62.2809 589.687 62.2742 587.005 61.81C585.475 61.5461 582.673 61.309 580.779 61.2823L577.332 61.2322L577.109 59.4252C576.888 57.6417 576.885 57.6483 576.795 59.7024ZM378.856 61.8634C379.02 62.1273 379.751 62.3477 380.479 62.3477C381.498 62.3477 381.856 62.7018 382.029 63.8774C382.246 65.3504 382.253 65.347 382.203 63.7572C382.159 62.3611 381.876 62.0505 380.356 61.7432C379.367 61.5428 378.693 61.5962 378.856 61.8634ZM391.598 61.6363C393.746 61.7532 395.693 62.144 395.957 62.5147C396.291 62.9857 396.364 62.9356 396.204 62.3477C396.03 61.7064 395.022 61.5027 391.849 61.4693L387.717 61.4225L391.598 61.6363ZM460.255 61.6497C464.023 61.7465 470.035 61.7465 473.615 61.6497C477.196 61.5528 474.113 61.4726 466.765 61.4726C459.417 61.4726 456.488 61.5528 460.255 61.6497ZM499.888 61.7899L493.485 62.1239L499.714 62.2342C503.391 62.301 506.087 62.1173 506.287 61.7899C506.478 61.4827 506.554 61.2823 506.461 61.3457C506.367 61.4058 503.408 61.6062 499.888 61.7899ZM642.836 61.9002C643.054 62.1139 647.038 62.3644 651.691 62.4579C656.347 62.5481 659.977 62.4513 659.764 62.2375C659.546 62.0237 655.562 61.7732 650.909 61.6797C646.253 61.5862 642.623 61.6864 642.836 61.9002ZM726.116 62.0137C725.949 62.4446 725.919 63.6336 726.043 64.659C726.253 66.3557 726.28 66.3123 726.36 64.178L726.45 61.8367L730.765 61.6463L735.077 61.4559L730.745 61.3457C727.462 61.2589 726.343 61.4225 726.116 62.0137ZM747.048 61.7332C744.63 62.0571 744.536 62.1406 744.369 64.1313L744.199 66.1987L740.054 66.3958L735.909 66.5962L740.224 66.5595L744.543 66.5227L744.713 64.482L744.88 62.4412L749.723 62.0872C756.891 61.5662 757.789 61.3992 753.447 61.3992C751.306 61.3992 748.424 61.5495 747.048 61.7332ZM938.353 61.6029C938.149 61.81 937.986 62.2475 937.992 62.5782C937.996 62.9589 938.156 62.9356 938.423 62.5147C938.657 62.1507 940.47 61.7599 942.451 61.6497L946.055 61.4493L942.391 61.339C940.374 61.2823 938.56 61.3992 938.353 61.6029ZM678.464 62.2041C681.006 62.3076 685.014 62.3076 687.372 62.2041C689.73 62.1006 687.649 62.0137 682.753 62.0137C677.853 62.0171 675.922 62.1006 678.464 62.2041ZM453.268 64.2949C453.275 65.5207 453.388 65.9549 453.522 65.2635C453.652 64.5688 453.649 63.5668 453.509 63.0358C453.368 62.5047 453.261 63.0692 453.268 64.2949ZM607.462 64.2949C607.469 65.5207 607.583 65.9549 607.716 65.2635C607.85 64.5688 607.847 63.5668 607.706 63.0358C607.566 62.5047 607.459 63.0692 607.462 64.2949ZM589.64 64.5722C589.64 65.6443 589.754 66.0818 589.894 65.5474C590.034 65.013 590.034 64.1346 589.894 63.6002C589.754 63.0625 589.64 63.5 589.64 64.5722ZM384.795 66.6496C385.944 66.7699 387.824 66.7699 388.97 66.6496C390.119 66.5294 389.18 66.4292 386.882 66.4292C384.588 66.4292 383.649 66.5294 384.795 66.6496ZM422.39 66.653C424.006 66.7665 426.511 66.7665 427.958 66.653C429.4 66.5361 428.078 66.4459 425.015 66.4459C421.952 66.4492 420.773 66.5428 422.39 66.653ZM471.311 66.6129C471.107 66.82 470.94 67.6884 470.94 68.5501V70.1166L460.362 70.2869L449.784 70.4539L460.502 70.4372L471.217 70.4172L471.391 68.6202L471.565 66.8233L482.526 66.6597L493.485 66.496L482.583 66.3691C476.588 66.2989 471.514 66.4092 471.311 66.6129ZM592.432 66.6496C593.581 66.7699 595.459 66.7699 596.607 66.6496C597.756 66.5294 596.818 66.4292 594.52 66.4292C592.225 66.4292 591.284 66.5294 592.432 66.6496ZM678.511 68.0357C678.768 69.5822 678.845 69.659 679.022 68.5434C679.136 67.822 678.999 67.0003 678.718 66.7198C678.407 66.4092 678.327 66.9302 678.511 68.0357ZM716.941 68.0524C716.777 69.2482 716.861 69.9295 717.141 69.649C717.412 69.3818 717.542 68.4432 717.432 67.5648C717.248 66.0919 717.208 66.1319 716.941 68.0524ZM852.084 66.653L862.765 66.8233L863.009 68.6202C863.253 70.3971 863.256 70.3938 863.183 68.4699L863.113 66.5227L852.258 66.5027L841.403 66.4826L852.084 66.653ZM906.413 66.6563C908.186 66.7665 910.942 66.7665 912.535 66.653C914.131 66.5394 912.682 66.4492 909.315 66.4526C905.948 66.4526 904.642 66.5461 906.413 66.6563ZM944.539 66.653C945.848 66.7699 947.852 66.7665 948.991 66.6463C950.133 66.5294 949.061 66.4325 946.613 66.4325C944.161 66.4359 943.229 66.5327 944.539 66.653ZM599.102 68.4699C599.102 69.5421 599.216 69.9796 599.356 69.4452C599.497 68.9075 599.497 68.0324 599.356 67.4947C599.216 66.9603 599.102 67.3978 599.102 68.4699ZM616.23 68.4699C616.23 69.3884 616.437 70.1399 616.691 70.1399C616.945 70.1399 617.042 69.3884 616.905 68.4699C616.771 67.5514 616.564 66.7999 616.444 66.7999C616.327 66.7999 616.23 67.5514 616.23 68.4699ZM391.699 70.2802C391.842 70.5073 394.825 70.6977 398.328 70.6977H404.698V72.2542C404.698 75.1767 404.497 75.1499 426.752 75.1499C450.068 75.1499 449.263 75.2468 449.14 72.4479C449.056 70.5174 449.04 70.504 448.833 72.1406L448.615 73.8607L436.364 74.2181C429.624 74.4118 419.881 74.4151 414.711 74.2181L405.312 73.864L405.142 72.1406L404.975 70.4172L398.208 70.1399C394.484 69.9863 391.555 70.0498 391.699 70.2802ZM935.758 70.1132L929.355 70.4172L929.188 72.1406L929.018 73.864L919.445 74.2248C914.181 74.4252 904.435 74.4252 897.792 74.2248L885.715 73.8607L885.548 72.1406L885.377 70.4172L874.662 70.4005L863.944 70.3804L874.489 70.5508L885.033 70.7211L885.207 72.7952L885.377 74.8727L905.698 75.033C929.786 75.2234 929.632 75.2368 929.632 72.6182V70.6977H935.724C939.185 70.6977 941.964 70.4572 942.157 70.1399C942.348 69.8327 942.424 69.6323 942.331 69.6957C942.237 69.7558 939.278 69.9429 935.758 70.1132ZM606.895 71.8099C606.895 72.8821 607.012 73.3196 607.152 72.7852C607.289 72.2475 607.289 71.3724 607.152 70.8347C607.012 70.3003 606.895 70.7378 606.895 71.8099ZM646.661 70.5107C646.457 70.7144 646.29 71.7164 646.29 72.7385V74.5922L641.14 74.5387C638.307 74.5053 633.561 74.3183 630.592 74.1212C627.619 73.9208 625.368 73.9342 625.585 74.1513C625.802 74.3684 630.609 74.6189 636.27 74.7091L646.557 74.8727L646.878 72.5047C647.055 71.2054 647.162 70.1399 647.115 70.1399C647.072 70.1399 646.864 70.3069 646.661 70.5107ZM664.242 70.5508C666.003 70.661 668.885 70.661 670.645 70.5508C672.405 70.4405 670.963 70.3504 667.442 70.3504C663.922 70.3504 662.482 70.4405 664.242 70.5508ZM726.58 72.3677C726.58 73.4399 726.694 73.8774 726.834 73.3397C726.974 72.8053 726.974 71.9268 726.834 71.3924C726.694 70.858 726.58 71.2956 726.58 72.3677ZM658.538 74.5922L656.587 75.003L658.364 75.0765C659.343 75.1165 660.295 74.8994 660.485 74.5922C660.675 74.2882 660.752 74.0711 660.659 74.1112C660.562 74.1513 659.607 74.3684 658.538 74.5922ZM673.965 74.6456C674.206 74.8761 675.154 75.1466 676.073 75.2468C677.492 75.4004 677.793 75.7177 678.087 77.3777L678.431 79.3249L678.504 77.5848C678.544 76.6262 678.264 75.5942 677.88 75.2869C677.068 74.6389 673.324 74.0244 673.965 74.6456ZM687.295 74.7324C687.602 75.2368 696.357 75.1767 703.628 74.6189C707.85 74.2982 706.711 74.2248 697.98 74.2648C691.964 74.2916 687.158 74.502 687.295 74.7324ZM608.02 74.9763C608.555 75.1165 609.433 75.1165 609.967 74.9763C610.502 74.836 610.064 74.7224 608.992 74.7224C607.92 74.7224 607.483 74.836 608.02 74.9763ZM722.355 75.0197C722.208 75.2568 723.07 75.3537 724.269 75.2401C725.468 75.1266 726.45 74.9328 726.45 74.8126C726.45 74.3984 722.619 74.5922 722.355 75.0197ZM611.36 77.0972C611.367 78.3229 611.481 78.7571 611.614 78.0658C611.748 77.3744 611.741 76.3724 611.604 75.838C611.464 75.3069 611.354 75.8747 611.36 77.0972ZM713.731 81.2722L713.648 83.2227H700.064C692.592 83.2227 686.594 83.4098 686.734 83.6402C686.878 83.8673 692.997 84.0577 700.338 84.0577C714.844 84.0577 714.533 84.1279 714.049 80.9014C713.838 79.4819 713.805 79.5187 713.731 81.2722ZM621.04 83.6235C621.38 84.1813 646.697 84.1947 647.038 83.6402C647.178 83.4098 641.327 83.216 634.032 83.206C626.738 83.1993 620.893 83.3864 621.04 83.6235Z" fill="#F7F0DD"/>
<path fill-rule="evenodd" clip-rule="evenodd" d="M10.5443 4.76277C11.7902 4.99991 12.2344 5.43411 12.4047 6.57305C12.6085 7.92575 12.6252 7.90905 12.5784 6.40271C12.5316 4.92977 12.3112 4.71601 10.7147 4.59243C8.99123 4.45883 8.98455 4.46885 10.5443 4.76277ZM664.894 5.20699C664.72 5.65789 664.683 6.74005 664.814 7.60845C665.011 8.93443 665.064 8.85427 665.134 7.09743C665.258 3.95115 669.112 3.81755 669.112 6.95715C669.112 8.02929 669.326 8.90771 669.583 8.90771C669.84 8.90771 669.9 7.96583 669.713 6.82021C669.343 4.51561 665.635 3.27313 664.894 5.20699ZM1321.2 5.20699C1321.03 5.65789 1320.99 6.74005 1321.12 7.60845C1321.32 8.93443 1321.37 8.85427 1321.44 7.09743C1321.52 5.09009 1321.6 5.00993 1323.52 5.00993H1325.51L1325.33 9.15821C1325.23 11.4428 1325.35 13.1094 1325.59 12.8623C1325.83 12.6151 1325.96 10.6846 1325.87 8.57371L1325.7 4.73271L1323.61 4.55903C1322.16 4.43879 1321.42 4.63585 1321.2 5.20699ZM16.6165 11.4361C16.7233 12.8021 17.0373 13.9177 17.3112 13.9177C17.5884 13.9177 17.8122 14.6692 17.8122 15.5877C17.8122 17.0707 17.9992 17.2577 19.4822 17.2577C20.9685 17.2577 21.1522 17.0707 21.1522 15.5877C21.1522 14.0079 21.2758 13.9177 23.38 13.9177H25.6077V16.1422C25.6077 18.3031 25.551 18.3699 23.7173 18.3699C21.9337 18.3699 21.8168 18.4902 21.6265 20.4875L21.4227 22.6051L23.3766 22.2911C25.0466 22.0205 25.3539 21.7333 25.5109 20.3105C25.6111 19.3953 25.8816 18.4501 26.1154 18.2096C26.3492 17.9691 26.3826 16.8436 26.1956 15.7046L25.8516 13.6372H21.6933H17.535L17.3546 11.6899C17.2577 10.6178 17.0072 9.56569 16.7968 9.34859C16.5897 9.13483 16.5062 10.0734 16.6165 11.4361ZM78.9409 11.2157C78.7772 13.5002 78.6636 13.6472 76.9602 13.8142C75.3804 13.9645 75.15 14.1916 75.15 15.5744C75.15 16.4494 74.9629 17.2677 74.7325 17.398C74.502 17.5249 74.649 17.5449 75.0564 17.4447C75.4639 17.3412 76.5027 17.2577 77.3644 17.2577C78.8674 17.2577 80.6175 10.2938 79.4185 9.09475C79.2515 8.92775 79.0377 9.88299 78.9409 11.2157ZM660.208 11.0987C660.208 13.2297 660.148 13.2965 658.127 13.4668C656.19 13.6271 653.989 17.8122 655.842 17.8122C656.1 17.8122 656.31 16.9504 656.31 15.8983C656.31 14.0881 656.424 13.9745 658.397 13.8108C660.341 13.6505 662.532 8.90771 660.662 8.90771C660.411 8.90771 660.208 9.89301 660.208 11.0987ZM673.791 11.2691C673.845 13.5937 673.885 13.6405 675.932 13.8108C677.823 13.9678 678.02 14.1348 678.02 15.5877C678.02 16.4695 678.23 17.3212 678.484 17.4781C678.741 17.6351 678.802 16.8369 678.618 15.7013C678.311 13.7975 678.127 13.6238 676.236 13.4668C674.293 13.3065 674.172 13.1829 673.959 11.0987L673.735 8.89769L673.791 11.2691ZM1254.81 10.9618C1254.76 12.2444 1254.98 13.4501 1255.28 13.6372C1255.59 13.8275 1255.84 14.6926 1255.84 15.5576C1255.84 16.9237 1256.08 17.1642 1257.66 17.3479C1259.42 17.5516 1259.48 17.4982 1259.27 15.7681C1259.09 14.2217 1258.83 13.9544 1257.31 13.8075C1255.69 13.6505 1255.54 13.4501 1255.23 11.1321L1254.89 8.62715L1254.81 10.9618ZM1316.66 10.8549C1316.66 12.0807 1316.78 12.5149 1316.91 11.8235C1317.04 11.1288 1317.04 10.1268 1316.9 9.59575C1316.76 9.06469 1316.65 9.62915 1316.66 10.8549ZM83.9909 13.5169C84.2581 13.7841 85.1967 13.9144 86.0751 13.8041C87.548 13.6204 87.508 13.5804 85.5875 13.3165C84.3917 13.1495 83.7104 13.2363 83.9909 13.5169ZM1248.33 13.2998C1246.23 13.6171 1246.09 13.7507 1246.05 15.5877C1246 17.5282 1246 17.5283 1246.22 15.7247C1246.42 14.0847 1246.62 13.9177 1248.33 13.9177C1249.36 13.9177 1250.36 13.6672 1250.55 13.3599C1250.74 13.0526 1250.82 12.8389 1250.72 12.8823C1250.63 12.9257 1249.55 13.1128 1248.33 13.2998ZM393.98 13.7607C392.109 13.9611 391.892 14.1482 391.892 15.5744C391.892 16.4494 391.705 17.2677 391.475 17.398C391.248 17.5249 391.391 17.5449 391.799 17.4447C392.206 17.3412 393.272 17.2577 394.167 17.2577C395.6 17.2577 395.79 17.0606 395.79 15.5877V13.9177H408.873H421.952V15.5777V17.2377L409.01 17.3846L396.067 17.5349L395.757 19.8696C395.586 21.1522 395.65 22.0773 395.897 21.9237C396.144 21.7701 396.348 20.7881 396.348 19.7393V17.8322L409.29 17.6852L422.233 17.5349V15.5877V13.6372L409.15 13.587C401.956 13.5603 395.129 13.6371 393.98 13.7607ZM911.633 13.7307C911.429 13.9344 911.262 14.9364 911.262 15.9584V17.8122H924.589H937.912L938.136 19.6224C938.353 21.3526 938.366 21.3392 938.45 19.2817C938.537 17.1976 938.594 17.1408 940.36 17.3479C943.724 17.7387 942.628 14.1716 939.245 13.7073C935.848 13.2397 912.104 13.2631 911.633 13.7307ZM1308.48 14.048C1307.93 15.7981 1307.81 17.8122 1308.24 17.8122C1308.51 17.8122 1308.72 16.9371 1308.72 15.8649C1308.72 14.0079 1308.82 13.9177 1310.67 13.9177C1312.47 13.9177 1312.62 14.048 1312.62 15.5877C1312.62 18.2096 1315.74 18.0827 1316.04 15.4474L1316.25 13.6372L1312.47 13.4902C1309.81 13.3866 1308.63 13.5503 1308.48 14.048ZM665.218 15.5877C665.218 17.1241 665.371 17.2577 667.165 17.2577C668.959 17.2577 669.112 17.1241 669.112 15.5877C669.112 14.048 668.959 13.9177 667.165 13.9177C665.371 13.9177 665.218 14.048 665.218 15.5877ZM938.54 15.5877V17.2577H925.18H911.82V15.5877V13.9177H925.18H938.54V15.5877ZM1321.05 15.4474C1320.97 17.1742 1320.87 17.2577 1318.74 17.2577C1317.52 17.2577 1316.52 17.4514 1316.52 17.6886C1316.52 18.42 1321.04 17.7353 1321.33 16.9571C1321.49 16.553 1321.5 15.6411 1321.37 14.9297C1321.18 13.9478 1321.1 14.0713 1321.05 15.4474ZM14.6125 17.6619C16.6332 17.8723 16.7 17.9491 16.7 20.0733C16.7 21.2791 16.8903 22.2677 17.1208 22.2677C17.3546 22.2677 17.4548 21.1388 17.3446 19.7627L17.1442 17.2577L14.8362 17.3512L12.525 17.4447L14.6125 17.6619ZM383.358 18.1829C381.972 19.5723 383.035 22.1542 385.075 22.3479L387.163 22.5483V20.1802C387.163 17.8689 384.875 16.6699 383.358 18.1829ZM422.881 18.1829C421.485 19.579 422.56 22.1542 424.621 22.3512C426.645 22.5449 426.722 22.4915 426.505 21.0119C426.381 20.1669 426.588 19.098 426.969 18.6438C427.69 17.7721 423.739 17.3278 422.881 18.1829ZM431.01 20.0399C431.01 21.416 431.12 21.9805 431.254 21.2924C431.384 20.6044 431.384 19.4755 431.254 18.7874C431.12 18.0994 431.01 18.6605 431.01 20.0399ZM647.218 18.1829C647.015 18.39 646.848 19.3786 646.848 20.3873V22.2176L642.81 22.3813L638.775 22.5449L638.605 24.6091L638.431 26.6732L634.149 26.8368L629.867 26.9972L629.817 28.9477C629.77 30.8381 629.774 30.8448 629.991 29.108L630.211 27.3211L634.493 27.1608L638.775 26.9972L638.945 24.933L639.119 22.8723L643.12 22.7086L647.125 22.5449L647.442 20.1802C647.616 18.8776 647.719 17.8122 647.673 17.8122C647.626 17.8122 647.422 17.9791 647.218 18.1829ZM902.358 19.7627C902.358 20.8315 902.455 21.7099 902.575 21.7099C902.695 21.7099 902.896 20.8315 903.019 19.7627C903.143 18.6906 903.046 17.8122 902.802 17.8122C902.558 17.8122 902.358 18.6906 902.358 19.7627ZM907.074 20.1869C907.087 22.5316 907.111 22.5616 908.877 22.3579C912.124 21.9805 912.091 17.8122 908.844 17.8122C907.111 17.8122 907.061 17.8823 907.074 20.1869ZM946.78 18.4802C947.147 18.8476 947.448 19.8262 947.448 20.6512C947.448 22.1041 947.578 22.1675 951.342 22.5449L955.24 22.9357V24.7694C955.24 26.6865 955.951 27.2777 958.269 27.2777C959.779 27.2777 960.237 29.8161 960.247 38.2362L960.25 43.3498L962.06 43.5235L963.867 43.6972L964.031 47.9757L964.191 52.2542L962.361 52.478C960.571 52.6984 960.581 52.7085 962.668 52.7953L964.806 52.8822L964.408 42.4447C963.957 30.6478 964.074 31.1722 961.92 31.1722C960.47 31.1722 960.3 30.9751 960.143 29.0847C959.986 27.1675 959.813 26.9771 958.022 26.7199C956.292 26.4728 956.045 26.2256 955.798 24.4922C955.541 22.6986 955.344 22.5215 953.293 22.2677C951.179 22.0038 951.055 21.8803 950.891 19.8997C950.724 17.8522 950.678 17.8122 948.416 17.8122C946.623 17.8122 946.259 17.9625 946.78 18.4802ZM1268.21 19.4822C1268.21 20.5543 1268.33 20.9918 1268.47 20.4574C1268.61 19.923 1268.61 19.0446 1268.47 18.5102C1268.33 17.9725 1268.21 18.4134 1268.21 19.4822ZM1299.63 18.1829C1299.43 18.39 1299.26 19.392 1299.26 20.4107V22.2677L1289.93 22.4047C1284.81 22.4815 1278.11 22.5316 1275.05 22.5149C1271.98 22.5015 1270.29 22.5783 1271.29 22.6919C1272.87 22.8689 1273.1 23.096 1273.1 24.5289V26.1622H1276.99H1280.89V24.5055V22.8489L1290.22 22.6986L1299.54 22.5449L1299.85 20.1802C1300.03 18.8776 1300.13 17.8122 1300.09 17.8122C1300.04 17.8122 1299.83 17.9791 1299.63 18.1829ZM79.6022 20.3172C79.6022 22.1107 79.7358 22.2677 81.2722 22.2677C82.8119 22.2677 82.9422 22.1107 82.9422 20.3172C82.9422 18.5236 82.8119 18.3699 81.2722 18.3699C79.7358 18.3699 79.6022 18.5236 79.6022 20.3172ZM661.32 19.5189C661.32 22.5282 660.642 22.8222 653.785 22.8222H647.402V24.4922V26.1622H656.033H664.66V22.2677V18.3699H662.99C661.674 18.3699 661.32 18.6138 661.32 19.5189ZM670.228 22.2677V26.1622H678.297H686.37V24.5122V22.8589L680.107 22.7019L673.845 22.5449L673.671 20.4574C673.514 18.557 673.351 18.3699 671.864 18.3699H670.228V22.2677ZM686.58 20.3172L686.647 22.5449L690.962 22.7086L695.278 22.8689V24.7961C695.278 25.8549 695.488 26.7199 695.745 26.7199C696.003 26.7199 696.063 25.7814 695.876 24.6324L695.538 22.5449L691.266 22.3813L686.991 22.221L686.754 20.1568L686.517 18.0927L686.58 20.3172ZM1251.04 19.1715C1250.39 20.8749 1251.08 21.9872 1252.79 21.9872C1254.25 21.9872 1254.47 21.7767 1254.62 20.1802C1254.81 18.2029 1251.75 17.3412 1251.04 19.1715ZM1308.72 20.2804C1308.72 22.1174 1308.85 22.2677 1310.39 22.2677C1311.93 22.2677 1312.06 22.4214 1312.06 24.2149C1312.06 26.072 1311.97 26.1622 1310.12 26.1622C1308.32 26.1622 1308.17 26.0319 1308.17 24.4922V22.8222H1303.99H1299.82V24.4922V26.1622H1304.05H1308.28L1308.08 28.6137C1307.98 29.9631 1308.08 30.9517 1308.3 30.8081C1308.54 30.6678 1308.72 29.6892 1308.72 28.6338C1308.72 26.8736 1308.86 26.7199 1310.41 26.7199C1312.55 26.7199 1312.87 25.8682 1312.27 21.8435C1311.65 17.7687 1308.72 16.4762 1308.72 20.2804ZM92.194 22.3713C92.3476 22.6218 93.3329 22.8222 94.3884 22.8222C96.2053 22.8222 96.3022 22.9224 96.3022 24.7594C96.3022 26.9604 96.7431 27.1675 101.87 27.4113C104.893 27.5516 104.936 27.5817 105.297 29.5022L105.661 31.4527L105.574 29.2249L105.487 26.9972L101.312 26.7199L97.1372 26.4427L96.86 24.4922C96.6028 22.6852 96.4124 22.5216 94.2481 22.2343C92.9655 22.0606 92.0403 22.1241 92.194 22.3713ZM44.1147 22.6752L52.8822 22.8522V24.5055V26.1622H56.78H60.6777V24.5256C60.6777 22.9958 60.8347 22.8756 63.0425 22.7153C64.3451 22.6218 58.6437 22.5349 50.3772 22.5216C42.1107 22.5082 39.2951 22.5783 44.1147 22.6752ZM378.823 22.9624C378.693 23.3465 378.512 24.2851 378.422 25.0499C378.282 26.2189 377.921 26.4694 376.167 26.6131C374.143 26.7834 374.08 26.8535 374.08 28.9444C374.08 30.9718 373.97 31.112 372.27 31.2757L370.463 31.4527L370.306 37.605L370.149 43.7573L372.116 43.5268L374.08 43.2997L374.083 38.2095C374.087 35.4106 374.247 31.8067 374.441 30.2002L374.791 27.2777H376.849H378.91L378.682 37.4347C378.415 49.3451 378.489 48.9877 376.324 48.9877C374.821 48.9877 374.638 49.1681 374.638 50.6577C374.638 52.0505 374.858 52.3277 375.984 52.3277C376.722 52.3277 377.664 52.4546 378.071 52.6116C378.592 52.812 378.819 52.3578 378.833 51.0819C378.846 50.0832 378.91 45.2102 378.973 40.257L379.09 31.2456L380.62 31.072C381.899 30.925 382.196 30.5743 382.43 28.9477C382.684 27.1742 382.908 26.9638 384.935 26.6231L387.163 26.249L384.935 26.4527C383.709 26.5663 381.896 26.8235 380.9 27.0306C379.093 27.4013 379.09 27.398 379.09 25.1501C379.09 23.1194 379.24 22.8756 380.62 22.6652L382.153 22.4347L380.603 22.3512C379.751 22.3045 378.95 22.5783 378.823 22.9624ZM433.535 22.6719C436.064 22.9825 436.087 26.8769 433.562 27.1675C431.09 27.4547 430.943 31.1722 433.402 31.1722C435.075 31.1722 435.179 31.0452 435.516 28.5903C436.297 22.8856 436.124 22.2543 433.782 22.3545L431.695 22.4447L433.535 22.6719ZM898.67 23.0793C897.819 25.2937 899.255 30.8916 900.718 31.0619C902.678 31.2891 902.455 27.448 900.491 27.1675C898.43 26.8736 898.45 22.9791 900.517 22.6685L902.077 22.4347L900.531 22.3512C899.622 22.3011 898.851 22.605 898.67 23.0793ZM946.289 24.3552C946.603 26.2957 946.78 26.4594 948.844 26.7199C950.938 26.9838 951.075 27.1141 951.235 29.0312C951.392 30.935 951.536 31.0753 953.49 31.2623L955.577 31.4594L955.263 29.5088C954.993 27.8388 954.709 27.5282 953.286 27.3746C952.371 27.2744 951.382 26.9604 951.092 26.6765C950.801 26.396 949.736 26.1622 948.727 26.1622C947 26.1622 946.89 26.0486 946.89 24.2149C946.89 23.1428 946.68 22.2677 946.422 22.2677C946.162 22.2677 946.105 23.2062 946.289 24.3552ZM1237.28 22.6385C1237.08 22.8422 1236.91 23.8442 1236.91 24.8629V26.7199H1233.02C1230.87 26.7199 1229.12 26.907 1229.12 27.1374C1229.12 27.3679 1230.98 27.4748 1233.25 27.3746L1237.39 27.1909L1237.57 29.0446L1237.75 30.8949H1241.65H1245.54L1245.72 29.0847L1245.89 27.2777H1241.68H1237.47V25.0833C1237.47 22.9591 1237.54 22.8823 1239.56 22.6719L1241.65 22.4548L1239.65 22.3612C1238.55 22.3078 1237.49 22.4347 1237.28 22.6385ZM26.72 24.4922V26.1622H30.6177H34.5122V24.4922V22.8222H30.6177H26.72V24.4922ZM84.0577 24.4922C84.0577 25.905 84.2715 26.1622 85.4472 26.1622C86.6229 26.1622 86.84 25.905 86.84 24.4922C86.84 23.0827 86.6229 22.8222 85.4472 22.8222C84.2715 22.8222 84.0577 23.0827 84.0577 24.4922ZM1246.93 24.4922C1246.93 25.9785 1247.12 26.1622 1248.6 26.1622C1250.09 26.1622 1250.27 25.9785 1250.27 24.4922C1250.27 23.0092 1250.09 22.8222 1248.6 22.8222C1247.12 22.8222 1246.93 23.0092 1246.93 24.4922ZM21.71 26.3826C21.71 26.5028 22.712 26.6999 23.9377 26.8168C25.1602 26.9337 26.1622 26.8335 26.1622 26.5963C26.1622 26.3592 25.1602 26.1622 23.9377 26.1622C22.712 26.1622 21.71 26.2624 21.71 26.3826ZM700.672 27.1241L704.119 27.3245L704.349 29.255C704.576 31.1755 704.58 31.1722 704.52 29.0913L704.463 26.9972L700.842 26.9604L697.225 26.9237L700.672 27.1241ZM35.6277 29.2249V31.1722H39.5222H43.42V29.2249V27.2777H39.5222H35.6277V29.2249ZM61.8935 29.0847L62.0672 30.8949H65.6877H69.305L69.4786 29.0847L69.6523 27.2777H65.6877H61.7198L61.8935 29.0847ZM88.1659 28.0793C87.3276 30.2703 88.1225 30.8882 91.9936 31.0586L95.7477 31.2256V29.2517V27.2777H92.1105C89.4585 27.2777 88.3931 27.4948 88.1659 28.0793ZM638.812 30.6912C638.598 32.5716 638.641 34.3218 638.905 34.589C639.176 34.8595 639.286 34.2149 639.159 33.1227L638.932 31.1722H642.609H646.29V29.2249V27.2777H642.743H639.196L638.812 30.6912ZM687.031 29.0847L687.205 30.8949L691.24 31.0586L695.278 31.2222V32.9591C695.278 33.9176 695.418 34.5589 695.588 34.3852C695.762 34.2149 695.729 32.5449 695.518 30.6745L695.134 27.2777H690.996H686.858L687.031 29.0847ZM1264.75 29.2249V31.1722H1268.37H1271.98V29.2249V27.2777H1268.37H1264.75V29.2249ZM1291.01 29.0847L1291.19 30.8949L1294.94 31.0586L1298.7 31.2256V29.2517V27.2777H1294.77H1290.84L1291.01 29.0847ZM26.2924 29.5022C26.2924 30.5743 26.406 31.0118 26.5463 30.4774C26.6866 29.943 26.6866 29.0646 26.5463 28.5302C26.406 27.9925 26.2924 28.43 26.2924 29.5022ZM118.527 33.2597C118.79 35.1835 118.83 35.2202 119.014 33.7506C119.124 32.8689 118.994 31.9303 118.727 31.6631C118.446 31.3826 118.36 32.0639 118.527 33.2597ZM1299.34 32.1007C1299.3 32.7653 1299.1 33.7673 1298.9 34.3284C1298.62 35.1133 1298.7 35.2035 1299.22 34.7192C1299.6 34.3752 1299.8 33.3732 1299.66 32.4948C1299.5 31.3659 1299.4 31.2523 1299.34 32.1007ZM44.5322 33.1394V34.5522L50.5175 34.3919C56.2456 34.2416 56.5094 34.1815 56.6798 32.9824C56.8534 31.7466 56.7666 31.7299 50.6945 31.7299H44.5322V33.1394ZM70.6977 33.1227V34.5122H78.7672H86.84V33.1227V31.7299H78.7672H70.6977V33.1227ZM96.86 33.1227C96.86 34.4721 96.9702 34.5122 100.758 34.5122C104.542 34.5122 104.652 34.4721 104.652 33.1227C104.652 31.77 104.542 31.7299 100.758 31.7299C96.9702 31.7299 96.86 31.77 96.86 33.1227ZM647.402 33.1227V34.5122H653.695C660.525 34.5122 661.32 34.8127 661.32 37.4079C661.32 38.7673 661.53 38.9677 662.99 38.9677H664.66V35.3472V31.7299H656.033H647.402V33.1227ZM670.228 35.3472V38.9677H671.864C673.351 38.9677 673.514 38.7773 673.671 36.8802L673.845 34.7927L680.107 34.6357C686.353 34.4787 686.37 34.4721 686.37 33.1027V31.7299H678.297H670.228V35.3472ZM1215.33 33.3999C1215.33 34.4721 1215.45 34.9096 1215.59 34.3752C1215.73 33.8375 1215.73 32.9624 1215.59 32.4247C1215.45 31.8903 1215.33 32.3278 1215.33 33.3999ZM1229.68 33.1227C1229.68 34.462 1229.81 34.5122 1233.3 34.5122C1236.78 34.5122 1236.91 34.462 1236.91 33.1227C1236.91 31.78 1236.78 31.7299 1233.3 31.7299C1229.81 31.7299 1229.68 31.78 1229.68 33.1227ZM1246.93 33.1227V34.5122H1255.28H1263.63V33.1227V31.7299H1255.28H1246.93V33.1227ZM1277.55 33.1227V34.5122H1283.67H1289.8V33.1227V31.7299H1283.67H1277.55V33.1227ZM386.779 37.1574C386.618 39.0746 386.448 39.2683 384.658 39.5222L382.707 39.8027V43.9777V48.1527L503.782 48.4299L624.857 48.7072L625.031 50.7947L625.205 52.8822L629.483 52.7719L633.765 52.6617L629.73 52.4713C625.742 52.2809 625.692 52.2609 625.692 50.7445C625.692 49.8995 625.392 48.9075 625.024 48.5401C624.51 48.0258 596.795 47.8722 503.672 47.8722H382.988V44.0111V40.1467L385.075 39.9731C386.996 39.8161 389.22 35.0699 387.373 35.0699C387.139 35.0699 386.872 36.0085 386.779 37.1574ZM611.637 35.4173C612.022 35.5843 612.332 36.4226 612.332 37.281C612.332 38.6504 612.593 38.8909 614.42 39.2149C618.187 39.8795 625.138 40.3672 625.138 39.963C625.138 39.7459 623.194 39.4954 620.822 39.4086L616.507 39.2449L616.23 37.2977C615.963 35.4206 615.856 35.3438 613.448 35.2336C612.068 35.1701 611.253 35.2536 611.637 35.4173ZM647.058 37.0172L647.125 39.2449L651.3 39.5222C655.455 39.7994 655.475 39.8094 655.655 41.4727C655.756 42.3912 656.019 43.3297 656.24 43.5602C656.464 43.7873 656.537 43.0358 656.403 41.8902C656.1 39.2149 655.689 38.9844 651.193 38.9744L647.469 38.9677L647.232 36.8802L646.991 34.7927L647.058 37.0172ZM686.453 36.8802L686.37 38.9677H682.82C680.645 38.9677 679.055 39.2349 678.715 39.6624C678.013 40.5409 677.512 43.9777 678.083 43.9777C678.317 43.9777 678.588 43.0358 678.681 41.8902L678.855 39.8027L682.639 39.6357C686.727 39.4587 687.182 39.098 686.774 36.3692C686.574 35.0432 686.524 35.1234 686.453 36.8802ZM718.1 36.6731C718.1 38.9009 717.205 39.4353 713.067 39.6791C709.817 39.8729 709.847 39.8795 713.367 39.7526C720.251 39.5021 721.296 39.1447 721.554 36.9637C721.764 35.1468 721.697 35.0699 719.937 35.0699C718.284 35.0699 718.1 35.2302 718.1 36.6731ZM946.295 37.4246C946.599 39.7025 946.7 39.8094 948.7 39.9731L950.788 40.1467V44.0111V47.8722H830.301C764.035 47.8722 709.7 48.0625 709.556 48.2897C709.416 48.5201 763.698 48.5836 830.184 48.4299L951.065 48.1527V43.9777V39.8027L949.118 39.5222C947.441 39.285 947.144 39.0111 946.987 37.5749C946.887 36.6564 946.62 35.7112 946.392 35.4774C946.162 35.2403 946.118 36.1187 946.295 37.4246ZM968.814 35.8715C968.643 36.3124 968.603 37.1274 968.724 37.6818C968.861 38.3097 969.051 38.0091 969.231 36.8802C969.535 34.9831 969.338 34.5088 968.814 35.8715ZM57.3377 37.2977V38.9677H63.46H69.5822V37.2977V35.6277H63.46H57.3377V37.2977ZM88.0557 37.1574C88.2261 38.6404 88.3496 38.6938 91.9902 38.8542L95.7477 39.0178V37.3211V35.6277H91.8132H87.8787L88.0557 37.1574ZM1237.57 37.1574C1237.74 38.6538 1237.84 38.6905 1241.79 38.8508L1245.82 39.0145V37.3211V35.6277H1241.61H1237.4L1237.57 37.1574ZM1264.75 37.2977V38.9677H1270.59H1276.44V37.2977V35.6277H1270.59H1264.75V37.2977ZM43.9744 39.0712C43.9777 39.2817 46.8568 39.5322 50.3805 39.629C53.9009 39.7225 56.7833 39.629 56.78 39.4186C56.78 39.2082 53.8975 38.9577 50.3772 38.8608C46.8568 38.7673 43.9744 38.8608 43.9744 39.0712ZM1283.54 38.8241C1279.94 38.9209 1276.99 39.1815 1276.99 39.4019C1276.99 39.6223 1280 39.7259 1283.67 39.629C1287.36 39.5355 1290.35 39.2215 1290.35 38.9343C1290.35 38.6471 1290.29 38.4634 1290.22 38.5302C1290.14 38.597 1287.13 38.7272 1283.54 38.8241ZM969.201 40.9951C969.144 44.0111 953.593 43.7172 1103.73 43.5502L1236.91 43.4032V41.7433V40.0799H1103.36C997.037 40.0799 969.749 39.9396 969.525 39.3852C969.372 39.0011 969.225 39.7259 969.201 40.9951ZM96.86 41.7499V43.4199H228.513C353.519 43.4199 360.162 43.47 360.172 44.3952C360.179 45.0331 360.323 45.1434 360.593 44.7192C360.82 44.3585 361.882 43.9844 362.951 43.8842C364.691 43.7172 364.912 43.5101 365.069 41.8902L365.242 40.0799H231.051H96.86V41.7499ZM387.44 41.7499V43.4199H499.33H611.22V41.7499V40.0799H499.33H387.44V41.7499ZM665.218 41.7499C665.218 43.2863 665.371 43.4199 667.165 43.4199C668.959 43.4199 669.112 43.2863 669.112 41.7499C669.112 40.2135 668.959 40.0799 667.165 40.0799C665.371 40.0799 665.218 40.2135 665.218 41.7499ZM722.368 40.4507C722.165 40.6544 721.998 41.4059 721.998 42.1207V43.4199H834.165H946.332V41.7499V40.0799H834.536C773.046 40.0799 722.572 40.2469 722.368 40.4507ZM70.0498 46.2489L70.2569 48.4299H215.49C295.366 48.4299 360.72 48.2429 360.72 48.0124C360.72 47.782 295.466 47.6584 215.707 47.7352L70.6977 47.8788V46.2389C70.6977 45.3371 70.504 44.4787 70.2702 44.3351C70.0331 44.1881 69.9362 45.0499 70.0498 46.2489ZM630.034 45.8715C630.288 48.0525 631.337 48.4099 638.217 48.657L642.115 48.7973L638.331 48.5903C636.023 48.4633 634.466 48.1193 634.339 47.7085C634.229 47.3411 633.985 46.3491 633.802 45.5074C633.231 42.9056 629.727 43.2429 630.034 45.8715ZM660.418 45.9249C660.478 47.9523 660.622 48.1561 662.021 48.2195C663.367 48.2796 663.387 48.2563 662.195 48.0458C661.089 47.8521 660.782 47.4079 660.589 45.7512L660.351 43.6972L660.418 45.9249ZM673.651 45.7847C673.574 47.6818 673.424 47.8722 672.008 47.8722C670.031 47.8722 669.112 48.7906 669.112 50.7679C669.112 52.1774 668.928 52.3277 667.165 52.3277C665.308 52.3277 665.218 52.2342 665.218 50.3772C665.218 49.305 665.004 48.4299 664.747 48.4299C664.49 48.4299 664.433 49.3685 664.617 50.5174C665.128 53.647 669.226 53.7606 669.67 50.6577C669.917 48.9276 670.154 48.6871 671.791 48.5301C673.835 48.3364 674.319 47.6116 673.969 45.277C673.771 43.9476 673.721 44.0312 673.651 45.7847ZM700.575 44.6724C700.445 45.0565 700.268 45.9951 700.174 46.7599C700.017 48.0826 699.783 48.1694 695.555 48.49L691.103 48.8307L695.555 48.6737C702.833 48.4232 704.182 48.0358 704.182 46.1888C704.182 45.3304 704.496 44.4988 704.88 44.3451C705.261 44.1915 704.503 44.0445 703.19 44.0211C701.747 43.9944 700.715 44.2516 700.575 44.6724ZM369.862 48.4299L369.905 52.6049L371.962 52.7753C373.886 52.9356 374.033 53.0792 374.237 55.0031L374.454 57.0572L374.407 54.8327C374.361 52.6751 374.294 52.5983 372.293 52.4346L370.232 52.2609L370.025 48.2596L369.821 44.2549L369.862 48.4299ZM955.731 50.2469C955.561 52.2976 955.678 52.8354 956.255 52.6116C956.666 52.4546 957.608 52.3277 958.346 52.3277C959.472 52.3277 959.692 52.0505 959.692 50.6577C959.692 49.1814 959.502 48.9877 958.069 48.9877C957.177 48.9877 956.336 48.6738 956.202 48.2897C956.065 47.9089 955.855 48.7873 955.731 50.2469ZM1046.11 48.2897C1086.15 48.3698 1151.65 48.3698 1191.69 48.2897C1231.72 48.2128 1198.96 48.146 1118.9 48.146C1038.84 48.146 1006.08 48.2128 1046.11 48.2897ZM702.946 52.7352C704.256 52.8521 706.26 52.8521 707.399 52.7319C708.538 52.6116 707.469 52.5147 705.017 52.5181C702.569 52.5181 701.637 52.6183 702.946 52.7352ZM382.263 54.9596C382.694 57.7552 382.988 57.979 382.988 55.5141C382.988 54.4085 382.751 53.3598 382.463 53.1828C382.149 52.989 382.069 53.7071 382.263 54.9596ZM497.409 53.5802C496.912 55.1834 496.738 57.2843 497.122 57.0471C497.349 56.9068 497.64 55.9115 497.764 54.836C497.994 52.8855 497.817 52.2642 497.409 53.5802ZM589.603 54.9362C589.553 56.2221 589.76 57.4245 590.068 57.6149C590.372 57.8053 590.622 58.677 590.622 59.5521C590.622 61.1319 590.659 61.1486 594.66 61.4426C596.878 61.6062 600.636 61.9369 603.01 62.1807C605.382 62.4245 607.322 62.4479 607.322 62.2308C607.322 62.017 605.509 61.7665 603.287 61.6764L599.253 61.5127L599.076 59.7024L598.902 57.8921L595.181 57.8855C590.632 57.8754 590.208 57.6283 589.924 54.826L589.697 52.6049L589.603 54.9362ZM634.55 54.9429C635.064 58.136 638.975 58.5902 638.605 55.4139C638.414 53.7906 638.147 53.4399 637.088 53.4399C636.384 53.4399 635.445 53.303 635.007 53.1326C634.366 52.8888 634.276 53.2462 634.55 54.9429ZM646.651 53.2863C647.005 53.5234 647.379 54.335 647.486 55.0899C647.856 57.6817 651.407 57.7719 651.19 55.1834C651.026 53.2095 650.963 53.1594 648.518 53.0091C647.138 52.9256 646.3 53.0492 646.651 53.2863ZM682.716 54.4152C682.532 55.2569 682.272 56.2856 682.141 56.7031C681.985 57.2074 682.202 57.3477 682.789 57.1206C683.277 56.9336 684.256 56.7799 684.964 56.7799C686.016 56.7799 686.29 56.4292 686.477 54.8327C686.787 52.1574 683.297 51.7666 682.716 54.4152ZM697.803 53.3698C695.184 53.9309 694.653 57.3377 697.185 57.3377C698.157 57.3377 699.252 57.0371 699.62 56.6697C700.345 55.9449 700.552 52.8421 699.87 52.9489C699.64 52.9857 698.711 53.1727 697.803 53.3698ZM744.402 54.8327C744.409 56.0551 744.523 56.4927 744.656 55.798C744.79 55.1066 744.787 54.1046 744.646 53.5735C744.506 53.0391 744.399 53.6069 744.402 54.8327ZM836.252 54.8327C836.259 56.0551 836.373 56.4927 836.506 55.798C836.64 55.1066 836.637 54.1046 836.496 53.5735C836.356 53.0391 836.249 53.6069 836.252 54.8327ZM959.833 54.8327C959.839 56.0551 959.953 56.4927 960.086 55.798C960.22 55.1066 960.217 54.1046 960.076 53.5735C959.936 53.0391 959.829 53.6069 959.833 54.8327ZM950.861 55.494C950.791 57.1273 950.621 57.2843 948.7 57.4412C946.78 57.6016 946.589 57.7719 946.332 59.5621L946.055 61.5127L942.157 61.83L938.263 62.1506L941.696 62.2475C946.259 62.3778 946.89 62.0805 946.89 59.7826C946.89 57.9923 946.994 57.8921 948.857 57.8921C950.981 57.8921 951.589 57.1373 951.185 55.0097C950.995 54.0077 950.921 54.1179 950.861 55.494ZM378.492 59.4185C378.779 61.1954 379.077 61.5461 380.489 61.7899C381.932 62.0371 382.196 62.3677 382.49 64.2983L382.827 66.5227L382.908 64.5454C382.998 62.2742 382.2 61.2321 380.369 61.2321C379.277 61.2321 379.09 60.9482 379.09 59.2849C379.09 58.2128 378.88 57.3377 378.622 57.3377C378.362 57.3377 378.305 58.2729 378.492 59.4185ZM384.24 57.7218C384.775 57.8587 385.653 57.8587 386.187 57.7218C386.722 57.5815 386.284 57.4646 385.212 57.4646C384.143 57.4646 383.703 57.5815 384.24 57.7218ZM479.935 59.4252C480.021 61.4593 480.031 61.4659 480.249 59.7191L480.472 57.9222L488.371 57.7519L496.267 57.5815L488.057 57.4579L479.848 57.3377L479.935 59.4252ZM506.093 59.1279L506.01 61.1954L499.747 61.3557L493.485 61.5127L493.431 63.8808L493.375 66.2522L493.602 64.021L493.826 61.7899H499.934C506.571 61.7899 506.865 61.6463 506.414 58.637C506.214 57.2976 506.164 57.3711 506.093 59.1279ZM576.845 57.7519C577.075 57.8821 577.262 58.677 577.262 59.5254V61.0651L583.214 61.4292C587.008 61.6597 589.326 62.0438 589.61 62.488C589.924 62.9823 590.051 62.9021 590.058 62.2074C590.064 61.4392 589.593 61.2321 587.84 61.2321C585.736 61.2321 585.612 61.142 585.612 59.5621V57.8921H581.761C579.644 57.8921 577.576 57.8086 577.169 57.7051C576.761 57.6049 576.618 57.6249 576.845 57.7519ZM659.266 57.7519C663.494 57.8487 670.258 57.8487 674.296 57.7519C678.334 57.6583 674.874 57.5815 666.607 57.5815C658.341 57.5815 655.037 57.6583 659.266 57.7519ZM739.95 57.7786C735.922 57.9422 735.912 57.9456 735.912 59.5287C735.912 61.4993 735.194 61.7899 730.301 61.7899H726.45L726.543 64.1546C726.637 66.5227 726.637 66.5227 726.854 64.4786L727.068 62.4312L731.353 62.1039C742.659 61.2388 744.262 61.182 744.262 61.6463C744.262 61.9302 745.525 61.9669 747.185 61.7298C748.795 61.5027 751.647 61.2956 753.527 61.2756L756.944 61.2321L757.175 59.2682C757.352 57.7619 757.225 57.3711 756.634 57.5982C756.209 57.7586 754.379 57.8921 752.569 57.8921C749.279 57.8921 749.272 57.8955 749.272 59.5621C749.272 62.2742 744.416 62.1406 744.159 59.4252L743.985 57.6149L739.95 57.7786ZM845.574 57.7452L853.928 57.9222V59.5454C853.928 60.4372 854.135 61.2956 854.392 61.4559C854.649 61.6129 854.706 60.8146 854.522 59.679L854.188 57.6149L845.705 57.5915L837.224 57.5715L845.574 57.7452ZM955.611 57.7084C955.407 57.9122 955.24 58.7739 955.24 59.6223C955.24 60.9716 954.996 61.1954 953.286 61.3958L951.332 61.6296L953.42 61.5695C955.384 61.516 955.524 61.3925 955.841 59.4252C956.199 57.2041 956.189 57.1306 955.611 57.7084ZM642.532 59.7024L642.673 61.5127L651.3 61.7899L659.927 62.0671L660.268 64.2949L660.605 66.5227L660.685 64.2148C660.786 61.2455 660.749 61.2321 651.013 61.2321H643.02L642.706 59.5621C642.399 57.9155 642.396 57.9189 642.532 59.7024ZM387.59 61.8935C387.968 62.1339 390.028 62.3043 392.173 62.2742C396.692 62.2074 396.024 61.9369 390.653 61.6563C388.592 61.5494 387.216 61.6563 387.59 61.8935ZM673.788 62.0137C672.853 64.4519 673.798 66.5194 675.932 66.693C677.713 66.84 678.02 67.0638 678.02 68.1927C678.02 68.9208 678.237 69.6523 678.504 69.8159C678.771 69.9796 678.825 69.3083 678.624 68.3196C678.301 66.7264 678.023 66.5027 676.19 66.349C674.186 66.182 674.122 66.1085 674.122 63.9977V61.8166L682.89 61.6496L691.657 61.4826L682.873 61.3557C675.759 61.2555 674.032 61.3824 673.788 62.0137ZM833.574 61.6496C836.924 61.7498 839.993 62.1005 840.394 62.4345C840.862 62.822 841.122 62.8353 841.122 62.4746C841.122 61.4693 839.479 61.2321 833.423 61.3524L827.485 61.4693L833.574 61.6496ZM453.682 62.2074C453.682 62.4379 457.503 62.5615 462.172 62.4813C478.081 62.2108 479.587 62.017 466.625 61.9035C459.507 61.84 453.682 61.977 453.682 62.2074ZM859.492 62.1774C869.726 62.5748 880.648 62.5882 880.648 62.2074C880.648 61.977 874.946 61.84 867.983 61.9035C861.019 61.9636 857.198 62.0872 859.492 62.1774ZM665.218 64.2949C665.218 66.2388 665.285 66.3056 667.025 66.1386C668.625 65.985 668.835 65.7712 668.835 64.2949C668.835 62.8186 668.625 62.6049 667.025 62.4512C665.285 62.2842 665.218 62.351 665.218 64.2949ZM950.928 64.2949C950.935 65.5207 951.048 65.9549 951.182 65.2635C951.312 64.5688 951.309 63.5668 951.169 63.0357C951.028 62.5047 950.921 63.0691 950.928 64.2949ZM395.92 64.5721C395.92 65.6443 396.034 66.0818 396.174 65.5474C396.314 65.013 396.314 64.1346 396.174 63.6002C396.034 63.0625 395.92 63.5 395.92 64.5721ZM938.059 64.4352L937.982 66.2421L926.433 66.3757C920.08 66.4492 907.491 66.4893 898.46 66.4626C889.429 66.4392 886.72 66.5093 892.441 66.6229L902.842 66.8233L903.016 68.343L903.193 69.8627H909.315H915.437L915.614 68.3296L915.791 66.7999H926.903C938.837 66.7999 938.927 66.7765 938.383 63.9175C938.193 62.9322 938.116 63.0558 938.059 64.4352ZM391.218 67.9121C391.351 68.8306 391.558 69.5821 391.678 69.5821C391.795 69.5821 391.892 68.8306 391.892 67.9121C391.892 66.9936 391.685 66.2421 391.435 66.2421C391.181 66.2421 391.084 66.9936 391.218 67.9121ZM407.62 66.673C417.904 66.8133 418.612 66.8901 418.612 67.8554C418.612 69.7692 419.928 70.19 425.376 70.023L430.583 69.8627L430.756 68.343L430.93 66.8233L442.169 66.673C448.348 66.5895 440.629 66.5227 425.015 66.5227C409.4 66.5227 401.572 66.5895 407.62 66.673ZM598.909 66.6864C599.249 66.7999 599.53 67.6249 599.53 68.5167V70.1399H603.438H607.346L606.978 68.6102C606.774 67.7685 606.584 67.0437 606.551 67.0003C606.517 66.9602 604.643 66.8233 602.386 66.7031C600.131 66.5795 598.565 66.5695 598.909 66.6864ZM609.981 66.653C611.29 66.7699 613.294 66.7665 614.436 66.6463C615.575 66.5294 614.503 66.4325 612.055 66.4325C609.607 66.4359 608.672 66.5327 609.981 66.653ZM655.969 67.0371C655.802 67.4746 655.776 68.4131 655.912 69.1246C656.103 70.1299 656.176 70.023 656.233 68.6436C656.3 67.0805 656.524 66.8433 658.12 66.6463L659.927 66.4225L658.1 66.3323C656.968 66.2755 656.16 66.5427 655.969 67.0371ZM717.619 67.7752C717.682 69.0511 717.736 69.1012 717.933 68.0758C718.147 66.9669 718.564 66.83 722.171 66.6563L726.173 66.4659L721.857 66.3524L717.542 66.2421L717.619 67.7752ZM730.825 66.6563C726.72 66.8701 727.085 66.4425 726.086 72.2274C725.819 73.7705 725.538 74.0377 724.195 74.0377C723.327 74.0377 722.499 74.2281 722.355 74.4652C722.208 74.699 723.057 74.7992 724.239 74.6857C726.266 74.4953 726.4 74.365 726.56 72.4512L726.727 70.4171L729.79 70.2735C734.593 70.0464 735.197 69.7959 735.475 67.9188C735.622 66.9068 735.485 66.2856 735.121 66.3524C734.79 66.4125 732.856 66.5494 730.825 66.6563ZM863.347 68.3296C863.61 70.2535 863.65 70.2902 863.834 68.8206C863.944 67.9389 863.814 67.0003 863.547 66.7331C863.266 66.4526 863.18 67.1339 863.347 68.3296ZM942.01 67.9121C942.01 68.9843 942.124 69.4218 942.264 68.8874C942.404 68.353 942.404 67.4746 942.264 66.9402C942.124 66.4025 942.01 66.84 942.01 67.9121ZM713.367 70.1399L709.473 70.4171L709.192 72.3677L708.915 74.3149L702.235 74.7424C698.561 74.9796 693.678 75.1032 691.38 75.0197L687.205 74.8727L686.868 72.6449C686.403 69.6022 686.296 71.9435 686.731 75.5674L687.081 78.4899H693.367H699.656L699.834 76.9602C700.007 75.4472 700.064 75.4271 704.459 75.2635C706.908 75.1733 709.149 74.8593 709.443 74.5688C709.733 74.2748 711.524 74.0377 713.417 74.0377H716.864L717.125 71.9502C717.268 70.8012 717.358 69.8627 717.325 69.8627C717.292 69.8627 715.511 69.9863 713.367 70.1399ZM405.135 71.9836L405.356 73.864L414.734 74.2181C419.891 74.4151 429.638 74.4118 436.391 74.2147L448.672 73.8607V72.3243C448.672 71.4793 448.986 70.6409 449.37 70.4572C449.751 70.2769 449.44 70.2535 448.672 70.4038C447.907 70.5574 443.853 70.6843 439.664 70.6877L432.046 70.6977L431.872 72.2274L431.695 73.7571L424.875 73.9141L418.058 74.0711V72.3844V70.6977H412.256C409.066 70.6977 406.111 70.5641 405.686 70.4004C405.102 70.1767 404.968 70.5541 405.135 71.9836ZM616.674 72.0237L616.898 73.9542L621.156 74.2815C623.498 74.4619 627.482 74.7491 630.007 74.9228L634.6 75.2301V76.86V78.4899H640.445C646.173 78.4899 646.29 78.4632 646.29 77.2107C646.29 76.506 646.514 75.691 646.791 75.4004C647.065 75.1098 647.382 73.8139 647.499 72.5213C647.613 71.2254 647.532 70.3503 647.319 70.5708C647.102 70.7946 646.844 71.85 646.748 72.9221L646.567 74.8727L642.673 75.023C640.528 75.1032 635.769 74.9796 632.095 74.7424L625.415 74.3149L625.138 72.3677L624.857 70.4171L620.652 70.2568L616.447 70.0965L616.674 72.0237ZM660.208 72.0871C660.208 73.864 660.064 74.0377 658.605 74.0377C657.723 74.0377 656.754 74.3483 656.447 74.7324C655.799 75.5474 655.184 79.2882 655.806 78.6469C656.036 78.4064 656.307 77.4612 656.407 76.5427C656.564 75.1065 656.861 74.8326 658.528 74.5921C660.351 74.3316 662.372 70.1399 660.675 70.1399C660.418 70.1399 660.208 71.015 660.208 72.0871ZM673.778 72.0871C673.838 74.1312 673.982 74.3316 675.515 74.502C676.433 74.6055 677.499 74.9495 677.88 75.2668C678.344 75.6509 678.578 75.6543 678.578 75.2768C678.578 74.5788 677.238 74.0377 675.502 74.0377C674.399 74.0377 674.152 73.7037 673.952 71.9502L673.711 69.8627L673.778 72.0871ZM885.558 72.1406L885.758 73.864L897.815 74.2247C904.445 74.4251 914.171 74.4251 919.422 74.2247L928.974 73.864L929.195 71.9836C929.362 70.5541 929.228 70.1767 928.644 70.4004C928.219 70.5641 925.264 70.6977 922.074 70.6977H916.272V72.3844V74.0711L909.175 73.9141L902.077 73.7571L901.904 72.2541L901.73 70.7511L893.544 70.5841L885.354 70.4171L885.558 72.1406ZM608.157 74.4018C608.772 74.532 609.834 74.7558 610.525 74.9028C611.531 75.1199 611.794 75.5808 611.865 77.2474L611.955 79.3249L612.189 77.4011C612.466 75.1065 611.317 74.0043 608.748 74.1012C607.666 74.1412 607.452 74.2515 608.157 74.4018ZM620.822 80.9949C620.829 82.2207 620.943 82.6549 621.076 81.9635C621.21 81.2688 621.207 80.2668 621.066 79.7357C620.926 79.2047 620.819 79.7691 620.822 80.9949ZM626.063 79.4184C625.859 79.6222 625.692 80.3236 625.692 80.9749C625.692 81.6295 625.455 82.4011 625.164 82.6916C624.83 83.0256 626.561 83.2227 629.857 83.2227C632.756 83.2227 634.724 83.0223 634.283 82.7751C633.845 82.5313 633.488 81.5928 633.488 80.6876V79.0477H629.961C628.023 79.0477 626.27 79.2147 626.063 79.4184ZM646.931 80.8079C646.884 81.9335 646.534 82.9755 646.15 83.1325C645.605 83.3496 645.609 83.4231 646.17 83.4565C647.115 83.5133 647.539 82.2875 647.249 80.347C647.048 78.9876 647.001 79.0544 646.931 80.8079ZM686.577 80.9515C686.624 82.3777 686.938 83.2127 687.482 83.3596C688.053 83.5133 688.11 83.4365 687.669 83.1192C687.309 82.8653 686.901 81.7798 686.761 80.711C686.517 78.8506 686.51 78.8607 686.577 80.9515ZM700.842 80.6876C700.842 81.5928 700.485 82.5313 700.047 82.7751C699.603 83.0223 701.57 83.2227 704.469 83.2227C707.766 83.2227 709.496 83.0256 709.165 82.6916C708.875 82.4011 708.638 81.4625 708.638 80.6041C708.638 79.0477 708.638 79.0477 704.74 79.0477H700.842V80.6876Z" fill="#F7F0DD"/>
</svg>
