<svg width="303" height="350" viewBox="0 0 303 350" fill="none" xmlns="http://www.w3.org/2000/svg">
<g clip-path="url(#clip0_168_10)">
<circle cx="152" cy="198.5" r="151.5" transform="rotate(-180 152 198.5)" fill="#032412"/>
<path d="M113.157 253.388H87.1432C87.1714 253.924 87.2419 255.066 87.3547 256.815C87.4957 258.563 87.8905 260.354 88.5391 262.187C89.2159 264.02 90.358 265.57 91.9653 266.839C93.6009 268.08 95.7864 268.701 98.5218 268.701C100.016 268.701 101.821 268.32 103.936 267.559C106.051 266.797 107.884 265.331 109.435 263.159L112.734 265.401C109.407 270.731 104.119 273.396 96.8721 273.396C93.6291 273.396 90.6682 272.931 87.9892 272C85.3384 271.069 83.0825 269.772 81.2213 268.108C79.3601 266.445 77.936 264.485 76.949 262.229C75.962 259.973 75.4686 257.548 75.4686 254.953C75.4686 251.541 76.2863 248.383 77.9219 245.478C79.5857 242.574 81.9545 240.261 85.0282 238.541C88.102 236.821 91.6128 235.961 95.5608 235.961C99.4241 235.961 102.681 236.793 105.332 238.457C108.011 240.12 109.985 242.278 111.254 244.928C112.523 247.579 113.157 250.399 113.157 253.388ZM102.667 249.497C102.667 243.067 100.129 239.852 95.0532 239.852C92.5998 239.852 90.7105 240.741 89.3851 242.517C88.0879 244.294 87.3688 246.62 87.2278 249.497H102.667ZM171.272 272H149.361V268.108C151.024 268.108 152.209 267.897 152.914 267.474C153.647 267.023 154.098 266.374 154.267 265.528C154.437 264.682 154.521 263.286 154.521 261.341V249.37C154.521 246.973 154.169 245.083 153.464 243.702C152.759 242.292 151.32 241.587 149.149 241.587C146.188 241.587 143.974 242.729 142.508 245.013C141.07 247.269 140.351 249.877 140.351 252.838V262.313C140.351 264.541 140.675 266.064 141.324 266.882C141.972 267.7 143.368 268.108 145.511 268.108V272H123.177V268.108C125.01 268.108 126.364 267.953 127.238 267.643C128.112 267.305 128.69 266.727 128.972 265.909C129.254 265.063 129.395 263.738 129.395 261.933V248.27C129.395 246.296 129.015 245.013 128.253 244.421C127.492 243.8 125.8 243.49 123.177 243.49V239.599L139.632 235.961C139.886 237.596 140.012 239.119 140.012 240.529C140.012 240.896 139.998 241.22 139.97 241.502C139.97 241.756 139.97 242.052 139.97 242.39C141.747 240.501 143.594 238.964 145.511 237.78C147.429 236.567 149.826 235.961 152.702 235.961C155.127 235.961 157.299 236.398 159.216 237.272C161.162 238.146 162.685 239.472 163.785 241.248C164.884 243.025 165.434 245.168 165.434 247.678V261.933C165.434 264.302 165.745 265.923 166.365 266.797C167.014 267.671 168.649 268.108 171.272 268.108V272ZM229.259 271.492C223.281 271.746 217.824 272.381 212.889 273.396C212.494 272.55 212.241 271.069 212.128 268.954C208.518 271.915 204.556 273.396 200.242 273.396C196.914 273.396 193.826 272.536 190.978 270.816C188.158 269.095 185.902 266.755 184.21 263.794C182.546 260.805 181.715 257.562 181.715 254.065C181.715 251.894 182.081 249.736 182.814 247.593C183.548 245.45 184.69 243.49 186.241 241.714C187.82 239.909 189.766 238.499 192.078 237.484C194.39 236.468 197.027 235.961 199.988 235.961C202.159 235.961 204.021 236.229 205.571 236.765C207.122 237.3 208.363 237.921 209.294 238.626C210.224 239.303 211.169 240.12 212.128 241.079V227.205C212.128 225.316 211.973 223.962 211.663 223.144C211.352 222.326 210.76 221.805 209.886 221.579C209.04 221.353 207.644 221.212 205.698 221.156V217.265L223.041 213.627V261.002C223.041 263.033 223.126 264.442 223.295 265.232C223.492 266.022 224.014 266.6 224.86 266.966C225.706 267.305 227.172 267.516 229.259 267.601V271.492ZM212.128 263.498V246.367C210.944 244.928 209.534 243.617 207.898 242.433C206.262 241.248 204.317 240.656 202.061 240.656C200.679 240.656 199.382 241.037 198.169 241.798C196.957 242.56 195.984 243.532 195.25 244.717C194.01 246.663 193.389 249.948 193.389 254.573C193.389 259.254 194.263 262.779 196.012 265.147C197.788 267.516 199.988 268.701 202.611 268.701C204.5 268.701 206.262 268.235 207.898 267.305C209.534 266.374 210.944 265.105 212.128 263.498Z" fill="#FFF5D8"/>
</g>
<path d="M151.021 0L301.773 183H0.273438L151.021 0Z" fill="#032412"/>
<defs>
<clipPath id="clip0_168_10">
<rect width="303" height="167" fill="white" transform="matrix(-1 0 0 -1 303 350)"/>
</clipPath>
</defs>
</svg>
