<svg width="138" height="136" viewBox="0 0 138 136" fill="none" xmlns="http://www.w3.org/2000/svg">
<rect x="2" y="2" width="133.627" height="132" rx="34" fill="#FFF5D8"/>
<rect x="2" y="2" width="133.627" height="132" rx="34" stroke="#FFF5D8" stroke-width="4"/>
<path fill-rule="evenodd" clip-rule="evenodd" d="M68.854 20C41.839 20 20 42 20 69.217C20 90.973 33.993 109.389 53.405 115.907C55.832 116.397 56.721 114.848 56.721 113.545C56.721 112.404 56.641 108.493 56.641 104.418C43.051 107.352 40.221 98.551 40.221 98.551C38.037 92.847 34.801 91.381 34.801 91.381C30.353 88.366 35.125 88.366 35.125 88.366C40.059 88.692 42.648 93.418 42.648 93.418C47.015 100.914 54.052 98.796 56.883 97.492C57.287 94.314 58.582 92.114 59.957 90.892C49.118 89.751 37.714 85.514 37.714 66.609C37.714 61.231 39.654 56.831 42.728 53.409C42.243 52.187 40.544 47.134 43.214 40.371C43.214 40.371 47.339 39.067 56.64 45.423C60.6221 44.3457 64.7288 43.7976 68.854 43.793C72.979 43.793 77.184 44.364 81.067 45.423C90.369 39.067 94.494 40.371 94.494 40.371C97.164 47.134 95.464 52.187 94.979 53.409C98.134 56.831 99.994 61.231 99.994 66.609C99.994 85.514 88.59 89.669 77.67 90.892C79.45 92.44 80.986 95.373 80.986 100.018C80.986 106.618 80.906 111.915 80.906 113.544C80.906 114.848 81.796 116.397 84.222 115.908C103.634 109.388 117.627 90.973 117.627 69.217C117.707 42 95.788 20 68.854 20Z" fill="#032412"/>
<rect x="6" y="6" width="125.627" height="124" rx="30" fill="#FFF5D8"/>
<rect x="6" y="6" width="125.627" height="124" rx="30" stroke="#032412" stroke-width="4"/>
<path fill-rule="evenodd" clip-rule="evenodd" d="M68.854 20C41.839 20 20 42 20 69.217C20 90.973 33.993 109.389 53.405 115.907C55.832 116.397 56.721 114.848 56.721 113.545C56.721 112.404 56.641 108.493 56.641 104.418C43.051 107.352 40.221 98.551 40.221 98.551C38.037 92.847 34.801 91.381 34.801 91.381C30.353 88.366 35.125 88.366 35.125 88.366C40.059 88.692 42.648 93.418 42.648 93.418C47.015 100.914 54.052 98.796 56.883 97.492C57.287 94.314 58.582 92.114 59.957 90.892C49.118 89.751 37.714 85.514 37.714 66.609C37.714 61.231 39.654 56.831 42.728 53.409C42.243 52.187 40.544 47.134 43.214 40.371C43.214 40.371 47.339 39.067 56.64 45.423C60.6221 44.3457 64.7288 43.7976 68.854 43.793C72.979 43.793 77.184 44.364 81.067 45.423C90.369 39.067 94.494 40.371 94.494 40.371C97.164 47.134 95.464 52.187 94.979 53.409C98.134 56.831 99.994 61.231 99.994 66.609C99.994 85.514 88.59 89.669 77.67 90.892C79.45 92.44 80.986 95.373 80.986 100.018C80.986 106.618 80.906 111.915 80.906 113.544C80.906 114.848 81.796 116.397 84.222 115.908C103.634 109.388 117.627 90.973 117.627 69.217C117.707 42 95.788 20 68.854 20Z" fill="#032412"/>
</svg>
