<svg width="290" height="158" viewBox="0 0 290 158" fill="none" xmlns="http://www.w3.org/2000/svg">
<g clip-path="url(#clip0_136_49)">
<mask id="path-1-outside-1_136_49" maskUnits="userSpaceOnUse" x="2" y="-1" width="94" height="105" fill="black">
<rect fill="white" x="2" y="-1" width="94" height="105"/>
<path fill-rule="evenodd" clip-rule="evenodd" d="M9.45606 0C9.45606 0 9.15216 2.70449 8.75817 7.14273C7.35452 22.9543 4.80732 60.7705 10.7836 76.6992C18.4373 97.099 30.6635 97.999 30.6635 97.999C30.6635 97.999 91.2971 56.9994 90.9989 58.2994C90.7007 59.5994 90.0049 53.2994 83.0469 41.5996C76.0889 29.8997 76.0306 5.69994 76.0306 0"/>
</mask>
<path fill-rule="evenodd" clip-rule="evenodd" d="M9.45606 0C9.45606 0 9.15216 2.70449 8.75817 7.14273C7.35452 22.9543 4.80732 60.7705 10.7836 76.6992C18.4373 97.099 30.6635 97.999 30.6635 97.999C30.6635 97.999 91.2971 56.9994 90.9989 58.2994C90.7007 59.5994 90.0049 53.2994 83.0469 41.5996C76.0889 29.8997 76.0306 5.69994 76.0306 0" fill="#FFF5D8"/>
<path d="M8.75817 7.14273L13.7386 7.58486L13.7386 7.58485L8.75817 7.14273ZM10.7836 76.6992L15.4649 74.9428L15.4649 74.9428L10.7836 76.6992ZM30.6635 97.999L30.2964 102.986L32.0269 103.113L33.4642 102.141L30.6635 97.999ZM83.0469 41.5996L78.7494 44.1553L78.7494 44.1553L83.0469 41.5996ZM9.45606 0C4.48733 -0.558329 4.48732 -0.558226 4.48731 -0.558113C4.4873 -0.558061 4.48729 -0.557937 4.48727 -0.557834C4.48725 -0.557628 4.48722 -0.55738 4.48719 -0.557091C4.48713 -0.556513 4.48704 -0.555771 4.48694 -0.554863C4.48674 -0.553049 4.48646 -0.550576 4.48611 -0.54745C4.48541 -0.541196 4.48442 -0.532325 4.48315 -0.520867C4.4806 -0.49795 4.47692 -0.464681 4.47215 -0.421299C4.46262 -0.334536 4.44875 -0.207309 4.43096 -0.0415174C4.39538 0.290053 4.34412 0.775949 4.28053 1.40097C4.15338 2.65088 3.97684 4.45799 3.77775 6.70061L13.7386 7.58485C13.9335 5.38923 14.1059 3.62498 14.2292 2.41308C14.2908 1.8072 14.3402 1.33958 14.3739 1.02537C14.3907 0.868263 14.4037 0.749528 14.4123 0.671053C14.4166 0.631816 14.4199 0.602646 14.4219 0.583779C14.423 0.574346 14.4238 0.567488 14.4242 0.563237C14.4245 0.561111 14.4246 0.559637 14.4247 0.558818C14.4248 0.558408 14.4248 0.558162 14.4248 0.558081C14.4248 0.55804 14.4248 0.55804 14.4248 0.558082C14.4248 0.558102 14.4248 0.558164 14.4248 0.558174C14.4248 0.558247 14.4248 0.558329 9.45606 0ZM3.77775 6.7006C3.07035 14.6692 2.06966 28.2319 2.00347 41.8527C1.93855 55.2107 2.74998 69.5208 6.10221 78.4556L15.4649 74.9428C12.8409 67.9489 11.9378 55.3865 12.0033 41.9013C12.0676 28.679 13.0423 15.4278 13.7386 7.58486L3.77775 6.7006ZM6.10221 78.4556C10.2437 89.4942 15.8021 95.6904 20.75 99.1116C23.1986 100.805 25.4203 101.764 27.1163 102.304C27.9623 102.573 28.6744 102.738 29.2158 102.837C29.4866 102.887 29.7149 102.921 29.8964 102.944C29.9871 102.956 30.0662 102.965 30.133 102.971C30.1665 102.975 30.1968 102.977 30.2241 102.98C30.2377 102.981 30.2506 102.982 30.2626 102.983C30.2686 102.983 30.2745 102.984 30.2801 102.984C30.2829 102.984 30.287 102.985 30.2884 102.985C30.2924 102.985 30.2964 102.986 30.6635 97.999C31.0306 93.0125 31.0345 93.0128 31.0383 93.0131C31.0395 93.0132 31.0433 93.0134 31.0458 93.0136C31.0507 93.014 31.0554 93.0144 31.0599 93.0147C31.069 93.0155 31.0774 93.0162 31.0851 93.0168C31.1006 93.0182 31.1133 93.0194 31.1233 93.0204C31.1434 93.0224 31.1529 93.0236 31.1523 93.0235C31.1509 93.0233 31.1091 93.018 31.0306 93.0035C30.8735 92.9745 30.5706 92.9091 30.1508 92.7754C29.3152 92.5093 28.002 91.9683 26.4373 90.8864C23.3587 88.7577 18.9771 84.3041 15.4649 74.9428L6.10221 78.4556ZM30.6635 97.999C33.4642 102.141 33.4644 102.141 33.4649 102.141C33.4653 102.14 33.466 102.14 33.4669 102.139C33.4687 102.138 33.4714 102.136 33.4751 102.134C33.4824 102.129 33.4933 102.121 33.5078 102.112C33.5368 102.092 33.5801 102.063 33.6373 102.024C33.7518 101.947 33.9217 101.832 34.1434 101.682C34.5868 101.382 35.2373 100.943 36.0653 100.384C37.7213 99.2667 40.087 97.6713 42.925 95.7609C48.6015 91.9397 56.1651 86.8595 63.7178 81.8211C71.2747 76.7798 78.8042 71.7913 84.4187 68.1485C87.2329 66.3227 89.5309 64.8577 91.101 63.8973C91.9027 63.407 92.4361 63.0965 92.7295 62.9395C92.924 62.8354 92.8311 62.8974 92.5963 62.9848C92.5196 63.0133 92.3657 63.0681 92.1597 63.1208C91.9989 63.1619 91.5575 63.2686 90.9736 63.2691C90.5712 63.2695 88.8903 63.2382 87.4655 61.8184C85.7517 60.1107 85.9307 58.0304 86.1255 57.1815L95.8723 59.4173C96.0717 58.5481 96.248 56.4527 94.5241 54.7348C93.0891 53.305 91.3909 53.2687 90.9639 53.2691C89.9571 53.2701 89.1718 53.5892 89.1078 53.613C88.6611 53.7793 88.2446 53.9977 88.0114 54.1225C87.4493 54.4233 86.7107 54.8604 85.883 55.3667C84.1942 56.3997 81.8042 57.9245 78.9759 59.7595C73.3055 63.4385 65.7325 68.4562 58.1683 73.5023C50.5998 78.5513 43.0237 83.6398 37.3407 87.4654C34.4989 89.3783 32.13 90.9759 30.4712 92.0954C29.6418 92.6551 28.99 93.0954 28.5453 93.3957C28.323 93.5459 28.1525 93.6612 28.0375 93.7389C27.98 93.7778 27.9364 93.8073 27.9071 93.827C27.8925 93.8369 27.8814 93.8444 27.874 93.8494C27.8703 93.8519 27.8675 93.8538 27.8656 93.8551C27.8647 93.8557 27.864 93.8562 27.8635 93.8565C27.863 93.8569 27.8628 93.857 30.6635 97.999ZM86.1255 57.1815C86.146 57.0919 86.2032 56.8541 86.3232 56.5522C86.4072 56.3409 86.715 55.5819 87.4611 54.8604C88.4299 53.9235 90.1247 53.1207 92.108 53.6146C93.5943 53.9848 94.4207 54.9121 94.6386 55.164C94.9439 55.5169 95.12 55.8269 95.1816 55.938C95.259 56.0778 95.3057 56.1815 95.3208 56.2156C95.3491 56.2792 95.348 56.2844 95.3052 56.1672C95.2376 55.9823 94.6859 54.3559 94.2004 53.0647C93.0306 49.9533 90.9944 45.1813 87.3444 39.0439L78.7494 44.1553C82.0574 49.7177 83.8481 53.9456 84.8402 56.5841C85.4357 58.1679 85.5488 58.604 85.9129 59.6003C85.9781 59.7785 86.0704 60.0239 86.1803 60.2716C86.2259 60.3742 86.512 61.0546 87.0753 61.7059C87.3238 61.9932 88.1787 62.9415 89.6915 63.3183C91.7012 63.8187 93.4208 63.0082 94.4127 62.0489C95.182 61.305 95.5115 60.5089 95.616 60.2459C95.7565 59.8924 95.8331 59.5882 95.8723 59.4173L86.1255 57.1815ZM87.3444 39.0439C84.4619 34.197 82.7782 26.1749 81.9008 18.0153C81.0465 10.0694 81.0306 2.81594 81.0306 0H71.0306C71.0306 2.884 71.0438 10.5804 71.9582 19.0843C72.8495 27.3745 74.6739 37.3023 78.7494 44.1553L87.3444 39.0439Z" fill="#FFF5D8" mask="url(#path-1-outside-1_136_49)"/>
<mask id="path-3-outside-2_136_49" maskUnits="userSpaceOnUse" x="2" y="-6" width="96" height="111" fill="black">
<rect fill="white" x="2" y="-6" width="96" height="111"/>
<path d="M9.3201 0C9.3201 0 3.17908 56.2994 10.879 76.6992C18.5788 97.099 34.6418 99.5598 34.6418 99.5598C34.6418 99.5598 93.6828 66.4407 92.6424 60.6345C91.6019 54.8282 88.6381 49.3364 81.6382 37.6366C74.6383 25.9367 76.5693 5.69994 76.5693 0"/>
</mask>
<path d="M14.2906 0.542174C14.5901 -2.20297 12.6074 -4.67108 9.86227 -4.97052C7.11713 -5.26995 4.64902 -3.28731 4.34958 -0.542174L14.2906 0.542174ZM10.879 76.6992L15.5568 74.9336L15.5568 74.9335L10.879 76.6992ZM34.6418 99.5598L33.8847 104.502C34.9874 104.671 36.115 104.466 37.088 103.921L34.6418 99.5598ZM92.6424 60.6345L97.564 59.7526L97.564 59.7525L92.6424 60.6345ZM81.6382 37.6366L77.3475 40.2037L77.3475 40.2037L81.6382 37.6366ZM81.5693 0C81.5693 -2.76142 79.3307 -5 76.5693 -5C73.8079 -5 71.5693 -2.76142 71.5693 0H81.5693ZM9.3201 0C4.34958 -0.542174 4.34951 -0.541535 4.34942 -0.540683C4.34936 -0.540113 4.34924 -0.539045 4.34912 -0.537905C4.34887 -0.535625 4.34853 -0.532489 4.3481 -0.528504C4.34723 -0.520533 4.346 -0.509162 4.34442 -0.494436C4.34125 -0.464983 4.33665 -0.422105 4.3307 -0.366155C4.31882 -0.254258 4.30153 -0.0900586 4.27946 0.123622C4.23533 0.550966 4.17206 1.17634 4.09453 1.97719C3.9395 3.57867 3.72737 5.88316 3.49735 8.71002C3.03764 14.3596 2.50485 22.1157 2.21504 30.5275C1.92568 38.9264 1.87583 48.0516 2.39666 56.4194C2.91031 64.6718 4.00074 72.6353 6.2011 78.4649L15.5568 74.9335C13.9073 70.5632 12.8778 63.8393 12.3773 55.7982C11.884 47.8724 11.9257 39.0977 12.2091 30.8718C12.4921 22.6588 13.0133 15.0651 13.4644 9.52104C13.6898 6.75108 13.8973 4.4978 14.048 2.94072C14.1234 2.16229 14.1845 1.55819 14.2266 1.15088C14.2476 0.947227 14.2639 0.792802 14.2747 0.690407C14.2802 0.639211 14.2843 0.601026 14.2869 0.576202C14.2883 0.563791 14.2893 0.55472 14.2899 0.549034C14.2902 0.54619 14.2904 0.544194 14.2905 0.543048C14.2906 0.542476 14.2906 0.542258 14.2906 0.54197C14.2906 0.541965 14.2906 0.542174 9.3201 0ZM6.2011 78.4648C10.4651 89.7618 17.1535 96.3037 22.9651 99.9988C25.8428 101.828 28.4652 102.936 30.4112 103.593C31.3853 103.923 32.1948 104.141 32.7889 104.281C33.0861 104.351 33.3301 104.402 33.5146 104.437C33.6069 104.455 33.6844 104.469 33.7463 104.479C33.7772 104.485 33.8043 104.489 33.8274 104.493C33.8389 104.495 33.8495 104.497 33.859 104.498C33.8638 104.499 33.8683 104.5 33.8726 104.5C33.8747 104.501 33.8778 104.501 33.8788 104.501C33.8818 104.502 33.8847 104.502 34.6418 99.5598C35.3989 94.6175 35.4017 94.6179 35.4044 94.6183C35.4052 94.6184 35.4079 94.6188 35.4095 94.6191C35.4128 94.6196 35.4159 94.6201 35.4187 94.6205C35.4243 94.6214 35.4291 94.6222 35.4329 94.6228C35.4405 94.624 35.4444 94.6247 35.4447 94.6248C35.4454 94.6249 35.4317 94.6225 35.4045 94.6173C35.3499 94.6068 35.2413 94.5848 35.0842 94.5477C34.7697 94.4735 34.2642 94.3399 33.6121 94.1196C32.3057 93.6782 30.4311 92.8956 28.3305 91.56C24.1857 88.9248 18.9927 84.0364 15.5568 74.9336L6.2011 78.4648ZM34.6418 99.5598C37.088 103.921 37.0884 103.92 37.089 103.92C37.0895 103.92 37.0904 103.919 37.0914 103.919C37.0934 103.918 37.0963 103.916 37.1001 103.914C37.1078 103.909 37.1189 103.903 37.1336 103.895C37.1629 103.878 37.2063 103.854 37.2631 103.822C37.3768 103.758 37.5445 103.664 37.7627 103.54C38.1991 103.294 38.8374 102.933 39.6484 102.472C41.2703 101.549 43.5839 100.226 46.3562 98.6212C51.8972 95.4127 59.2865 91.067 66.6532 86.5325C73.997 82.012 81.4119 77.2468 86.9607 73.2089C89.7137 71.2056 92.155 69.2754 93.9202 67.5727C94.7885 66.7351 95.6578 65.7969 96.3195 64.8068C96.8148 64.0657 97.9945 62.1552 97.564 59.7526L87.7208 61.5164C87.4203 59.8396 88.2607 58.8682 88.0054 59.2502C87.9166 59.3831 87.6241 59.7518 86.9776 60.3755C85.7131 61.5953 83.7126 63.2051 81.0767 65.1232C75.848 68.9282 68.6977 73.5314 61.4113 78.0165C54.1478 82.4875 46.8419 86.7845 41.3452 89.9673C38.5987 91.5576 36.3078 92.8675 34.705 93.779C33.9036 94.2348 33.2744 94.5908 32.8465 94.8324C32.6325 94.9532 32.4689 95.0454 32.3592 95.1071C32.3043 95.138 32.263 95.1612 32.2356 95.1766C32.2219 95.1843 32.2116 95.19 32.205 95.1938C32.2016 95.1957 32.1992 95.197 32.1976 95.1979C32.1968 95.1984 32.1963 95.1986 32.196 95.1989C32.1957 95.199 32.1956 95.199 34.6418 99.5598ZM97.564 59.7525C96.3314 52.8745 92.8097 46.5702 85.9289 35.0695L77.3475 40.2037C84.4665 52.1026 86.8724 56.7819 87.7208 61.5165L97.564 59.7525ZM85.9289 35.0695C83.0797 30.3073 81.8537 23.348 81.4715 16.2976C81.0849 9.16778 81.5693 3.43804 81.5693 0H71.5693C71.5693 2.2619 71.0882 9.50051 71.4861 16.839C71.8883 24.257 73.1968 33.266 77.3475 40.2037L85.9289 35.0695Z" fill="#FFF5D8" mask="url(#path-3-outside-2_136_49)"/>
<path d="M93.8445 57.9706C93.8919 58.0257 93.9377 58.0787 93.9818 58.1297C95.8939 60.3379 98.8202 66.0637 96.9876 73.0299C95.1289 80.0947 88.5985 87.6332 73.2338 93.8815M93.8445 57.9706L29.7919 100.236C31.9666 101.708 35.2969 103.247 41.9362 102.798C48.422 102.359 58.1318 100.023 73.2338 93.8815M93.8445 57.9706C93.1151 57.1243 91.989 55.8177 90.3059 54.7233C88.4663 53.5272 86.0678 52.6401 82.8482 52.5152C76.5521 52.271 67.1889 54.9442 52.4267 63.61C37.5734 72.3294 30.5664 80.2024 27.8765 86.582C25.2077 92.9118 26.7608 98.1858 29.7917 100.236L93.8445 57.9706ZM73.2338 93.8815L72.292 91.5657L73.2338 93.8815C73.2338 93.8815 73.2338 93.8815 73.2338 93.8815Z" fill="#FFF5D8" stroke="#FFF5D8" stroke-width="5" stroke-linecap="round" stroke-linejoin="round"/>
<mask id="mask0_136_49" style="mask-type:luminance" maskUnits="userSpaceOnUse" x="81" y="26" width="208" height="116">
<path d="M122.693 29.7097L122.709 29.707C125.436 29.2304 150.628 26.5041 186.304 68.8182C202.452 87.9707 223.546 96.4934 241.939 100.057C260.339 103.622 275.875 102.188 280.633 101.561C281.564 101.436 282.314 101.801 282.773 102.178C283.216 102.541 283.492 102.984 283.652 103.374C283.813 103.765 283.926 104.267 283.873 104.826C283.818 105.4 283.56 106.178 282.835 106.755C282.834 106.755 282.834 106.756 282.833 106.756L271.005 116.185C274.227 117.668 279.247 119.949 284.709 122.323M122.693 29.7097L282.723 126.912L282.717 126.909M122.693 29.7097L122.678 29.7125C122.243 29.7942 121.932 29.9787 121.884 30.0074C121.882 30.0086 121.881 30.0095 121.879 30.0101C121.78 30.0681 121.706 30.1207 121.672 30.1452C121.6 30.1972 121.547 30.2418 121.529 30.2573C121.484 30.2945 121.45 30.3257 121.44 30.3354C121.412 30.3609 121.388 30.3839 121.377 30.3952C121.349 30.4218 121.317 30.4532 121.286 30.4839C121.222 30.5479 121.132 30.6381 121.02 30.7504C120.796 30.9762 120.472 31.3049 120.062 31.7208L120.062 31.7209C117.169 34.6581 109.492 42.0322 102.5 48.7082C99.0125 52.0381 95.7074 55.1827 93.2741 57.4949C92.0574 58.651 91.0589 59.5989 90.3645 60.2577L89.5619 61.019L89.352 61.218L89.2984 61.2688L89.2848 61.2816L89.2814 61.2849L89.2806 61.2857C89.2804 61.2858 89.2803 61.2859 91 63.1005M122.693 29.7097L91 63.1005M284.709 122.323L283.713 124.616L284.703 122.32C284.705 122.321 284.707 122.322 284.709 122.323ZM284.709 122.323C285.801 122.797 286.441 123.842 286.465 124.925C286.491 126.065 285.818 127.246 284.541 127.69L284.539 127.691C280.725 129.01 265.569 134.041 247.657 137.087C229.879 140.111 208.793 141.292 193.463 134.388L193.463 134.388C167.554 122.718 153.4 110.393 139.635 98.4079C136.46 95.6434 133.306 92.8969 130.033 90.1808M130.033 90.1808C130.033 90.1808 130.033 90.1808 130.033 90.1809L131.63 88.257M130.033 90.1808C112.658 75.7619 102.808 68.8108 90.3605 65.5173L86.0256 64.3704L89.2803 61.2859L91 63.1005M130.033 90.1808L131.63 88.257M131.63 88.257C134.956 91.0177 138.144 93.7927 141.339 96.5737C155.078 108.532 168.942 120.601 194.49 132.109C221.358 144.209 267.996 130.493 281.106 126.206C281.635 126.438 282.17 126.671 282.71 126.906M131.63 88.257C115.52 74.8884 105.552 67.6403 93.7812 63.9083L93.0022 64.6472L92.7918 64.8468L92.7379 64.8978L92.7243 64.9107L92.7208 64.914L92.72 64.9148C92.7198 64.915 92.7197 64.9151 91 63.1005M282.71 126.906C282.712 126.907 282.714 126.908 282.717 126.909M282.71 126.906C282.276 126.715 281.939 126.392 281.726 126.002L282.717 126.909M282.71 126.906C282.712 126.907 282.714 126.908 282.717 126.909M93.1155 61.0934C99.269 55.2516 117.029 38.363 121.843 33.4752L93.1155 61.0934ZM93.1155 61.0934C92.6272 60.9514 92.1353 60.8149 91.6395 60.6837L91 63.1005M93.1155 61.0934L91 63.1005M281.292 106.518C281.291 106.518 281.289 106.518 281.288 106.518L281.292 106.518ZM279.721 102.843L279.718 102.845L279.725 102.84L279.721 102.843Z" fill="white" stroke="#FFF5D8" stroke-width="5"/>
</mask>
<g mask="url(#mask0_136_49)">
<path d="M122.693 29.7097L122.709 29.707C125.436 29.2304 150.628 26.5041 186.304 68.8182C202.452 87.9707 223.546 96.4934 241.939 100.057C260.339 103.622 275.875 102.188 280.633 101.561C281.564 101.436 282.314 101.801 282.773 102.178C283.216 102.541 283.492 102.984 283.652 103.374C283.813 103.765 283.926 104.267 283.873 104.826C283.818 105.4 283.56 106.178 282.835 106.755C282.834 106.755 282.834 106.756 282.833 106.756L271.005 116.185C274.227 117.668 279.247 119.949 284.709 122.323M122.693 29.7097L282.723 126.912L282.717 126.909M122.693 29.7097L122.678 29.7125C122.243 29.7942 121.932 29.9787 121.884 30.0074C121.882 30.0086 121.881 30.0095 121.879 30.0101C121.78 30.0681 121.706 30.1207 121.672 30.1452C121.6 30.1972 121.547 30.2418 121.529 30.2573C121.484 30.2945 121.45 30.3257 121.44 30.3354C121.412 30.3609 121.388 30.3839 121.377 30.3952C121.349 30.4218 121.317 30.4532 121.286 30.4839C121.222 30.5479 121.132 30.6381 121.02 30.7504C120.796 30.9762 120.472 31.3049 120.062 31.7208L120.062 31.7209C117.169 34.6581 109.492 42.0322 102.5 48.7082C99.0125 52.0381 95.7074 55.1827 93.2741 57.4949C92.0574 58.651 91.0589 59.5989 90.3645 60.2577L89.5619 61.019L89.352 61.218L89.2984 61.2688L89.2848 61.2816L89.2814 61.2849L89.2806 61.2857C89.2804 61.2858 89.2803 61.2859 91 63.1005M122.693 29.7097L91 63.1005M284.709 122.323L283.713 124.616L284.703 122.32C284.705 122.321 284.707 122.322 284.709 122.323ZM284.709 122.323C285.801 122.797 286.441 123.842 286.465 124.925C286.491 126.065 285.818 127.246 284.541 127.69L284.539 127.691C280.725 129.01 265.569 134.041 247.657 137.087C229.879 140.111 208.793 141.292 193.463 134.388L193.463 134.388C167.554 122.718 153.4 110.393 139.635 98.4079C136.46 95.6434 133.306 92.8969 130.033 90.1808M130.033 90.1808C130.033 90.1808 130.033 90.1808 130.033 90.1809L131.63 88.257M130.033 90.1808C112.658 75.7619 102.808 68.8108 90.3605 65.5173L86.0256 64.3704L89.2803 61.2859L91 63.1005M130.033 90.1808L131.63 88.257M131.63 88.257C134.956 91.0177 138.144 93.7927 141.339 96.5737C155.078 108.532 168.942 120.601 194.49 132.109C221.358 144.209 267.996 130.493 281.106 126.206C281.635 126.438 282.17 126.671 282.71 126.906M131.63 88.257C115.52 74.8884 105.552 67.6403 93.7812 63.9083L93.0022 64.6472L92.7918 64.8468L92.7379 64.8978L92.7243 64.9107L92.7208 64.914L92.72 64.9148C92.7198 64.915 92.7197 64.9151 91 63.1005M282.71 126.906C282.712 126.907 282.714 126.908 282.717 126.909M282.71 126.906C282.276 126.715 281.939 126.392 281.726 126.002L282.717 126.909M282.71 126.906C282.712 126.907 282.714 126.908 282.717 126.909M93.1155 61.0934C99.269 55.2516 117.029 38.363 121.843 33.4752L93.1155 61.0934ZM93.1155 61.0934C92.6272 60.9514 92.1353 60.8149 91.6395 60.6837L91 63.1005M93.1155 61.0934L91 63.1005M281.292 106.518C281.291 106.518 281.289 106.518 281.288 106.518L281.292 106.518ZM279.721 102.843L279.718 102.845L279.725 102.84L279.721 102.843Z" fill="#032412" stroke="#FFF5D8" stroke-width="5"/>
</g>
<path d="M128.95 62.4917C128.171 63.1154 127.219 63.8716 126.285 64.599C124.98 65.6665 123.394 66.3141 121.896 66.5473C120.471 66.7691 118.655 66.6788 117.241 65.6413C116.477 65.0813 115.88 64.2692 115.628 63.2409C115.384 62.2472 115.51 61.247 115.822 60.3315C116.417 58.5873 117.832 56.7213 119.972 54.7102C124.463 49.7262 127.379 45.6255 129.025 43.2108L128.95 62.4917ZM128.95 62.4917L130.975 64.5326C130.387 65.3721 129.66 66.3955 128.974 67.323C127.696 68.7636 126.8 70.3415 126.725 71.9794C126.636 73.9063 127.706 75.3926 129.226 76.0988C130.59 76.7324 132.165 76.7003 133.543 76.3158C134.967 75.9185 136.396 75.0933 137.591 73.8378L137.628 73.7991L137.663 73.7588C137.95 73.43 138.44 72.8873 139.068 72.1908C141.852 69.1056 147.361 63.0002 150.088 59.0656C152.28 56.7985 152.144 53.4362 150.208 51.4514C149.173 50.3899 147.688 49.802 146.037 49.9699C144.487 50.1276 143.006 50.9218 141.667 52.1745C140.587 52.966 139.167 54.1742 138.053 55.1491C137.931 55.2551 137.813 55.3593 137.698 55.4608C137.56 55.322 137.419 55.1803 137.279 55.0382C137.022 54.7774 136.769 54.5189 136.535 54.2767C136.854 53.8478 137.228 53.2996 137.513 52.7018L137.544 52.6374L137.571 52.5713C138.548 50.1773 138.991 48.0758 138.93 46.2858C138.87 44.4918 138.284 42.8441 137.034 41.7251C134.31 39.2866 130.686 40.7735 129.025 43.2105L128.95 62.4917ZM135.74 55.3296C135.738 55.3317 135.738 55.3329 135.738 55.3331C135.737 55.3333 135.738 55.3322 135.74 55.3296Z" fill="#FFF5D8" stroke="#FFF5D8" stroke-width="5"/>
<path d="M144.535 80.3319L145.071 80.6488C144.677 81.0905 144.255 81.5718 143.827 82.0694C142.848 83.0656 142.101 84.2811 141.978 85.6563C141.841 87.1927 142.528 88.5468 143.699 89.3712C145.82 90.8656 148.79 90.33 151.081 88.7944C151.379 88.5996 151.625 88.3616 151.746 88.2433C151.925 88.0684 152.12 87.8607 152.323 87.6351C152.732 87.1808 153.232 86.5852 153.789 85.8849C154.905 84.4816 156.294 82.5983 157.693 80.4715C160.426 76.3163 163.445 70.8604 164.225 66.1617L164.272 65.8762L164.253 65.5874C164.203 64.8242 164.104 63.9339 163.91 63.1409C163.814 62.7482 163.674 62.2891 163.457 61.8519C163.268 61.472 162.87 60.7989 162.1 60.3604C161.06 59.7567 159.689 59.3407 158.035 59.5584C156.415 59.7717 154.749 60.5627 153.026 61.9607C149.1 65.1064 140.977 71.2282 137.172 74.0299C135.946 74.8716 135.014 76.0491 134.655 77.4005C134.286 78.7902 134.535 80.5635 136.026 81.6948C137.406 82.7412 139.164 82.7006 140.675 82.2659C141.855 81.9265 143.144 81.2858 144.535 80.3319Z" fill="#FFF5D8" stroke="#FFF5D8" stroke-width="5"/>
<path d="M159.642 81.1986C157.603 79.753 157.602 79.7534 157.602 79.7539L157.601 79.7549L157.6 79.7573L157.595 79.7636L157.582 79.7818L157.542 79.8405C157.508 79.8894 157.462 79.9576 157.404 80.0436C157.29 80.2156 157.131 80.4599 156.943 80.7653C156.568 81.3739 156.07 82.2357 155.571 83.2592C154.607 85.2338 153.501 88.0856 153.501 90.9713C153.451 93.9993 154.771 96.1562 156.166 97.5586C156.851 98.2468 157.552 98.7545 158.113 99.1135C158.394 99.2939 158.645 99.4394 158.839 99.5491C158.903 99.5853 158.968 99.6221 159.021 99.6512C159.042 99.6634 159.062 99.6742 159.077 99.6831C159.145 99.7208 159.164 99.7325 159.165 99.733L159.165 99.733L159.617 100.009L160.142 100.078C163.182 100.479 165.635 99.651 166.813 97.5451C167.333 96.6155 167.473 95.6238 167.388 94.784C167.346 94.3635 167.241 93.9182 167.047 93.4939C166.875 93.1164 166.523 92.5163 165.843 92.1016L165.765 92.0543L165.684 92.0127C165.479 91.9073 165.229 91.7907 165.034 91.6996C164.966 91.6677 164.905 91.639 164.854 91.615C164.612 91.4998 164.429 91.4057 164.273 91.3104C163.979 91.1297 163.881 91.0026 163.828 90.8968L163.825 90.8896L163.821 90.8824C163.746 90.7347 163.641 90.171 164.082 88.9733C164.469 87.9209 165.109 86.8452 165.656 86.0671C166.848 84.6333 168.474 82.7755 170.019 81.612C170.602 81.1729 171.044 80.9343 171.341 80.819C171.915 82.3258 172.898 83.5973 174.492 84.0294C176.355 84.5343 177.903 83.5684 178.664 82.7652C180.018 81.3468 180.645 78.9546 180.197 76.7458C179.702 74.306 177.936 72.1293 174.736 71.1617C172.388 70.18 170.041 70.3986 168.01 71.115C165.97 71.8348 164.135 73.0901 162.651 74.3367C161.15 75.5969 159.898 76.9415 159.029 77.9581C158.591 78.4699 158.243 78.907 158.001 79.2205C157.88 79.3775 157.785 79.504 157.718 79.5941C157.685 79.6392 157.659 79.6752 157.64 79.7013L157.617 79.7331L157.61 79.7433L157.607 79.747L157.606 79.7485C157.605 79.7491 157.605 79.7497 159.642 81.1984L157.605 79.7497L157.603 79.753L159.642 81.1986Z" fill="#FFF5D8" stroke="#FFF5D8" stroke-width="5"/>
<path d="M179.397 81.0516L179.384 81.0655L179.371 81.0796C178.048 82.5288 177.148 84.3196 176.341 85.9268C176.126 86.3546 175.918 86.7694 175.71 87.1612C174.647 89.163 173.252 91.3889 170.523 93.889L170.515 93.8955L170.508 93.9021C169.875 94.4917 168.823 95.3362 167.814 96.1221C167.464 96.3948 167.099 96.6757 166.768 96.9303C166.3 97.29 165.901 97.5971 165.709 97.7541C164.657 98.5834 163.783 99.725 163.556 101.104C163.302 102.638 163.927 104.148 165.281 105.028C166.499 105.82 167.998 105.916 169.39 105.675C170.815 105.427 172.395 104.787 174.086 103.746C174.283 103.63 174.485 103.495 174.687 103.349C174.334 104.879 173.968 106.359 173.679 107.289L173.674 107.303L173.67 107.318C172.905 109.888 174.292 112.606 176.427 113.692C177.629 114.303 179.122 114.427 180.557 113.726C181.912 113.062 182.912 111.813 183.625 110.283L183.681 110.162L183.725 110.036C184.428 107.981 184.887 105.194 185.095 101.708C185.097 101.683 185.1 101.649 185.103 101.609C185.109 101.524 185.117 101.407 185.125 101.266C185.14 100.987 185.154 100.598 185.145 100.175C185.144 100.126 185.143 100.076 185.141 100.024C185.714 99.7859 186.37 99.5051 187.047 99.199C188.061 98.7402 189.164 98.2065 190.122 97.6585C190.972 97.1727 192.074 96.4781 192.742 95.6261L192.742 95.626C193.207 95.0332 193.698 94.2427 193.898 93.3332C194.117 92.3389 194.007 90.9335 192.818 89.9153C191.832 89.0704 190.57 88.9306 189.602 88.9533C188.635 88.976 187.503 89.1735 186.206 89.5244C186.352 89.2229 186.49 88.9203 186.618 88.6195C187.92 86.236 187.645 83.4914 186.444 81.6588C185.825 80.7141 184.785 79.7667 183.326 79.5456C181.769 79.3093 180.39 79.9957 179.397 81.0516Z" fill="#FFF5D8" stroke="#FFF5D8" stroke-width="5"/>
<path d="M202.79 97.8775L202.669 97.9095L202.551 97.9533C199.201 99.2062 196.385 102.587 194.28 107.588L194.276 107.598L194.272 107.608C192.715 111.394 192.064 115.072 192.806 118.189C193.598 121.514 195.908 123.88 199.411 124.823L199.412 124.823C202.712 125.711 205.288 125.018 206.813 123.153C207.488 122.328 207.828 121.411 207.957 120.636C208.021 120.251 208.046 119.832 207.998 119.416C207.975 119.211 207.927 118.942 207.82 118.654C207.74 118.438 207.552 118.004 207.138 117.612C207.104 117.572 207.07 117.533 207.068 117.53C206.846 117.282 206.529 116.989 206.057 116.737C205.25 116.307 204.23 116.133 202.973 116.053L202.973 116.053C202.637 116.032 202.478 115.968 202.418 115.937C202.377 115.916 202.341 115.891 202.289 115.811C202.139 115.578 201.879 114.885 201.93 113.229C201.969 112.324 202.26 110.936 202.829 109.609C203.416 108.237 204.136 107.309 204.786 106.902C204.879 106.845 204.939 106.82 204.97 106.809C205.471 107.628 206.11 108.401 206.951 108.887C208.045 109.519 209.392 109.586 210.544 108.845C211.494 108.234 211.973 107.288 212.211 106.578C212.469 105.811 212.57 104.969 212.536 104.149L212.528 103.959L212.492 103.773C212.085 101.693 211.124 99.7162 209.247 98.5273C207.364 97.3341 205.09 97.2715 202.79 97.8775Z" fill="#FFF5D8" stroke="#FFF5D8" stroke-width="5"/>
<path d="M220.083 121.021L220.087 121.021C221.38 121.15 222.695 121.838 223.562 122.681C223.999 123.106 224.561 123.799 224.763 124.747C224.998 125.853 224.667 126.972 223.844 127.791C222.875 128.814 221.736 129.154 220.836 129.223C220.407 129.256 220.043 129.228 219.827 129.208C219.756 129.201 219.722 129.198 219.703 129.196C219.669 129.196 219.645 129.195 219.633 129.195L219.63 129.195C219.571 129.194 219.52 129.191 219.485 129.189C219.415 129.184 219.344 129.178 219.282 129.172C219.155 129.159 218.998 129.141 218.823 129.119C218.47 129.074 217.998 129.008 217.45 128.921C216.357 128.749 214.923 128.493 213.501 128.164C212.113 127.844 210.598 127.424 209.415 126.895C208.845 126.64 208.158 126.276 207.603 125.752C207.049 125.228 206.222 124.117 206.586 122.607L206.587 122.604C206.965 121.044 207.293 120.055 207.838 118.416C208.053 117.769 208.302 117.02 208.6 116.095L208.601 116.094C208.985 114.903 209.369 113.543 209.772 112.115C209.925 111.573 210.081 111.02 210.24 110.464C210.798 108.52 211.412 106.493 212.075 104.983L220.083 121.021ZM220.083 121.021C219.593 120.973 218.233 120.733 216.963 120.387C216.787 120.339 216.621 120.291 216.466 120.244C216.653 119.73 216.879 119.144 217.131 118.486C217.268 118.13 217.413 117.753 217.565 117.354C218.467 114.982 219.603 111.874 219.946 109.364M220.083 121.021L219.946 109.364M219.946 109.364C220.381 107.69 220.548 106.215 220.356 104.982C220.155 103.69 219.434 102.175 217.74 101.655C216.245 101.197 214.903 101.823 214.113 102.4C213.25 103.03 212.533 103.942 212.076 104.982L219.946 109.364ZM219.636 129.189C219.642 129.19 219.647 129.19 219.651 129.19C219.62 129.189 219.612 129.187 219.636 129.189Z" fill="#FFF5D8" stroke="#FFF5D8" stroke-width="5"/>
<path d="M232.722 108.654L232.723 108.666C232.79 109.522 232.623 110.661 232.458 111.64C232.313 112.498 232.12 113.488 231.924 114.489C231.877 114.733 231.829 114.978 231.782 115.222C231.495 116.703 231.235 118.119 231.071 119.33C231.116 119.213 231.161 119.092 231.207 118.968C231.769 117.431 232.264 115.6 232.722 113.849C232.807 113.369 232.862 113 232.919 112.622C232.964 112.317 233.01 112.007 233.074 111.63C233.189 110.945 233.359 110.061 233.738 109.276L233.787 109.176L233.844 109.08C234.405 108.142 235.206 107.219 236.332 106.759C237.616 106.235 238.959 106.471 239.979 107.257C240.883 107.955 241.391 108.959 241.663 109.878C241.945 110.835 242.039 111.916 241.957 113.042L241.949 113.146L241.933 113.249C241.618 115.246 241.073 117.767 240.426 120.028C240.102 121.159 239.743 122.26 239.362 123.217C239.001 124.123 238.547 125.09 237.977 125.813L237.977 125.814C237.925 125.88 237.87 125.95 237.812 126.024C237.236 126.762 236.379 127.86 235.303 128.683C233.998 129.682 232.244 130.389 230.065 129.971L230.045 129.967L230.024 129.963C229.419 129.837 227.412 129.264 225.605 127.651C223.671 125.924 222.12 123.123 222.582 119.016L222.586 118.986L222.59 118.956C222.699 118.16 222.799 117.427 222.891 116.748C223.559 111.83 223.832 109.823 224.487 107.812L232.722 108.654ZM232.722 108.654L232.721 108.643M232.722 108.654L232.721 108.643M232.721 108.643C232.631 107.613 232.29 106.581 231.556 105.769M232.721 108.643L231.556 105.769M231.556 105.769C230.795 104.927 229.761 104.497 228.702 104.5M231.556 105.769L228.702 104.5M228.702 104.5C226.66 104.505 225.072 106.015 224.488 107.81L228.702 104.5Z" fill="#FFF5D8" stroke="#FFF5D8" stroke-width="5"/>
<path d="M243.059 112.137C240.578 111.833 240.578 111.833 240.578 111.834L240.578 111.834L240.578 111.836L240.577 111.843L240.573 111.871L240.559 111.983L240.507 112.41C240.461 112.779 240.395 113.307 240.315 113.945C240.155 115.219 239.937 116.928 239.707 118.667C239.477 120.409 239.236 122.17 239.028 123.552C238.924 124.246 238.831 124.828 238.754 125.258C238.686 125.634 238.651 125.772 238.654 125.773C238.654 125.773 238.654 125.773 238.655 125.773L238.645 125.796L238.613 125.905C238.17 127.407 239.086 128.479 239.436 128.822C239.865 129.243 240.373 129.53 240.771 129.721C241.608 130.121 242.652 130.419 243.67 130.571L243.728 130.58L243.786 130.586C246.5 130.864 249.007 130.684 251.048 129.919C253.133 129.138 254.89 127.665 255.541 125.39L243.059 112.137ZM243.059 112.137L240.578 111.833L240.6 111.656L240.646 111.483C240.655 111.451 240.661 111.425 240.676 111.364C240.681 111.338 240.689 111.307 240.698 111.267C240.725 111.156 240.767 110.98 240.828 110.787C240.956 110.383 241.183 109.838 241.642 109.314C242.576 108.247 243.931 107.844 245.366 107.709C249.485 107.215 253.229 107.472 255.675 109.84L255.859 110.019L256.003 110.231C256.809 111.417 257.015 112.861 256.933 114.086C256.848 115.347 256.44 116.7 255.645 117.845L255.604 117.905L255.558 117.963C255.383 118.187 255.205 118.4 255.03 118.599M243.059 112.137L255.03 118.599M255.03 118.599C256.176 120.628 256.156 123.24 255.541 125.389L255.03 118.599ZM249.063 115.763C249.063 115.763 249.058 115.761 249.05 115.757C249.059 115.76 249.063 115.763 249.063 115.763Z" fill="#FFF5D8" stroke="#FFF5D8" stroke-width="5"/>
<path d="M95.5617 58.0478L93.8491 56.6777L92.2677 58.1974L50.2677 98.5594L47.5888 101.134L50.9828 102.646L54.3616 104.151L55.9055 104.838L57.119 103.662L98.2402 63.7949L100.277 61.8201L98.0617 60.0478L95.5617 58.0478Z" fill="#032412" stroke="#FFF5D8" stroke-width="5"/>
<path d="M79 72.658L77.8208 70.4535C76.689 71.0589 76.1996 72.4231 76.6883 73.6099C76.8908 74.1016 77.2201 74.5948 77.4635 74.9449C77.7401 75.3426 78.0766 75.7921 78.4114 76.2373C78.4479 76.2858 78.4846 76.3344 78.5213 76.3832C79.1846 77.2647 79.8763 78.1839 80.4466 79.0716C80.7529 79.5484 80.9721 79.9391 81.1225 80.2454C79.8019 80.9407 78.9787 82.1537 78.5924 83.3871C78.1244 84.881 78.2202 86.5589 78.792 88.0437C79.3747 89.557 80.5004 90.9905 82.2163 91.8485C83.9467 92.7137 86.0353 92.8743 88.3296 92.2772L88.3296 92.2772C92.9482 91.0751 96.0269 87.4163 96.816 83.3743C97.6211 79.2499 96.027 74.7512 91.5402 72.1873L91.5401 72.1873C87.6482 69.9633 84.362 69.4162 81.9288 69.5098C80.7247 69.5561 79.7602 69.7582 79.0655 69.9657C78.7186 70.0694 78.4393 70.1743 78.231 70.2617C78.1269 70.3054 78.0404 70.3448 77.9719 70.3775C77.9377 70.3939 77.908 70.4086 77.8828 70.4213L77.8484 70.439L77.8338 70.4467L77.8271 70.4502L77.8239 70.4519C77.8224 70.4527 77.8208 70.4535 79 72.658ZM81.3977 80.9768C81.3976 80.9768 81.3974 80.9751 81.3971 80.9719C81.3976 80.9752 81.3977 80.9768 81.3977 80.9768Z" fill="#FFF5D8" stroke="#FFF5D8" stroke-width="5" stroke-linecap="round" stroke-linejoin="round"/>
<path d="M66 81.658L64.8208 79.4535C63.689 80.0589 63.1996 81.4231 63.6883 82.6099C63.8908 83.1016 64.2201 83.5948 64.4635 83.9449C64.7401 84.3426 65.0766 84.7921 65.4114 85.2373C65.4479 85.2858 65.4846 85.3344 65.5213 85.3832C66.1846 86.2647 66.8763 87.1839 67.4466 88.0716C67.7529 88.5484 67.9721 88.9391 68.1225 89.2454C66.8019 89.9408 65.9787 91.1537 65.5924 92.3871C65.1244 93.8811 65.2202 95.5589 65.792 97.0438C66.3747 98.5571 67.5004 99.9907 69.2163 100.849C70.9467 101.714 73.0354 101.874 75.3296 101.277C79.9482 100.075 83.0269 96.4163 83.816 92.3743C84.6211 88.2499 83.027 83.7512 78.5402 81.1873L78.5401 81.1873C74.6482 78.9633 71.362 78.4162 68.9288 78.5098C67.7247 78.5561 66.7602 78.7582 66.0655 78.9657C65.7186 79.0694 65.4393 79.1743 65.231 79.2617C65.1269 79.3054 65.0404 79.3448 64.9719 79.3775C64.9377 79.3939 64.908 79.4086 64.8828 79.4213L64.8484 79.439L64.8338 79.4467L64.8271 79.4502L64.8239 79.4519C64.8224 79.4527 64.8208 79.4535 66 81.658ZM68.3977 89.9768C68.3976 89.9768 68.3974 89.9751 68.3971 89.9719C68.3976 89.9752 68.3977 89.9768 68.3977 89.9768Z" fill="#FFF5D8" stroke="#FFF5D8" stroke-width="5" stroke-linecap="round" stroke-linejoin="round"/>
<path d="M53 90.658L51.8209 88.4535C50.689 89.0589 50.1996 90.4231 50.6883 91.6099C50.8908 92.1016 51.2201 92.5948 51.4635 92.9449C51.7401 93.3426 52.0766 93.7921 52.4114 94.2373C52.4479 94.2858 52.4845 94.3344 52.5212 94.3832C53.1846 95.2647 53.8763 96.1839 54.4466 97.0716C54.7529 97.5485 54.9721 97.9391 55.1226 98.2455C53.8019 98.9409 52.9788 100.154 52.5924 101.387C52.1245 102.881 52.2202 104.559 52.792 106.044C53.3748 107.557 54.5004 108.991 56.2163 109.849C57.9468 110.714 60.0354 110.875 62.3297 110.277L62.3297 110.277C66.9483 109.075 70.027 105.416 70.816 101.374C71.6211 97.25 70.027 92.7512 65.5401 90.1873L65.5401 90.1873C61.6482 87.9633 58.3621 87.4162 55.9288 87.5098C54.7247 87.5561 53.7602 87.7582 53.0655 87.9657C52.7186 88.0694 52.4393 88.1743 52.231 88.2617C52.1269 88.3054 52.0404 88.3448 51.9719 88.3775C51.9377 88.3939 51.908 88.4086 51.8828 88.4213L51.8484 88.439L51.8338 88.4467L51.8271 88.4502L51.8239 88.4519C51.8224 88.4527 51.8209 88.4535 53 90.658ZM55.3977 98.9768C55.3976 98.9768 55.3974 98.9752 55.3971 98.972C55.3976 98.9753 55.3977 98.9769 55.3977 98.9768Z" fill="#FFF5D8" stroke="#FFF5D8" stroke-width="5" stroke-linecap="round" stroke-linejoin="round"/>
<path fill-rule="evenodd" clip-rule="evenodd" d="M9.45606 0C9.45606 0 9.15216 2.70449 8.75817 7.14273C7.35452 22.9543 4.80732 60.7705 10.7836 76.6992C18.4373 97.099 30.6635 97.999 30.6635 97.999C30.6635 97.999 91.2971 56.9994 90.9989 58.2994C90.7007 59.5994 90.0049 53.2994 83.0469 41.5996C76.0889 29.8997 76.0306 5.69994 76.0306 0" fill="#FFF5D8"/>
<path d="M9.3201 0C9.3201 0 3.17908 56.2994 10.879 76.6992C18.5788 97.099 34.6418 99.5598 34.6418 99.5598C34.6418 99.5598 93.6828 66.4407 92.6424 60.6345C91.6019 54.8282 88.6381 49.3364 81.6382 37.6366C74.6383 25.9367 76.5693 5.69994 76.5693 0" stroke="#032412" stroke-width="3" stroke-linecap="round" stroke-linejoin="round"/>
<path fill-rule="evenodd" clip-rule="evenodd" d="M92.0918 59.7661C89.0836 56.2919 82.9919 48.5662 53.6923 65.766C24.3927 82.9658 27.7927 95.8657 31.1926 98.1656C34.5926 100.466 42.2925 103.766 72.292 91.5657C102.292 79.3659 95.1 63.2403 92.0918 59.7661Z" fill="#FFF5D8" stroke="#032412" stroke-width="3" stroke-linecap="round" stroke-linejoin="round"/>
<mask id="mask1_136_49" style="mask-type:luminance" maskUnits="userSpaceOnUse" x="91" y="32" width="193" height="105">
<path fill-rule="evenodd" clip-rule="evenodd" d="M123.139 32.1697C124.843 31.8719 149.187 28.6738 184.393 70.4297C217.648 109.872 271.136 105.335 280.965 104.039C281.291 103.995 281.536 104.594 281.279 104.798L266.781 116.355C266.553 116.537 266.593 116.895 266.858 117.018C268.854 117.951 275.823 121.187 283.713 124.616C284.04 124.757 284.058 125.211 283.721 125.328C276.214 127.926 223.682 145.256 194.49 132.109C163.001 117.925 149.261 102.889 131.63 88.257C114.268 73.8492 104.039 66.5505 91 63.1005C91 63.1005 115.99 39.4179 121.843 33.4752C122.661 32.6448 123.131 32.1712 123.139 32.1697Z" fill="white"/>
</mask>
<g mask="url(#mask1_136_49)">
<path fill-rule="evenodd" clip-rule="evenodd" d="M123.139 32.1697C124.843 31.8719 149.187 28.6738 184.393 70.4297C217.648 109.872 271.136 105.335 280.965 104.039C281.291 103.995 281.536 104.594 281.279 104.798L266.781 116.355C266.553 116.537 266.593 116.895 266.858 117.018C268.854 117.951 275.823 121.187 283.713 124.616C284.04 124.757 284.058 125.211 283.721 125.328C276.214 127.926 223.682 145.256 194.49 132.109C163.001 117.925 149.261 102.889 131.63 88.257C114.268 73.8492 104.039 66.5505 91 63.1005C91 63.1005 115.99 39.4179 121.843 33.4752C122.661 32.6448 123.131 32.1712 123.139 32.1697Z" fill="#032412" stroke="#032412" stroke-width="6"/>
</g>
<path fill-rule="evenodd" clip-rule="evenodd" d="M131.091 44.6187C129.396 47.1052 126.388 51.3334 121.758 56.4626C113.446 64.2245 120.978 65.7403 124.723 62.6467C126.871 60.9745 129.136 59.13 129.136 59.13L134.213 64.2471C134.213 64.2471 132.46 66.8194 130.914 68.9037C126.285 74.0333 132.229 75.8449 135.78 72.1142C137.498 70.1474 145.006 62.0858 148.161 57.4554C150.951 54.8396 147.688 49.8339 143.269 54.101C141.297 55.5163 137.607 58.899 137.607 58.899C137.607 58.899 133.383 54.7453 133.414 54.5152C133.448 53.91 134.669 52.8593 135.256 51.6268C138.826 42.8779 133.37 41.2747 131.091 44.6187Z" fill="#FFF5D8"/>
<path fill-rule="evenodd" clip-rule="evenodd" d="M154.596 63.9066C157.559 61.5003 159.587 61.7866 160.857 62.5291C161.412 62.836 161.667 64.3584 161.759 65.7521C160.383 74.0372 150.74 86.0709 149.707 86.706C146.017 89.1951 142.562 86.8535 145.665 83.7667C147.351 81.8011 148.99 80.0631 148.99 80.0631L144.381 77.3355C137.232 83.026 135.201 78.38 138.618 76.0699C142.419 73.2725 150.62 67.093 154.596 63.9066ZM148.704 72.7055L153.12 75.6768C153.12 75.6768 158.243 67.8515 156.349 68.0674L148.704 72.7055Z" fill="#FFF5D8"/>
<path fill-rule="evenodd" clip-rule="evenodd" d="M176.852 81.0428C178.288 79.5436 178.789 74.9165 173.887 73.5179C167.204 70.5657 159.642 81.1986 159.642 81.1986C159.642 81.1986 155.989 86.3527 156.001 90.9919C155.916 95.4218 159.762 97.1683 160.468 97.5995C165.432 98.2541 165.247 94.6666 164.541 94.2362C163.612 93.7587 162.25 93.3335 161.591 92.0134C160.464 89.7918 162.409 86.3169 163.67 84.5447C166.046 81.6798 170.963 76.0793 173.421 79.0984C174.229 82.3898 176.069 81.8738 176.852 81.0428Z" fill="#FFF5D8"/>
<path fill-rule="evenodd" clip-rule="evenodd" d="M181.217 82.765C178.434 85.814 178.205 90.2426 172.211 95.7326C170.762 97.0805 167.676 99.3596 167.278 99.7009C164.272 102.044 166.751 105.339 172.798 101.603C174.231 100.771 176.616 98.063 176.616 98.063L178.274 98.5965C178.274 98.5965 176.919 105.288 176.066 108.031C175.274 110.693 179.077 114.123 181.359 109.227C181.961 107.467 182.401 104.92 182.601 101.523C182.601 101.523 182.834 99.0739 182.259 98.4832C182.259 98.4832 189.44 95.7844 190.775 94.0829C192.173 92.301 191.898 90.5002 186.545 92.0248C181.194 93.5502 180.272 94.3945 180.272 94.3945C180.272 94.3945 183.052 90.6853 184.368 87.5198C186.193 84.3661 183.553 80.2829 181.217 82.765Z" fill="#FFF5D8"/>
<path fill-rule="evenodd" clip-rule="evenodd" d="M203.427 100.295C201.02 101.195 198.578 103.82 196.584 108.558C193.666 115.657 194.754 120.981 200.061 122.409C205.37 123.837 205.813 119.742 205.411 119.42C205.089 119.16 205.185 118.699 202.814 118.548C200.44 118.397 199.314 116.818 199.432 113.137C199.534 110.657 200.914 106.37 203.467 104.778C204.227 104.308 204.742 104.318 205.033 104.282C206.196 104.136 206.888 105.097 206.986 105.308C208.707 108.308 210.13 106.485 210.038 104.252C209.382 100.894 207.222 99.295 203.427 100.295Z" fill="#FFF5D8"/>
<path fill-rule="evenodd" clip-rule="evenodd" d="M214.364 105.988C215.535 103.322 219.198 102.51 217.487 108.881C216.95 113.254 213.306 120.534 213.568 121.478C213.83 122.422 218.513 123.379 219.839 123.509C221.163 123.641 223.054 125.104 222.057 126.041C221.138 127.043 219.99 126.66 219.7 126.695C219.41 126.73 208.52 125.25 209.016 123.193C209.514 121.137 209.884 120.254 210.979 116.863C212.075 113.471 213.192 108.654 214.364 105.988Z" fill="#FFF5D8"/>
<path fill-rule="evenodd" clip-rule="evenodd" d="M226.865 108.585C227.52 106.571 230.006 106.28 230.231 108.86C230.386 110.852 228.279 118.249 228.395 121.81C228.646 123.343 230.162 124.283 231.41 123.541C233.046 122.307 234.242 117.922 235.166 114.387C235.482 112.638 235.571 111.231 235.99 110.363C237.666 107.56 239.722 109.33 239.464 112.86C238.866 116.654 237.369 122.544 236.013 124.267C234.721 125.908 233.188 128.024 230.536 127.516C229.852 127.373 224.336 125.786 225.067 119.296C225.991 112.559 226.209 110.598 226.865 108.585Z" fill="#FFF5D8"/>
<path fill-rule="evenodd" clip-rule="evenodd" d="M245.63 110.195C249.684 109.705 252.371 110.121 253.935 111.636C254.725 112.799 254.601 114.964 253.591 116.42C252.627 117.649 251.55 118.519 251.55 118.519C253.356 119.561 253.89 122.071 253.137 124.702C252.385 127.333 249.012 128.608 244.04 128.099C242.398 127.853 240.852 127.151 241.011 126.612C241.412 125.6 243.059 112.137 243.059 112.137C243.267 111.37 243.233 110.412 245.63 110.195ZM246.005 112.892L245.917 117.348C245.917 117.348 250.487 117.536 250.966 115.256C251.443 112.974 248.451 113.115 246.005 112.892ZM245.167 120.477C245.167 120.477 244.195 125.56 244.243 125.332C244.355 125.022 250.529 126.446 250.65 122.947C250.771 119.45 245.167 120.477 245.167 120.477Z" fill="#FFF5D8"/>
<path d="M94 60L52 100.362L55.3788 101.867L96.5 62L94 60Z" fill="#032412"/>
<path fill-rule="evenodd" clip-rule="evenodd" d="M79 72.658C79.7 74.3579 86.4999 81.2579 82.7999 82.2579C79.1 83.2578 80.4 91.7577 87.6999 89.8578C94.9998 87.9578 97.2997 78.3579 90.2998 74.3579C83.2999 70.358 79 72.658 79 72.658Z" fill="#FFF5D8" stroke="#032412" stroke-width="3" stroke-linecap="round" stroke-linejoin="round"/>
<path fill-rule="evenodd" clip-rule="evenodd" d="M66 81.658C66.7 83.3579 73.4999 90.2579 69.7999 91.2579C66.1 92.2578 67.4 100.758 74.6999 98.8578C81.9998 96.9578 84.2997 87.3579 77.2998 83.3579C70.2999 79.358 66 81.658 66 81.658Z" fill="#FFF5D8" stroke="#032412" stroke-width="3" stroke-linecap="round" stroke-linejoin="round"/>
<path fill-rule="evenodd" clip-rule="evenodd" d="M53 90.658C53.7 92.3579 60.4999 99.2579 56.7999 100.258C53.1001 101.258 54.4 109.758 61.7 107.858C68.9998 105.958 71.2998 96.3579 64.2998 92.3579C57.2999 88.358 53 90.658 53 90.658Z" fill="#FFF5D8" stroke="#032412" stroke-width="3" stroke-linecap="round" stroke-linejoin="round"/>
</g>
<defs>
<clipPath id="clip0_136_49">
<rect width="290" height="158" fill="white"/>
</clipPath>
</defs>
</svg>
