<svg width="44" height="44" viewBox="0 0 44 44" fill="none" xmlns="http://www.w3.org/2000/svg">
<path fill-rule="evenodd" clip-rule="evenodd" d="M10.1496 7.56118C5.08074 9.35033 2.30807 14.7657 3.8781 19.8102C4.74227 22.5866 6.0735 24.028 11.8123 28.4012C15.7951 31.4363 17.6426 32.9506 20.2954 35.3547L21.9996 36.8991L24.3839 34.751C25.6952 33.5695 27.7435 31.8449 28.9356 30.9185C30.1278 29.9919 32.3872 28.2381 33.9566 27.0209C38.925 23.1677 40.2934 21.1822 40.4833 17.5502C40.9773 8.10513 29.746 3.36806 23.3184 10.3106C22.6527 11.0297 22.108 11.7247 22.108 11.8549C22.108 11.9853 21.8302 11.7085 21.4908 11.2399C18.8773 7.63224 14.2243 6.12292 10.1496 7.56118Z" fill="#FFF5D8"/>
</svg>
