<svg width="39" height="40" viewBox="0 0 39 40" fill="none" xmlns="http://www.w3.org/2000/svg">
<circle cx="19.44" cy="20.3502" r="19.44" fill="#032412"/>
<path d="M18.4651 28.5801H10.6688V27.3651H11.2637C11.7952 27.3651 12.1749 27.306 12.4027 27.1879C12.639 27.0613 12.7824 26.8884 12.833 26.669C12.8921 26.4412 12.9216 26.0826 12.9216 25.5932V15.7466C12.9216 15.2488 12.8752 14.8818 12.7824 14.6455C12.698 14.4093 12.5124 14.2448 12.2255 14.152C11.9471 14.0591 11.4957 14.0127 10.8713 14.0127H10.4284V12.8484C11.8627 12.6543 12.871 12.4729 13.4532 12.3041C14.0354 12.1354 14.567 11.8823 15.0479 11.5448H16.2376V25.783C16.2376 26.3737 16.3388 26.7871 16.5413 27.0234C16.7438 27.2512 17.1446 27.3651 17.7437 27.3651H18.4651V28.5801ZM28.2342 27.0234C28.2342 27.5802 28.0401 28.0485 27.652 28.4282C27.2639 28.8079 26.7956 28.9977 26.2472 28.9977C25.7072 28.9977 25.2431 28.8079 24.855 28.4282C24.4668 28.0485 24.2728 27.5802 24.2728 27.0234C24.2728 26.4665 24.4626 25.994 24.8423 25.6059C25.222 25.2177 25.6903 25.0237 26.2472 25.0237C26.804 25.0237 27.2723 25.2177 27.652 25.6059C28.0401 25.9855 28.2342 26.458 28.2342 27.0234Z" fill="#FFF5D8"/>
</svg>
