<svg width="303" height="350" viewBox="0 0 303 350" fill="none" xmlns="http://www.w3.org/2000/svg">
<g clip-path="url(#clip0_168_9)">
<circle cx="151" cy="151.5" r="151.5" fill="#032412"/>
</g>
<path d="M151.026 350L0.273438 167L301.773 167L151.026 350Z" fill="#032412"/>
<path d="M82.704 123.933C82.704 126.358 81.9708 128.431 80.5044 130.151C79.0662 131.871 77.0782 133.168 74.5402 134.042C72.0304 134.945 69.1259 135.396 65.8265 135.396C63.5987 135.396 61.3569 135.17 59.1009 134.719C56.8449 134.296 54.871 133.648 53.179 132.773L51.5293 135.142H48.2299L47.8069 124.144H51.3601C51.9805 126.034 53.4046 127.74 55.6323 129.262C57.8601 130.757 61.089 131.504 65.3189 131.504C66.3905 131.504 67.5467 131.434 68.7875 131.293C70.0283 131.124 71.2126 130.687 72.3406 129.982C73.4968 129.277 74.0749 128.191 74.0749 126.724C74.0749 125.456 73.4827 124.539 72.2983 123.975C71.1421 123.383 68.9567 122.678 65.7419 121.86C61.8504 120.873 58.6638 119.942 56.1822 119.068C53.7007 118.166 51.5998 116.883 49.8796 115.219C48.1594 113.555 47.2994 111.412 47.2994 108.79C47.2994 105.462 48.8221 102.825 51.8677 100.88C54.9415 98.9338 58.9599 97.9609 63.923 97.9609C67.025 97.9609 69.5066 98.2147 71.3677 98.7223C73.2289 99.2299 74.794 99.7798 76.063 100.372L77.0782 98.2147H80.4621V108.028H76.9936C76.6834 106.872 75.9784 105.814 74.8786 104.856C73.7788 103.897 72.3124 103.164 70.4795 102.656C68.6747 102.12 66.5738 101.852 64.1768 101.852C62.2029 101.852 60.2289 102.064 58.2549 102.487C56.3091 102.91 55.3363 103.911 55.3363 105.49C55.3363 106.139 55.5195 106.675 55.8861 107.098C56.2809 107.521 56.9436 107.915 57.8742 108.282C58.8048 108.649 60.4404 109.128 62.781 109.72C65.1215 110.312 66.5174 110.665 66.9686 110.778C71.5651 111.934 75.3298 113.358 78.2625 115.05C81.2235 116.742 82.704 119.703 82.704 123.933ZM121.572 126.471C120.049 129.657 118.273 131.941 116.242 133.323C114.212 134.705 111.829 135.396 109.094 135.396C105.766 135.396 103.313 134.719 101.734 133.366C100.154 132.012 99.1816 130.503 98.815 128.839C98.4484 127.147 98.2651 125.258 98.2651 123.171V103.248H91.8779V99.3568C94.5569 99.3568 96.8833 98.8492 98.8573 97.834C100.831 96.8188 102.382 95.4511 103.51 93.7309C104.666 92.0108 105.4 90.1637 105.71 88.1897H109.178V99.3568H121.149V103.248H109.178V123.425C109.178 125.879 109.333 127.655 109.644 128.755C109.982 129.826 110.786 130.362 112.055 130.362C113.408 130.362 114.522 129.841 115.396 128.797C116.271 127.726 117.117 126.4 117.934 124.821L121.572 126.471ZM174.526 125.075C174.526 127.218 174.089 129.051 173.215 130.574C172.34 132.068 171.156 133.182 169.661 133.915C168.195 134.62 166.531 134.973 164.67 134.973C162.301 134.973 160.327 134.423 158.748 133.323C157.169 132.195 156.224 130.856 155.914 129.305C151.205 133.084 146.467 134.973 141.702 134.973C138.656 134.973 136.16 134.24 134.215 132.773C132.269 131.279 131.296 129.319 131.296 126.894C131.296 124.892 131.818 123.087 132.861 121.479C133.904 119.844 135.427 118.392 137.429 117.123C139.46 115.854 141.871 114.74 144.663 113.781C147.454 112.794 150.937 111.765 155.11 110.693V108.282C155.11 106.28 154.631 104.715 153.672 103.587C152.742 102.431 151.007 101.852 148.469 101.852C146.298 101.852 144.733 102.304 143.774 103.206C142.815 104.108 142.181 105.476 141.871 107.309C141.645 108.606 141.222 109.678 140.602 110.524C140.01 111.342 138.755 111.75 136.837 111.75C135.653 111.75 134.609 111.412 133.707 110.735C132.805 110.059 132.353 109.057 132.353 107.732C132.353 105.109 133.777 102.825 136.626 100.88C139.474 98.9338 143.845 97.9609 149.738 97.9609C155.942 97.9609 160.201 99.0043 162.513 101.091C164.853 103.178 166.024 105.97 166.024 109.466V122.833C166.024 124.525 166.066 125.766 166.151 126.555C166.235 127.345 166.461 127.951 166.827 128.374C167.222 128.769 167.829 128.966 168.646 128.966C169.379 128.966 170.014 128.586 170.55 127.824C171.114 127.063 171.396 126.146 171.396 125.075H174.526ZM155.11 125.413V114.923C149.753 116.615 146.34 118.279 144.874 119.914C143.436 121.522 142.717 123.101 142.717 124.652C142.717 125.949 143.112 126.992 143.901 127.782C144.691 128.572 145.805 128.966 147.243 128.966C148.794 128.966 150.161 128.642 151.346 127.993C152.53 127.345 153.785 126.485 155.11 125.413ZM217.92 104.644C217.92 106.28 217.412 107.577 216.397 108.536C215.41 109.466 214.24 109.932 212.886 109.932C211.279 109.932 209.869 109.142 208.656 107.563C208.093 106.858 207.627 106.35 207.261 106.04C206.894 105.73 206.372 105.575 205.696 105.575C203.496 105.575 201.776 106.773 200.535 109.17C199.322 111.539 198.716 114.006 198.716 116.573V123.933C198.716 126.302 199.012 127.923 199.604 128.797C200.225 129.671 201.832 130.108 204.427 130.108H206.668V134H180.4V130.108H182.6C184.969 130.108 186.421 129.657 186.957 128.755C187.493 127.852 187.761 126.245 187.761 123.933V111.581C187.761 109.692 187.563 108.338 187.168 107.521C186.802 106.703 186.125 106.167 185.138 105.913C184.151 105.631 182.572 105.49 180.4 105.49V101.599L196.897 97.9609C197.32 99.3991 197.715 102.459 198.082 107.14C198.871 105.476 199.901 103.953 201.169 102.572C202.467 101.19 203.905 100.076 205.484 99.2299C207.091 98.3839 208.727 97.9609 210.391 97.9609C212.703 97.9609 214.536 98.6095 215.89 99.9066C217.243 101.204 217.92 102.783 217.92 104.644ZM256.873 126.471C255.35 129.657 253.573 131.941 251.543 133.323C249.513 134.705 247.13 135.396 244.394 135.396C241.067 135.396 238.614 134.719 237.034 133.366C235.455 132.012 234.482 130.503 234.116 128.839C233.749 127.147 233.566 125.258 233.566 123.171V103.248H227.179V99.3568C229.858 99.3568 232.184 98.8492 234.158 97.834C236.132 96.8188 237.683 95.4511 238.811 93.7309C239.967 92.0108 240.7 90.1637 241.011 88.1897H244.479V99.3568H256.45V103.248H244.479V123.425C244.479 125.879 244.634 127.655 244.944 128.755C245.283 129.826 246.086 130.362 247.355 130.362C248.709 130.362 249.823 129.841 250.697 128.797C251.571 127.726 252.417 126.4 253.235 124.821L256.873 126.471Z" fill="#FFF5D8"/>
<defs>
<clipPath id="clip0_168_9">
<rect width="303" height="167" fill="white"/>
</clipPath>
</defs>
</svg>
