<svg width="214" height="262" viewBox="0 0 214 262" fill="none" xmlns="http://www.w3.org/2000/svg">
<g clip-path="url(#clip0_160_2)">
<path d="M115.388 176.458C120.427 173.673 125.748 171.312 126.877 164.727C127.419 161.565 126.341 159.057 126.466 156.311C126.551 154.431 126.131 151.044 125.079 149.377C123.353 146.643 123.131 144.059 120.91 141.245C119.38 139.306 116.469 137.908 113.934 137.473C108.859 136.603 102.208 135.801 97.8382 138.216C95.2787 139.631 93.8723 139.83 91.6618 141.793C89.7174 143.52 87.5656 145.042 85.5014 146.502L85.4968 146.505C81.9422 149.019 83.396 160.942 85.4991 163.916C88.5614 168.246 91.0588 171.68 94.6086 175.677C96.2919 177.572 104.301 177.545 106.984 178.005C109.334 178.408 113.37 177.573 115.388 176.458Z" stroke="#032412" stroke-width="2.16" stroke-linecap="round"/>
<path d="M129.141 162.333C129.114 162.927 132.532 166.796 133.323 167.686C134.499 169.01 135.537 173.702 135.24 175.432C133.982 182.767 124.869 175.509 121.421 174.917" stroke="#032412" stroke-width="2.16" stroke-linecap="round"/>
<path d="M121.421 174.917C123.174 177.734 120.927 187.294 116.557 187.064C111.589 186.802 108.731 183.833 105.774 179.652" stroke="#032412" stroke-width="2.16" stroke-linecap="round"/>
<path d="M104.874 179.497C103.946 184.908 103.003 185.667 97.4881 184.721C92.1567 183.807 91.7768 180.178 92.5732 175.534" stroke="#032412" stroke-width="2.16" stroke-linecap="round"/>
</g>
<g clip-path="url(#clip1_160_2)">
<path d="M52.7565 135.779C57.4292 130.305 62.6186 125.204 61.0458 117.001C60.2909 113.064 57.9266 110.602 56.8662 107.335C56.1401 105.097 54.1594 101.317 52.1964 99.8297C48.9754 97.3884 47.5804 94.4624 43.7444 92.1454C41.1007 90.5485 37.0804 90.1922 33.9227 90.7977C27.6023 92.0095 19.4665 93.9934 15.4143 98.7403C13.0409 101.52 11.4825 102.371 9.75857 105.64C8.24214 108.516 6.39293 111.242 4.61906 113.858L4.61507 113.864C1.5603 118.368 8.50129 131.681 12.269 134.237C17.7554 137.958 22.187 140.879 28.0975 143.996C30.9001 145.474 40.2603 141.922 43.6021 141.282C46.5298 140.72 50.8856 137.97 52.7565 135.779Z" stroke="#032412" stroke-width="2.7" stroke-linecap="round"/>
<path d="M62.6451 113.205C62.8743 113.912 68.5742 116.937 69.8908 117.632C71.8484 118.664 75.125 123.699 75.5381 125.854C77.2898 134.99 63.436 130.5 59.1403 131.324" stroke="#032412" stroke-width="2.7" stroke-linecap="round"/>
<path d="M59.1393 131.324C62.4287 133.849 64.0005 146.024 58.7851 147.675C52.8566 149.552 48.2085 147.334 42.9102 143.74" stroke="#032412" stroke-width="2.7" stroke-linecap="round"/>
<path d="M41.7892 143.956C43.0814 150.695 42.3113 151.997 35.4419 153.314C28.8013 154.587 26.7621 150.508 25.6529 144.723" stroke="#032412" stroke-width="2.7" stroke-linecap="round"/>
</g>
<g clip-path="url(#clip2_160_2)">
<path d="M45.6183 45.4205C50.8101 39.3387 56.5761 33.6708 54.8286 24.5566C53.9898 20.1817 51.3627 17.4466 50.1846 13.816C49.3778 11.3299 47.1769 7.13026 44.9959 5.47722C41.417 2.76472 39.867 -0.486418 35.6048 -3.06093C32.6674 -4.83524 28.2003 -5.23107 24.6918 -4.55838C17.6691 -3.2119 8.62939 -1.00754 4.12686 4.26678C1.4898 7.35586 -0.24174 8.3012 -2.15725 11.9334C-3.84217 15.1283 -5.89684 18.1577 -7.86782 21.0638L-7.87225 21.0703C-11.2664 26.0748 -3.55422 40.8678 0.632168 43.7071C6.72809 47.8415 11.6521 51.0874 18.2194 54.5508C21.3334 56.1931 31.7336 52.2469 35.4467 51.5349C38.6997 50.9112 43.5395 47.8556 45.6183 45.4205Z" stroke="#032412" stroke-width="3" stroke-linecap="round"/>
<path d="M56.6048 20.3392C56.8595 21.1242 63.1927 24.4858 64.6556 25.2573C66.8306 26.4044 70.4714 31.9988 70.9304 34.3929C72.8767 44.5439 57.4836 39.5558 52.7106 40.4709" stroke="#032412" stroke-width="3" stroke-linecap="round"/>
<path d="M52.7104 40.471C56.3654 43.2768 58.1117 56.805 52.3169 58.6392C45.7296 60.7242 40.5651 58.2598 34.6781 54.2671" stroke="#032412" stroke-width="3" stroke-linecap="round"/>
<path d="M33.4315 54.5061C34.8672 61.9941 34.0116 63.4412 26.3789 64.9047C19.0005 66.3194 16.7347 61.7868 15.5023 55.359" stroke="#032412" stroke-width="3" stroke-linecap="round"/>
</g>
<g clip-path="url(#clip3_160_2)">
<path d="M69.7619 209.351C75.4668 206.284 81.4836 203.698 82.8399 196.304C83.491 192.755 82.3107 189.919 82.487 186.832C82.6078 184.719 82.1792 180.902 81.0179 179.014C79.1124 175.916 78.8966 173.006 76.4347 169.811C74.738 167.61 71.4819 165.999 68.6357 165.477C62.9388 164.432 55.4673 163.443 50.5199 166.103C47.6223 167.661 46.0375 167.866 43.5252 170.046C41.3153 171.963 38.8748 173.647 36.5337 175.262L36.5285 175.266C32.497 178.047 33.9766 191.479 36.3035 194.851C39.6918 199.762 42.4562 203.658 46.3973 208.201C48.2661 210.355 57.276 210.429 60.2881 210.981C62.927 211.465 67.4777 210.579 69.7619 209.351Z" stroke="#032412" stroke-width="2.43" stroke-linecap="round"/>
<path d="M85.4192 193.642C85.381 194.309 89.1753 198.706 90.0532 199.718C91.3585 201.222 92.4647 206.515 92.1084 208.457C90.5978 216.691 80.4413 208.407 76.5694 207.697" stroke="#032412" stroke-width="2.43" stroke-linecap="round"/>
<path d="M76.5691 207.696C78.5046 210.887 75.8516 221.613 70.9384 221.297C65.3535 220.937 62.1781 217.56 58.9059 212.818" stroke="#032412" stroke-width="2.43" stroke-linecap="round"/>
<path d="M57.8952 212.633C56.7809 218.707 55.7101 219.548 49.5183 218.412C43.5328 217.314 43.1529 213.227 44.1095 208.013" stroke="#032412" stroke-width="2.43" stroke-linecap="round"/>
</g>
<g clip-path="url(#clip4_160_2)">
<path d="M132.234 229.67C132.782 226.562 133.607 223.48 131.188 220.731C130.027 219.411 128.586 219.007 127.458 218.009C126.686 217.325 125.096 216.337 124.024 216.212C122.263 216.006 121.085 215.211 119.12 215.189C117.766 215.174 116.168 215.934 115.11 216.865C112.991 218.729 110.359 221.289 109.884 223.984C109.606 225.563 109.206 226.231 109.282 227.85C109.349 229.274 109.257 230.715 109.168 232.098L109.168 232.101C109.016 234.483 114.601 237.969 116.593 238.096C119.494 238.281 121.818 238.399 124.745 238.261C126.133 238.196 128.879 234.772 129.999 233.786C130.981 232.923 132.015 230.914 132.234 229.67Z" stroke="#032412" stroke-width="1.1839" stroke-linecap="round"/>
<path d="M130.948 218.941C131.191 219.157 134.018 219.032 134.67 219.002C135.639 218.956 137.998 220.129 138.633 220.852C141.328 223.914 135.095 225.3 133.655 226.567" stroke="#032412" stroke-width="1.1839" stroke-linecap="round"/>
<path d="M133.654 226.567C135.459 226.789 138.762 231.04 137.159 232.824C135.336 234.852 133.087 235.048 130.285 234.869" stroke="#032412" stroke-width="1.1839" stroke-linecap="round"/>
<path d="M129.909 235.2C131.897 237.459 131.896 238.122 129.593 240.148C127.368 242.107 125.69 241.019 123.983 239.08" stroke="#032412" stroke-width="1.1839" stroke-linecap="round"/>
</g>
<g clip-path="url(#clip5_160_2)">
<path d="M173.234 215.67C173.782 212.562 174.607 209.48 172.188 206.731C171.027 205.411 169.586 205.007 168.458 204.009C167.686 203.325 166.096 202.337 165.024 202.212C163.263 202.006 162.085 201.211 160.12 201.189C158.766 201.174 157.168 201.934 156.11 202.865C153.991 204.729 151.359 207.289 150.884 209.984C150.606 211.563 150.206 212.231 150.282 213.85C150.349 215.274 150.257 216.715 150.168 218.098L150.168 218.101C150.016 220.483 155.601 223.969 157.593 224.096C160.494 224.281 162.818 224.399 165.745 224.261C167.133 224.196 169.879 220.772 170.999 219.786C171.981 218.923 173.015 216.914 173.234 215.67Z" stroke="#032412" stroke-width="1.1839" stroke-linecap="round"/>
<path d="M171.948 204.941C172.191 205.157 175.018 205.032 175.67 205.002C176.639 204.956 178.998 206.129 179.633 206.852C182.328 209.914 176.095 211.3 174.655 212.567" stroke="#032412" stroke-width="1.1839" stroke-linecap="round"/>
<path d="M174.654 212.567C176.459 212.789 179.762 217.04 178.159 218.824C176.336 220.852 174.087 221.048 171.285 220.869" stroke="#032412" stroke-width="1.1839" stroke-linecap="round"/>
<path d="M170.909 221.2C172.897 223.459 172.896 224.122 170.593 226.148C168.368 228.107 166.69 227.019 164.983 225.08" stroke="#032412" stroke-width="1.1839" stroke-linecap="round"/>
</g>
<g clip-path="url(#clip6_160_2)">
<path d="M173.234 215.67C173.782 212.563 174.607 209.481 172.188 206.731C171.027 205.412 169.586 205.007 168.458 204.009C167.686 203.325 166.096 202.338 165.024 202.212C163.263 202.007 162.085 201.211 160.12 201.189C158.766 201.174 157.168 201.934 156.11 202.865C153.991 204.73 151.359 207.289 150.884 209.985C150.606 211.563 150.206 212.231 150.282 213.85C150.349 215.274 150.257 216.715 150.168 218.098L150.168 218.101C150.016 220.483 155.601 223.969 157.593 224.096C160.494 224.281 162.818 224.399 165.745 224.262C167.133 224.197 169.879 220.772 170.999 219.786C171.981 218.923 173.015 216.915 173.234 215.67Z" stroke="#032412" stroke-width="1.1839" stroke-linecap="round"/>
<path d="M171.948 204.942C172.191 205.158 175.018 205.032 175.67 205.002C176.639 204.956 178.998 206.13 179.633 206.852C182.328 209.914 176.095 211.3 174.655 212.567" stroke="#032412" stroke-width="1.1839" stroke-linecap="round"/>
<path d="M174.654 212.567C176.459 212.789 179.762 217.04 178.159 218.824C176.336 220.852 174.087 221.048 171.285 220.87" stroke="#032412" stroke-width="1.1839" stroke-linecap="round"/>
<path d="M170.909 221.2C172.897 223.459 172.896 224.123 170.593 226.149C168.368 228.107 166.69 227.02 164.983 225.081" stroke="#032412" stroke-width="1.1839" stroke-linecap="round"/>
</g>
<g clip-path="url(#clip7_160_2)">
<path d="M179.264 247.069C179.647 244.894 180.225 242.736 178.531 240.812C177.718 239.888 176.71 239.605 175.92 238.906C175.38 238.427 174.267 237.736 173.516 237.648C172.284 237.504 171.46 236.948 170.084 236.932C169.136 236.922 168.017 237.454 167.277 238.106C165.794 239.411 163.951 241.203 163.618 243.089C163.424 244.194 163.144 244.662 163.197 245.795C163.244 246.792 163.18 247.801 163.118 248.769L163.118 248.771C163.011 250.438 166.921 252.878 168.315 252.967C170.346 253.097 171.973 253.179 174.021 253.083C174.993 253.038 176.915 250.64 177.699 249.95C178.386 249.346 179.11 247.94 179.264 247.069Z" stroke="#032412" stroke-width="0.828727" stroke-linecap="round"/>
<path d="M178.363 239.559C178.533 239.71 180.512 239.622 180.969 239.601C181.647 239.569 183.298 240.39 183.743 240.896C185.629 243.04 181.266 244.01 180.258 244.897" stroke="#032412" stroke-width="0.828727" stroke-linecap="round"/>
<path d="M180.258 244.897C181.522 245.052 183.834 248.028 182.711 249.277C181.435 250.696 179.861 250.834 177.9 250.708" stroke="#032412" stroke-width="0.828727" stroke-linecap="round"/>
<path d="M177.636 250.94C179.028 252.521 179.027 252.986 177.415 254.404C175.857 255.775 174.683 255.014 173.488 253.656" stroke="#032412" stroke-width="0.828727" stroke-linecap="round"/>
</g>
<g clip-path="url(#clip8_160_2)">
<path d="M206.958 227.041C207.188 225.736 207.534 224.442 206.518 223.287C206.03 222.733 205.425 222.563 204.952 222.144C204.627 221.856 203.96 221.442 203.509 221.389C202.77 221.303 202.275 220.969 201.45 220.959C200.881 220.953 200.21 221.272 199.765 221.663C198.876 222.446 197.77 223.521 197.57 224.653C197.454 225.316 197.286 225.597 197.318 226.277C197.346 226.875 197.307 227.48 197.27 228.061L197.27 228.063C197.206 229.063 199.552 230.527 200.388 230.58C201.607 230.658 202.583 230.708 203.812 230.65C204.395 230.622 205.549 229.184 206.019 228.77C206.431 228.408 206.865 227.564 206.958 227.041Z" stroke="#032412" stroke-width="0.497236" stroke-linecap="round"/>
<path d="M206.418 222.535C206.52 222.626 207.707 222.573 207.981 222.561C208.388 222.541 209.379 223.034 209.646 223.338C210.777 224.624 208.159 225.206 207.555 225.738" stroke="#032412" stroke-width="0.497236" stroke-linecap="round"/>
<path d="M207.554 225.738C208.312 225.831 209.7 227.617 209.026 228.366C208.261 229.218 207.316 229.3 206.139 229.225" stroke="#032412" stroke-width="0.497236" stroke-linecap="round"/>
<path d="M205.981 229.364C206.816 230.313 206.816 230.592 205.849 231.443C204.914 232.265 204.209 231.808 203.492 230.994" stroke="#032412" stroke-width="0.497236" stroke-linecap="round"/>
</g>
<g clip-path="url(#clip9_160_2)">
<path d="M115.757 100.779C120.429 95.3051 125.619 90.2039 124.046 82.0012C123.291 78.0637 120.927 75.6021 119.866 72.3346C119.14 70.0971 117.159 66.3174 115.196 64.8297C111.975 62.3884 110.58 59.4624 106.744 57.1454C104.101 55.5485 100.08 55.1922 96.9227 55.7977C90.6023 57.0095 82.4665 58.9934 78.4143 63.7403C76.0409 66.5205 74.4825 67.3713 72.7586 70.6402C71.2421 73.5156 69.3929 76.2422 67.6191 78.8576L67.6151 78.8635C64.5603 83.3676 71.5013 96.6812 75.269 99.2366C80.7554 102.958 85.187 105.879 91.0975 108.996C93.9001 110.474 103.26 106.922 106.602 106.282C109.53 105.72 113.886 102.97 115.757 100.779Z" stroke="#032412" stroke-width="2.7" stroke-linecap="round"/>
<path d="M125.645 78.2054C125.874 78.9119 131.574 81.9374 132.891 82.6317C134.848 83.6641 138.125 88.6991 138.538 90.8538C140.29 99.9897 126.436 95.5004 122.14 96.324" stroke="#032412" stroke-width="2.7" stroke-linecap="round"/>
<path d="M122.139 96.3238C125.429 98.8491 127 111.024 121.785 112.675C115.857 114.552 111.209 112.334 105.91 108.74" stroke="#032412" stroke-width="2.7" stroke-linecap="round"/>
<path d="M104.789 108.956C106.081 115.695 105.311 116.997 98.4419 118.314C91.8013 119.587 89.7621 115.508 88.6529 109.723" stroke="#032412" stroke-width="2.7" stroke-linecap="round"/>
</g>
<defs>
<clipPath id="clip0_160_2">
<rect width="64.08" height="66.24" fill="white" transform="translate(92.6895 116.85) rotate(20.5833)"/>
</clipPath>
<clipPath id="clip1_160_2">
<rect width="80.1" height="82.8" fill="white" transform="translate(0 76)"/>
</clipPath>
<clipPath id="clip2_160_2">
<rect width="73" height="71" fill="white" transform="translate(3)"/>
</clipPath>
<clipPath id="clip3_160_2">
<rect width="72.09" height="74.52" fill="white" transform="translate(45.0078 142) rotate(21.249)"/>
</clipPath>
<clipPath id="clip4_160_2">
<rect width="35.1222" height="36.3061" fill="white" transform="translate(99 218.822) rotate(-30.4929)"/>
</clipPath>
<clipPath id="clip5_160_2">
<rect width="35.1222" height="36.3061" fill="white" transform="translate(140 204.822) rotate(-30.4929)"/>
</clipPath>
<clipPath id="clip6_160_2">
<rect width="35.1222" height="36.3061" fill="white" transform="translate(140 204.822) rotate(-30.4929)"/>
</clipPath>
<clipPath id="clip7_160_2">
<rect width="24.5856" height="25.4143" fill="white" transform="translate(156 239.476) rotate(-30.4929)"/>
</clipPath>
<clipPath id="clip8_160_2">
<rect width="14.7513" height="15.2486" fill="white" transform="translate(193 222.485) rotate(-30.4929)"/>
</clipPath>
<clipPath id="clip9_160_2">
<rect width="80.1" height="82.8" fill="white" transform="translate(63 41)"/>
</clipPath>
</defs>
</svg>
