<svg width="39" height="40" viewBox="0 0 39 40" fill="none" xmlns="http://www.w3.org/2000/svg">
<circle cx="19.44" cy="19.89" r="19.44" fill="#032412"/>
<path d="M20.1484 22.412C20.1484 23.2558 19.9712 24.0447 19.6168 24.7787C19.2709 25.5128 18.7773 26.1625 18.136 26.7278C17.5032 27.2931 16.7734 27.7319 15.9465 28.0441C15.1196 28.3562 14.2421 28.5123 13.314 28.5123C12.4787 28.5123 11.7362 28.4027 11.0865 28.1833C10.4368 27.9639 9.92633 27.6559 9.55508 27.2594C9.19227 26.8544 9.01086 26.4072 9.01086 25.9178C9.01086 25.4791 9.14164 25.1373 9.4032 24.8927C9.66477 24.6395 9.9643 24.513 10.3018 24.513C10.7152 24.513 11.0316 24.6437 11.251 24.9053C11.4788 25.1584 11.7151 25.5466 11.9598 26.0697C12.1791 26.5084 12.4027 26.8206 12.6305 27.0062C12.8584 27.1919 13.1705 27.2847 13.5671 27.2847C14.9255 27.2847 15.7988 26.8248 16.187 25.9052C16.5835 24.977 16.7818 24.032 16.7818 23.0702C16.7818 21.8552 16.6679 20.9523 16.4401 20.3617C16.2207 19.7627 15.8073 19.4631 15.1998 19.4631C14.8032 19.4631 14.3729 19.653 13.9088 20.0327C13.4279 20.4461 13.082 20.6528 12.871 20.6528C12.7107 20.6528 12.5673 20.598 12.4407 20.4883C12.3141 20.3786 12.2509 20.2267 12.2509 20.0327C12.2509 19.8386 12.3141 19.6656 12.4407 19.5137C12.5673 19.3619 12.7529 19.2058 12.9976 19.0455C14.027 18.3536 14.7695 17.8178 15.2251 17.4381C15.6891 17.0584 16.0435 16.645 16.2882 16.1978C16.5329 15.7506 16.6552 15.2148 16.6552 14.5905C16.6552 13.848 16.419 13.2827 15.9465 12.8945C15.4824 12.5064 14.9213 12.3123 14.2632 12.3123C13.8751 12.3123 13.4954 12.4009 13.1241 12.5781C12.7613 12.7469 12.4702 12.9789 12.2509 13.2742C12.0399 13.5695 11.9345 13.8775 11.9345 14.1981C11.9345 14.6284 12.0821 15.025 12.3774 15.3878C12.5124 15.565 12.5799 15.6705 12.5799 15.7042C12.5799 15.7633 12.5377 15.8181 12.4534 15.8687C12.369 15.9194 12.2846 15.97 12.2002 16.0206L11.1371 16.4762C10.9346 16.5859 10.7701 16.6408 10.6435 16.6408C10.441 16.6408 10.2343 16.4467 10.0234 16.0586C9.81242 15.6705 9.70695 15.2655 9.70695 14.8436C9.70695 14.3964 9.86305 13.8859 10.1752 13.3122C10.4874 12.73 11.0485 12.2153 11.8585 11.7681C12.6685 11.3125 13.7738 11.0847 15.1745 11.0847C16.0435 11.0847 16.8155 11.1944 17.4905 11.4137C18.1655 11.6247 18.6971 11.958 19.0852 12.4136C19.4818 12.8608 19.6801 13.4134 19.6801 14.0716C19.6801 14.5694 19.5662 15.0377 19.3384 15.4764C19.1105 15.9152 18.8321 16.2948 18.503 16.6155C18.174 16.9361 17.8576 17.2061 17.5538 17.4255C17.2501 17.6364 16.8704 17.8853 16.4148 18.1722C17.6298 18.2228 18.5368 18.6362 19.1359 19.4125C19.4396 19.7837 19.6843 20.1887 19.8699 20.6275C20.0555 21.0662 20.1484 21.6611 20.1484 22.412ZM28.2342 26.5633C28.2342 27.1202 28.0401 27.5884 27.652 27.9681C27.2639 28.3478 26.7956 28.5377 26.2472 28.5377C25.7072 28.5377 25.2431 28.3478 24.855 27.9681C24.4668 27.5884 24.2728 27.1202 24.2728 26.5633C24.2728 26.0064 24.4626 25.5339 24.8423 25.1458C25.222 24.7577 25.6903 24.5636 26.2472 24.5636C26.804 24.5636 27.2723 24.7577 27.652 25.1458C28.0401 25.5255 28.2342 25.998 28.2342 26.5633Z" fill="#FFF5D8"/>
</svg>
