<svg width="1365" height="107" viewBox="0 0 1365 107" fill="none" xmlns="http://www.w3.org/2000/svg">
<path d="M22.3077 19.4545V29.1818H0V0H78.077V29.1818H55.7693V19.4545L44.7047 19.3767L44.6154 48.6364H55.7693V58.3636H44.6154V87.5455H55.7693V107H22.3077V87.5455H33.4616V58.3636H22.3077V48.6364H33.4616V19.4545H22.3077Z" fill="#F7F0DD"/>
<path d="M156.368 87.5455V58.3636H122.907V87.5455H134.06V107H98.3681V87.5455H109.522V19.4545H98.3681V0H134.06V19.4545H122.907V38.9091H156.368V48.6364H167.522V87.5455H178.676V107H145.214V87.5455H156.368Z" fill="#F7F0DD"/>
<path d="M210.21 58.3636V68.0909H243.672V58.3636H210.21ZM210.21 107V97.2727H199.056V48.6364H210.21V38.9091H254.825V48.6364H265.979V77.8182H210.21V87.5455H265.979V97.2727H254.825V107H210.21Z" fill="#F7F0DD"/>
<path d="M442.817 68.0909H451.74V77.8182H462.894V87.5455H451.74V97.2727H440.586V107H407.125V97.2727H395.971V107H373.663V77.8182H395.971V87.5455H440.586V70.0364L438.355 68.0909H429.432V60.3091L427.202 58.3636H418.279V68.0909H407.125V58.3636H395.971V50.5818L393.74 48.6364H384.817V38.9091H373.663V29.1818H384.817V9.72727H395.971V0H429.432V9.72727H440.586V0H462.894V29.1818H440.586V19.4545H395.971V46.6909L398.202 48.6364H407.125V38.9091H418.279V48.6364H429.432V56.4182L431.663 58.3636H440.586V66.1455L442.817 68.0909Z" fill="#F7F0DD"/>
<path d="M483.274 0H505.582V19.4545H483.274V0ZM483.274 38.9091H505.582V87.5455H516.736V107H483.274V87.5455H494.428V58.3636H483.274V38.9091Z" fill="#F7F0DD"/>
<path d="M537.027 0H559.335V87.5455H570.489V107H537.027V87.5455H548.181V19.4545H537.027V0Z" fill="#F7F0DD"/>
<path d="M590.78 0H613.087V19.4545H590.78V0ZM590.78 38.9091H613.087V87.5455H624.241V107H590.78V87.5455H601.933V58.3636H590.78V38.9091Z" fill="#F7F0DD"/>
<path d="M689.148 77.8182H711.455V97.2727H700.302V107H655.686V97.2727H644.532V48.6364H655.686V38.9091H700.302V48.6364H711.455V68.0909H689.148V58.3636H655.686V87.5455H689.148V77.8182Z" fill="#F7F0DD"/>
<path d="M742.99 58.3636V87.5455H787.605V58.3636H742.99ZM742.99 107V97.2727H731.836V48.6364H742.99V38.9091H787.605V48.6364H798.759V97.2727H787.605V107H742.99Z" fill="#F7F0DD"/>
<path d="M874.909 58.3636H841.447V87.5455H852.601V107H819.139V87.5455H830.293V58.3636H819.139V38.9091H874.909V48.6364H886.062V87.5455H897.216V107H863.755V87.5455H874.909V58.3636Z" fill="#F7F0DD"/>
<path d="M1027.12 19.4545V29.1818H1004.81V0H1082.89V29.1818H1060.58V19.4545L1049.52 19.3767L1049.43 48.6364H1060.58V58.3636H1049.43V87.5455H1060.58V107H1027.12V87.5455H1038.27V58.3636H1027.12V48.6364H1038.27V19.4545H1027.12Z" fill="#F7F0DD"/>
<path d="M1158.95 48.6364H1170.1V68.0909H1147.79V58.3636H1125.49V87.5455H1136.64V107H1103.18V87.5455H1114.33V58.3636H1103.18V38.9091H1158.95V48.6364Z" fill="#F7F0DD"/>
<path d="M1199.41 77.8182L1201.64 75.8727V68.0909H1235.1V58.3636H1190.48V38.9091H1235.1V48.6364H1246.25V87.5455H1257.41V107H1246.25V97.2727H1235.1V107H1201.64V97.2727H1190.48V77.8182H1199.41ZM1201.64 79.7636V87.5455H1235.1V77.8182H1203.87L1201.64 79.7636Z" fill="#F7F0DD"/>
<path d="M1277.79 0H1300.09V19.4545H1277.79V0ZM1277.79 38.9091H1300.09V87.5455H1311.25V107H1277.79V87.5455H1288.94V58.3636H1277.79V38.9091Z" fill="#F7F0DD"/>
<path d="M1331.54 0H1353.85V87.5455H1365V107H1331.54V87.5455H1342.69V19.4545H1331.54V0Z" fill="#F7F0DD"/>
</svg>
