<svg width="39" height="40" viewBox="0 0 39 40" fill="none" xmlns="http://www.w3.org/2000/svg">
<circle cx="19.44" cy="20.1199" r="19.44" fill="#032412"/>
<path d="M19.9205 26.1478L19.351 29.3119H18.2879C18.3301 29.1262 18.3512 28.9786 18.3512 28.8689C18.3512 28.5229 18.1402 28.35 17.7184 28.35H9.36523V27.1603C10.479 26.1225 11.5716 24.9623 12.6432 23.6798C13.7232 22.3889 14.6218 21.0558 15.339 19.6804C16.0562 18.2967 16.4148 16.9889 16.4148 15.757C16.4148 15.0483 16.284 14.4534 16.0224 13.9725C15.7693 13.4831 15.436 13.1245 15.0226 12.8967C14.6176 12.6604 14.183 12.5423 13.719 12.5423C13.2802 12.5423 12.8795 12.6478 12.5166 12.8587C12.1538 13.0612 11.8712 13.3354 11.6687 13.6814C11.4662 14.0273 11.3649 14.3901 11.3649 14.7698C11.3649 15.217 11.5379 15.795 11.8838 16.5037C11.9091 16.5544 11.9218 16.5965 11.9218 16.6303C11.9218 16.6978 11.7446 16.8033 11.3902 16.9467L10.5676 17.2884C10.2891 17.4065 10.1246 17.4656 10.074 17.4656C9.93898 17.4656 9.78289 17.2378 9.6057 16.7822C9.42852 16.3265 9.33992 15.8287 9.33992 15.2887C9.33992 14.5378 9.52977 13.8628 9.90945 13.2637C10.2976 12.6647 10.8798 12.1922 11.656 11.8462C12.4407 11.4919 13.3899 11.3147 14.5037 11.3147C15.8705 11.3147 16.9463 11.5804 17.731 12.112C18.5241 12.6351 19.0557 13.2342 19.3257 13.9092C19.6041 14.5758 19.7434 15.2001 19.7434 15.7823C19.7434 16.9636 19.3595 18.1153 18.5916 19.2375C17.8238 20.3512 16.7734 21.5747 15.4402 22.9078C15.3727 22.9753 15.1027 23.2284 14.6302 23.6672C14.1662 24.1059 13.6346 24.6037 13.0355 25.1606C12.4365 25.709 12.0779 26.0381 11.9598 26.1478H19.9205ZM28.2342 26.7933C28.2342 27.3501 28.0401 27.8184 27.652 28.1981C27.2639 28.5778 26.7956 28.7676 26.2472 28.7676C25.7072 28.7676 25.2431 28.5778 24.855 28.1981C24.4668 27.8184 24.2728 27.3501 24.2728 26.7933C24.2728 26.2364 24.4626 25.7639 24.8423 25.3758C25.222 24.9876 25.6903 24.7936 26.2472 24.7936C26.804 24.7936 27.2723 24.9876 27.652 25.3758C28.0401 25.7554 28.2342 26.2279 28.2342 26.7933Z" fill="#FFF5D8"/>
</svg>
